<?xml version="1.0" standalone="no"?>
<!DOCTYPE svg PUBLIC "-//W3C//DTD SVG 1.1//EN" "http://www.w3.org/Graphics/SVG/1.1/DTD/svg11.dtd" >
<svg xmlns="http://www.w3.org/2000/svg" xmlns:xlink="http://www.w3.org/1999/xlink" version="1.1">
<metadata>
Created by FontForge 20170731 at Wed Mar  2 17:01:18 2022
 By Aleksey,,,
(c)2022, Graphix Line Studio
</metadata>
<defs>
<font id="CupcakeRegular" horiz-adv-x="0" >
  <font-face 
    font-family="Cupcake"
    font-weight="400"
    font-stretch="normal"
    units-per-em="2048"
    panose-1="0 0 0 0 0 0 0 0 0 0"
    ascent="1638"
    descent="-410"
    x-height="879"
    cap-height="1591"
    bbox="-287 -559 9906.42 1638"
    underline-thickness="102"
    underline-position="-409"
    unicode-range="U+000A-F035"
  />
<missing-glyph horiz-adv-x="1079" 
d="M102 1434h875v-1434h-875v1434zM160 1393l379 -633l381 633h-760zM514 717l-369 614v-1231zM541 674l-379 -631h758zM565 717l371 -621v1239z" />
    <glyph glyph-name="tt.liga" unicode="tt" horiz-adv-x="989" 
d="M1033 663q14 -2 22.5 -13t4.5 -28q-22 -117 -49.5 -217t-65.5 -195t-89 -150t-108 -55q-82 0 -141.5 84.5t-93.5 243.5q-104 -333 -243 -333q-129 0 -202 204.5t-73 565.5q0 149 6 269q-98 -5 -163 -9h-7q-26 0 -41 10t-17 25q-2 13 9 24.5t33 15.5q48 7 190 13
q9 140 27 222q14 66 87 66q49 0 83.5 -18t40.5 -42q2 -7 -9 -106q-1 -12 -5.5 -50t-6.5 -63q127 4 263 6q9 131 26 213q14 66 87 66q49 0 83 -18t40 -42q3 -10 -8 -106q-1 -12 -5.5 -49.5t-6.5 -62.5q125 0 185 -6q26 -2 41.5 -15t14.5 -28q-2 -27 -45 -27h-1h-59h-75h-68
q-19 -217 -19 -419q0 -237 29 -378.5t67 -177.5q0 1 1 1q61 41 120.5 209.5t97.5 342.5q4 16 16.5 23t26.5 4zM485 521q-11 121 -11 255q0 156 6 279q-180 -4 -265 -7q-18 -203 -18 -414q0 -238 28.5 -379t66.5 -177q1 1 2 1q93 63 191 442z" />
    <glyph glyph-name="cupcake.liga" unicode="cupcake" horiz-adv-x="10008" 
d="M9879 622q14 -3 21.5 -15t5.5 -26q-14 -107 -106 -157.5t-273 -50.5q-161 0 -392 15t-369 15q-105 0 -194 -10t-152.5 -23.5t-121 -39t-91 -45t-71.5 -54.5t-54.5 -54t-46.5 -56q-33 -41 -52.5 -61.5t-54.5 -47t-77.5 -37.5t-98.5 -11q-139 0 -237 92t-128 247
q-149 -195 -310 -195q-69 0 -143.5 31t-119.5 78q9 -139 34 -267q7 -26 -6 -50t-39 -33q-11 -4 -25 -4q-36 -2 -52 29q-44 81 -75 298q-41 -113 -96 -179.5t-116 -66.5q-60 0 -108 31.5t-78.5 79t-53 113t-33 122.5t-17.5 119q-66 -176 -115 -234.5t-130 -58.5
q-58 0 -110 42.5t-79 117.5q-32 -65 -82 -133q-135 -178 -295 -178q-194 0 -316.5 141.5t-122.5 364.5q0 5 0.5 14.5t0.5 14.5q-92 0 -170 -14q-6 -166 -121 -308q-56 -69 -124 -107.5t-132 -38.5t-99.5 39.5t-35.5 110.5q0 120 114 220q82 73 199 117q2 28 2 41
q0 128 -40 197q-2 1 -7 1q-56 0 -116 -60q-86 -86 -147 -273t-60 -423q11 -134 47 -290q13 -53 -28 -77q-15 -9 -33 -9q-19 0 -31 11q-51 49 -89.5 191t-58.5 330q-93 -197 -213 -197t-199 148q-67 127 -70 285q-23 -67 -40 -111t-39.5 -88.5t-44 -69.5t-49.5 -41t-60 -16
q-74 0 -126.5 72.5t-70.5 196.5q-71 -162 -178 -266t-228 -104q-194 0 -316.5 141t-122.5 364q0 26 4 74q-126 -90 -317 -121.5t-507 -31.5q-165 0 -592 21q-241 13 -306 13q-298 0 -329 -137q-4 -19 -29 -19h-6q-12 2 -21 10t-8 21q1 28 9.5 54.5t33 58t62.5 54t106 38
t157 15.5q82 0 369 -17q398 -22 486 -22q400 0 602.5 43t316.5 153q21 72 62 138q106 166 278 166q121 0 187 -82.5t66 -231.5q0 -105 -17 -158q-5 -16 -19 -24.5t-31 -6.5q-27 3 -29 26q-2 14 0 41q0 6 0.5 20.5t0.5 21.5q0 118 -18 177.5t-67 99.5q-3 2 -7 0
q-83 -35 -147 -149t-64 -262q0 -171 67 -288.5t164 -117.5q66 0 141.5 76.5t138 192.5t103.5 245q5 77 20 138q2 6 6 13.5t12.5 17t25 15.5t38.5 6q77 0 112 -38q21 -23 18 -51q0 -2 -11 -97q-21 -168 -21 -260q0 -118 19 -148q98 60 233 584q0 1 0.5 4t0.5 5q7 58 88 58
q82 0 119 -42q23 -24 18 -57q-30 -217 -30 -366q0 -122 23 -213.5t49 -91.5q32 0 87 90t96 211q-3 72 -3 142q0 292 26 400q13 53 78 53q47 0 83 -17.5t41 -43.5q2 -11 -10 -143q-10 -110 -13 -146q51 116 131 199.5t159 83.5q118 0 197 -96q65 -79 81 -206q92 12 180 5
q20 140 86 244q106 165 278 165q122 0 187.5 -81t65.5 -232q0 -106 -17 -159q-12 -32 -45 -30h-5q-28 3 -30 26q-1 8 1 41q0 6 0.5 20.5t0.5 21.5q0 118 -18.5 177.5t-67.5 99.5q-4 2 -7 0q-83 -35 -147 -149.5t-64 -262.5q0 -170 67 -287t165 -117q85 0 177 113t161 279
q5 105 40.5 195t104.5 150t158 60q98 0 157 -43q10 69 88 69q65 0 102 -37q17 -15 17 -38q0 -1 -0.5 -11.5t-0.5 -19.5q-8 -308 -8 -337q0 -95 9 -173t23 -127.5t32 -76t36 -26.5q7 0 20.5 15t33.5 48t40 78t42 113t38 145q-6 83 -6 189q0 138 14.5 322t31.5 262
q13 56 83 56q50 0 89.5 -22.5t44.5 -47.5q4 -23 -19 -168q-57 -357 -57 -581v-27q86 63 185.5 229t139.5 316q12 45 45 45q28 0 53.5 -22.5t25.5 -44.5q0 -75 -64 -204.5t-160.5 -247.5t-177.5 -156v-2q36 -62 93 -97.5t122 -35.5q76 0 155.5 68t150.5 175q1 194 82.5 323.5
t203.5 129.5q93 0 141 -60t48 -175q0 -85 -32 -159t-88 -118q-65 -52 -136 -36q1 -66 19.5 -131t58 -112.5t89.5 -47.5q38 0 67 8.5t54 30t39 38t40 51.5q22 30 35.5 47t42 47.5t53 49t66 45t85.5 42.5t106.5 34.5t133 29t162.5 17.5t196 7q119 0 370 -13q234 -12 293 -12
q152 0 233.5 28.5t106.5 108.5q4 10 14 15.5t21 2.5zM4337 125h3q58 23 104.5 105.5t70.5 185.5q-60 -29 -112 -78q-77 -74 -77 -155q0 -41 11 -58zM7715 778q-47 -42 -79 -143.5t-40 -227.5q40 -5 77 26q39 32 63 90t24 119q0 97 -44 136h-1zM5916 351q0 -65 22 -131
q53 55 122 243t69 220q0 6 -22 27.5t-36 29.5h-2q-4 0 -6 -1q-68 -35 -107.5 -148.5t-39.5 -239.5z" />
    <glyph glyph-name=".notdef" horiz-adv-x="1079" 
d="M102 1434h875v-1434h-875v1434zM160 1393l379 -633l381 633h-760zM514 717l-369 614v-1231zM541 674l-379 -631h758zM565 717l371 -621v1239z" />
    <glyph glyph-name=".null" 
 />
    <glyph glyph-name=".null" 
 />
    <glyph glyph-name="nonmarkingreturn" horiz-adv-x="682" 
 />
    <glyph glyph-name="controlLF" unicode="&#xa;" 
 />
    <glyph glyph-name="controlCR" unicode="&#xd;" 
 />
    <glyph glyph-name="space" unicode=" " horiz-adv-x="571" 
 />
    <glyph glyph-name="exclam" unicode="!" horiz-adv-x="452" 
d="M228 74q34 0 60 -23.5t26 -61.5q0 -36 -25 -61t-61 -25t-61.5 25t-25.5 60t26 60.5t61 25.5zM331 1349q25 -30 18 -73q-16 -106 -37 -433t-21 -477v-93v-119q2 -22 -15 -39q-20 -22 -52 -22q-47 0 -65 50q-27 70 -42 261.5t-15 366.5q0 171 10 342.5t25 221.5
q16 52 82 52q79 0 112 -38z" />
    <glyph glyph-name="quotedbl" unicode="&#x22;" horiz-adv-x="622" 
d="M504 1356q17 -18 15 -41q-10 -152 -2 -247q3 -28 -37 -41q-18 -5 -34 -5q-49 0 -66 31q-15 26 -31.5 112t-16.5 137q0 41 22 64t62 23q58 0 88 -33zM279 1349q12 -12 12 -26q-9 -170 -3 -263q2 -28 -37 -39q-13 -4 -30 -4q-53 0 -69 30q-18 32 -33.5 113t-16.5 137
q0 42 23 65t62 23q24 0 51 -10.5t41 -25.5z" />
    <glyph glyph-name="quotedbl" unicode="&#x201d;" horiz-adv-x="622" 
d="M504 1356q17 -18 15 -41q-10 -152 -2 -247q3 -28 -37 -41q-18 -5 -34 -5q-49 0 -66 31q-15 26 -31.5 112t-16.5 137q0 41 22 64t62 23q58 0 88 -33zM279 1349q12 -12 12 -26q-9 -170 -3 -263q2 -28 -37 -39q-13 -4 -30 -4q-53 0 -69 30q-18 32 -33.5 113t-16.5 137
q0 42 23 65t62 23q24 0 51 -10.5t41 -25.5z" />
    <glyph glyph-name="quotedbl" unicode="&#x201c;" horiz-adv-x="622" 
d="M504 1356q17 -18 15 -41q-10 -152 -2 -247q3 -28 -37 -41q-18 -5 -34 -5q-49 0 -66 31q-15 26 -31.5 112t-16.5 137q0 41 22 64t62 23q58 0 88 -33zM279 1349q12 -12 12 -26q-9 -170 -3 -263q2 -28 -37 -39q-13 -4 -30 -4q-53 0 -69 30q-18 32 -33.5 113t-16.5 137
q0 42 23 65t62 23q24 0 51 -10.5t41 -25.5z" />
    <glyph glyph-name="numbersign" unicode="#" horiz-adv-x="1286" 
d="M1145 911q20 -4 30 -18t8 -30q-2 -14 -10 -22.5t-19 -8.5h-49h-105q-32 -100 -105 -342q91 -2 115 -6q36 -5 32 -44q-2 -13 -9.5 -23t-17.5 -9q-41 5 -144 3q-87 -291 -112 -398q-11 -46 -37 -71.5t-55 -25.5q-1 0 -4 0.5t-5 0.5q-23 4 -38.5 24.5t-12.5 58.5
q11 113 81 406q-9 0 -198 -9q-90 -316 -113 -419q-6 -30 -27 -46t-46 -16q-2 0 -5 0.5t-4 0.5q-23 3 -38.5 20t-14.5 46q4 97 77 404q-136 -10 -172 -18q-3 -1 -8 -1q-28 0 -36 33q-3 16 4.5 29.5t25.5 17.5q57 12 206 24q53 214 89 348q-103 -5 -144 -11q-2 0 -4 -0.5
t-3 -0.5q-31 0 -37 31q-3 17 5 32.5t26 19.5q36 9 181 16q98 350 131 412q25 48 65 48q30 0 61.5 -15.5t46.5 -37.5q15 -23 8 -40q-45 -121 -120 -360q118 2 178 2q96 332 147 421q14 25 26.5 33.5t35.5 8.5q73 0 105 -47q19 -26 9 -52q-29 -79 -119 -364q102 -2 119 -5z
M708 489q30 123 90 341q-20 0 -56.5 -0.5t-67 -1t-57.5 -1.5q-22 -71 -102 -345q130 6 193 7z" />
    <glyph glyph-name="dollar" unicode="$" horiz-adv-x="966" 
d="M567 613q66 -15 113.5 -32.5t92.5 -44.5t68.5 -68t23.5 -94q0 -105 -127 -190q-66 -45 -147 -66q6 -62 15 -120q8 -48 -40 -67q-13 -5 -27 -5q-37 0 -53 26q-25 40 -48 147q-108 1 -181 52t-73 111q0 20 11.5 32.5t30.5 12.5q21 0 33 -12q12 -13 12 -44v-3q0 -14 36 -24
t80 -10q19 0 29 1q-26 162 -34 315q-59 15 -105.5 34.5t-88 49.5t-64 73.5t-22.5 98.5q0 99 82.5 185.5t210.5 128.5q14 170 25 230q12 73 88 73q75 0 113 -44q25 -30 19 -65q-1 -8 -10 -68t-15 -101q86 -15 149.5 -80t63.5 -153q0 -54 -24.5 -104.5t-47.5 -57.5
q-6 -2 -9 -2q-22 0 -37 21q-12 17 -3 30q40 57 40 113q0 49 -31.5 77.5t-86.5 28.5q-10 0 -30 -2q-26 -219 -32 -383zM377 698q0 88 5 206q-58 -45 -93 -98t-35 -99q0 -14 2 -18q39 -18 122 -36q0 7 -0.5 22t-0.5 23zM642 300q43 33 70.5 71.5t27.5 66.5q0 11 -12 19
t-43 15.5t-51 11t-69 11.5q1 -95 13 -235q40 21 64 40z" />
    <glyph glyph-name="percent" unicode="%" horiz-adv-x="1138" 
d="M981 347q55 -54 55 -180q0 -103 -44 -172.5t-109 -69.5q-83 0 -147.5 67t-64.5 175q0 60 15 111t48.5 85.5t80.5 34.5q13 0 31 -7q10 6 18 6q23 0 58.5 -14t58.5 -36zM880 3q10 0 24.5 18t26.5 55.5t12 79.5q0 116 -51 157q0 -1 -1 -3.5t-2 -3.5l-4 -10
q-15 -32 -22.5 -52t-15 -58t-7.5 -81t12.5 -72.5t27.5 -29.5zM1020 1302q12 -23 0 -42q-125 -185 -341.5 -588t-361.5 -695q-24 -49 -70 -49q-14 0 -27 5q-22 9 -34 29.5t-5 43.5q45 144 298.5 680.5t353.5 660.5q21 26 55 26q35 0 76.5 -22t55.5 -49zM467 1134
q0 -103 -43.5 -171.5t-108.5 -68.5q-91 0 -152 69.5t-61 172.5q0 93 35.5 162t107.5 69q14 0 27 -5q7 5 16 5q26 0 51.5 -7.5t57 -29t51 -72t19.5 -124.5zM272 1074q0 -43 13.5 -72.5t26.5 -29.5q9 0 23 17t26.5 55t12.5 85q0 111 -51 152q-1 -1 -1 -2t-1 -2
q-49 -92 -49 -203z" />
    <glyph glyph-name="ampersand" unicode="&#x26;" horiz-adv-x="1128" 
d="M897 823q13 11 27.5 32t14.5 33q0 25 -57.5 45.5t-144.5 20.5q-24 0 -37 -1q-26 -260 -26 -431h14q11 0 33 0.5t35 0.5h1q40 0 64 -24t24 -64q0 -63 -43 -66q-53 -4 -124 -18q5 -134 18 -289q169 34 215 82q2 2 3 4q11 19 25 19q22 0 36 -16q16 -17 11 -43
q-7 -39 -88.5 -79.5t-192.5 -62.5q2 -22 4.5 -46.5t3.5 -36t1 -13.5q3 -27 -12 -45t-37 -25q-9 -3 -20 -3q-41 0 -58 36q-20 42 -37 115h-15q-161 0 -257 47q-115 57 -115 174q0 87 72 169.5t160 113.5q-121 26 -207 110t-86 210q0 140 111.5 234.5t281.5 129.5
q13 131 29 189q19 67 83 67q84 0 124 -47q20 -25 14 -53q-13 -70 -23 -142q138 -14 221 -86.5t83 -181.5q0 -51 -31 -83t-60 -32q-16 0 -28.5 9t-16.5 20q-6 16 7 27zM222 682q0 -43 73 -85.5t177 -62.5q-2 36 -2 104q0 130 8 269q-112 -42 -184 -104.5t-72 -120.5zM518 41
h12q-21 110 -39 257q-103 -40 -166.5 -89t-63.5 -89q0 -30 88 -54.5t169 -24.5z" />
    <glyph glyph-name="quotesingle" unicode="'" horiz-adv-x="393" 
d="M290 1310q0 -17 -1 -32q-6 -166 -1 -216q3 -32 -34 -43q-13 -4 -31 -4q-55 0 -73 33q-15 27 -30.5 107.5t-17.5 136.5q-1 42 23 68q21 22 62 22q55 0 85 -32q18 -18 18 -40z" />
    <glyph glyph-name="quotesingle" unicode="&#x2019;" horiz-adv-x="393" 
d="M290 1310q0 -17 -1 -32q-6 -166 -1 -216q3 -32 -34 -43q-13 -4 -31 -4q-55 0 -73 33q-15 27 -30.5 107.5t-17.5 136.5q-1 42 23 68q21 22 62 22q55 0 85 -32q18 -18 18 -40z" />
    <glyph glyph-name="quotesingle" unicode="&#x2018;" horiz-adv-x="393" 
d="M290 1310q0 -17 -1 -32q-6 -166 -1 -216q3 -32 -34 -43q-13 -4 -31 -4q-55 0 -73 33q-15 27 -30.5 107.5t-17.5 136.5q-1 42 23 68q21 22 62 22q55 0 85 -32q18 -18 18 -40z" />
    <glyph glyph-name="parenleft" unicode="(" horiz-adv-x="733" 
d="M590 -136q20 -2 29 -13t8 -24q-2 -16 -17 -28t-40 -12h-6q-218 14 -340 222q-122 204 -122 548q0 371 124 616q58 116 134.5 178t161.5 62q51 0 78.5 -14t30.5 -32q5 -26 -27 -38q-115 -43 -203.5 -274.5t-88.5 -552.5q0 -292 83.5 -459t194.5 -179z" />
    <glyph glyph-name="parenright" unicode=")" horiz-adv-x="733" 
d="M498 1194q133 -240 133 -633q0 -372 -140 -580q-63 -94 -149.5 -144t-186.5 -50q-20 0 -33 12t-14 28q-1 13 7.5 24t27.5 13q80 8 144 94t100 232t36 324q0 293 -93 543q-40 109 -89 179t-96 87q-21 7 -32.5 20t-9.5 27q3 17 28.5 30t74.5 13q82 0 158 -57.5t134 -161.5z
" />
    <glyph glyph-name="asterisk" unicode="*" horiz-adv-x="630" 
d="M529 1202q0 -32 -65 -51q-1 -1 -3 -1t-3 -1q17 -26 41 -53q12 -13 4 -29q-4 -10 -15.5 -17.5t-22.5 -7.5q-27 0 -60.5 28t-60.5 67h-18q-32 -59 -56 -77q-31 -20 -76.5 -9t-68.5 38q-22 27 -1 47q18 17 34 38q-33 17 -47 40q-12 21 -8 46t19 40q16 16 34 5l67 -29
q19 33 38 72q17 36 54 36q33 0 54 -14t25 -32t6 -26q7 -29 15 -61q36 2 59 7q18 5 32 -6q23 -18 23 -50z" />
    <glyph glyph-name="plus" unicode="+" horiz-adv-x="679" 
d="M551 661q14 -4 20.5 -18.5t4.5 -29.5q-3 -24 -22 -24q-12 0 -116 -2q-4 -98 -1 -161q3 -77 -53 -97q-11 -4 -26 -4q-36 0 -55 26q-16 22 -32.5 89t-24.5 144q-57 -1 -108 -1q-16 0 -25.5 11.5t-10.5 26.5q-1 17 9 30.5t29 15.5l100 2v18q0 78 10 140q4 25 28.5 40.5
t61.5 15.5q67 0 96 -32q18 -19 16 -46l-1 -16q-4 -49 -9 -121q92 -2 109 -7z" />
    <glyph glyph-name="comma" unicode="," horiz-adv-x="380" 
d="M278 -14q5 -66 -35.5 -135.5t-71.5 -76.5q-3 -1 -10 -1q-21 0 -34 12q-15 12 -13 32q1 9 23 33q31 36 34 52q-29 7 -49 29.5t-20 53.5q0 34 26 60t61 26q36 0 62.5 -25t26.5 -59v-1z" />
    <glyph glyph-name="hyphen" unicode="-" horiz-adv-x="647" 
d="M516 659q16 -6 23 -20.5t5 -29.5q-5 -26 -29 -26q-10 0 -189.5 2t-188.5 3q-16 1 -25.5 12.5t-9.5 26.5t9 27t26 13q34 2 135 2q214 0 244 -10z" />
    <glyph glyph-name="period" unicode="." horiz-adv-x="376" 
d="M189 66q39 0 62.5 -25.5t23.5 -58.5q0 -34 -23.5 -60t-63.5 -26q-36 0 -61 25t-25 61t25 60t62 24z" />
    <glyph glyph-name="slash" unicode="/" horiz-adv-x="1048" 
d="M938 1288q15 -26 4 -41q-138 -214 -357 -620.5t-344 -666.5q-21 -45 -68 -45q-13 0 -26 5q-23 8 -36 28t-7 46q19 76 154.5 375t289.5 600.5t212 368.5q20 23 54 23q38 0 73.5 -22t50.5 -51z" />
    <glyph glyph-name="zero" unicode="0" horiz-adv-x="1046" 
d="M522 1449q199 0 311 -154.5t112 -428.5q0 -171 -33.5 -330t-89.5 -275t-133 -185t-160 -69q-82 0 -156.5 42.5t-136 125.5t-98 221t-36.5 313q0 137 28.5 278t78 239t104.5 105q20 45 72.5 81.5t136.5 36.5zM554 92q41 0 92.5 64t96 165.5t75 243t30.5 279.5
q0 229 -89 377.5t-226 148.5q-77 0 -119 -53q18 -7 24 -20q9 -16 -4 -37q-46 -71 -86 -232t-40 -360q0 -255 86 -427q34 -69 77.5 -109t82.5 -40z" />
    <glyph glyph-name="one" unicode="1" horiz-adv-x="458" 
d="M234 1441q68 0 100 -32q23 -25 22 -62q-1 -18 -13 -107q-53 -400 -53 -653q0 -365 24 -541q3 -23 -27 -38q-16 -7 -31 -7q-25 0 -40 17q-48 53 -81 275.5t-33 491.5q0 132 15 335.5t26 260.5q12 60 91 60z" />
    <glyph glyph-name="two" unicode="2" horiz-adv-x="1040" 
d="M939 1082q0 -56 -16.5 -115.5t-39 -110.5t-65.5 -114.5t-76.5 -107t-93.5 -109.5t-95 -102t-100 -103q-117 -119 -178 -188l49 7q163 23 265 23q150 0 248 -31t98 -79q0 -26 -18 -36q-17 -8 -32 4q-21 16 -98 30.5t-156 14.5q-169 0 -458 -57q-5 -1 -16 -1q-36 0 -49 28
q-13 27 2 50q7 35 45 93t70.5 98.5t109.5 133.5q61 73 96 116.5t91 116.5t89.5 128.5t68 123t51 130t16.5 120.5q0 103 -36.5 151.5t-114.5 48.5t-151 -44.5t-120.5 -109.5t-76 -136.5t-28.5 -127.5q0 -6 2 -18q4 -36 -6 -47q-7 -9 -25 -9q-28 0 -45 33t-17 88
q0 85 34.5 170t97.5 155q136 150 314 150q158 0 261 -103.5t103 -263.5z" />
    <glyph glyph-name="three" unicode="3" horiz-adv-x="968" 
d="M598 647q90 -38 141 -116.5t51 -180.5q0 -106 -56 -193t-141 -132.5t-177 -45.5q-107 0 -181.5 62t-87.5 163q-3 28 13 40q19 13 39 2q23 -11 25 -38q2 -40 46 -87t84 -47q97 0 185.5 105t88.5 239q0 148 -115 148q-21 0 -56 -5q-69 -8 -86 -3q-24 3 -42 16t-25 30
q-16 40 31 67q56 32 114 84.5t110.5 118t85.5 145.5t33 156q0 79 -38 120.5t-112 41.5q-51 0 -108.5 -28.5t-106.5 -78.5q-114 -117 -114 -263q0 -35 7 -61q4 -12 4 -18q0 -29 -33 -29q-32 0 -53.5 46.5t-21.5 117.5q0 78 35 155.5t99 141.5q60 59 130.5 92.5t135.5 33.5
q89 0 172 -46t137.5 -134t54.5 -196q0 -121 -76.5 -233t-191.5 -190z" />
    <glyph glyph-name="four" unicode="4" horiz-adv-x="980" 
d="M754 1452q72 0 104 -35q23 -24 20 -60q0 -9 -12 -105q-54 -406 -54 -675q0 -285 23 -518q3 -27 -24 -38q-13 -6 -29 -6q-32 0 -46 16q-42 48 -69.5 218t-36.5 378q-69 -11 -219 -25t-204 -14q-105 0 -105 58q0 15 33 96q36 92 58.5 153.5t54.5 188t42 238.5q2 24 17.5 38
t40.5 14q74 0 74 -85q0 -133 -59 -316t-133 -307q27 0 186.5 12t211.5 18q-2 66 -2 96q0 164 15 353t25 245q6 32 27 47t61 15z" />
    <glyph glyph-name="five" unicode="5" horiz-adv-x="1038" 
d="M561 993q168 0 272 -121q103 -121 103 -313q0 -233 -146 -396q-73 -80 -170.5 -123.5t-206.5 -43.5q-115 0 -205.5 57t-90.5 112q0 24 14 38q13 11 30 11t30 -9.5t13 -24.5q0 -26 72 -63.5t137 -37.5q64 0 126.5 34t113 94t81.5 151.5t31 198.5q0 169 -61 258.5
t-146 89.5q-77 0 -162.5 -50t-122.5 -110q-6 -31 -12 -46q-14 -38 -62 -41h-6q-48 0 -66 35q-25 52 -25 244q0 256 43 428q12 46 55 49h3h4h2h7h1l1 -1q22 -1 64 -8q119 -19 182 -19q181 0 274 62q19 12 25 12q16 0 26.5 -12.5t10.5 -30.5q0 -21 -19.5 -40t-59 -35.5
t-111 -26.5t-165.5 -10q-78 0 -121 7q0 -1 -11 -95q-26 -203 -30 -322q49 43 127 70.5t151 27.5z" />
    <glyph glyph-name="six" unicode="6" horiz-adv-x="968" 
d="M777 870q-12 13 -7 69q4 38 4 71q0 65 -8 126t-24.5 114t-46 85t-68.5 32q-49 0 -104.5 -66t-100.5 -171t-75 -248t-30 -283q0 -27 2 -75q80 110 251 110q131 0 199.5 -68.5t68.5 -200.5q0 -140 -79 -252q-85 -120 -208 -120q-92 0 -174.5 52t-144.5 150
q-130 204 -130 498q0 145 31.5 284t89.5 248q64 119 150 183t183 64q163 0 236.5 -90.5t73.5 -292.5q0 -229 -62 -229q-17 0 -27 10zM748 357q0 95 -45 147.5t-127 52.5q-155 0 -238 -183q22 -102 63 -175q34 -61 77 -95t85 -34q44 0 87.5 42t70.5 109.5t27 135.5z" />
    <glyph glyph-name="seven" unicode="7" horiz-adv-x="1064" 
d="M959 1329l-7 -11q-129 -203 -254.5 -406.5t-278.5 -477.5t-201 -408q-12 -35 -55 -35q-5 0 -15 2q-20 4 -33 18t-12 37q11 163 262 676q190 387 324 598q-108 -28 -282 -28q-61 0 -107.5 3.5t-94.5 13t-74 30.5t-26 52q0 13 7.5 23.5t22.5 10.5q4 0 22 -8q79 -38 238 -38
q100 0 211.5 13.5t175.5 31.5q15 5 33 5q47 0 88 -20.5t55 -46.5q10 -19 1 -35z" />
    <glyph glyph-name="eight" unicode="8" horiz-adv-x="1028" 
d="M792 654q134 -101 134 -243q0 -97 -35.5 -176.5t-94 -129t-131 -76t-150.5 -26.5q-166 0 -286 107q-127 113 -127 289q0 105 38 206t93.5 161t107.5 60h3q-83 96 -83 233q0 91 28 169.5t73 129.5t101 80t113 29q139 0 222.5 -114.5t83.5 -305.5q0 -188 -90 -393zM540 93
q45 0 91.5 19t88.5 55.5t68.5 99t26.5 139.5q0 85 -71 151q-20 -37 -24 -41q-11 -17 -33 -20.5t-38 5.5q-27 14 -19 38q1 4 6 17t8 21q7 16 15 41q-19 12 -83 46q-80 44 -111 63q-1 -2 -4.5 -5.5t-4.5 -5.5q-24 -33 -39.5 -58t-40 -74.5t-37.5 -109t-13 -125.5
q0 -118 64.5 -187t149.5 -69zM693 717q62 194 62 335q0 143 -51 238t-114 95q-73 0 -139 -89t-66 -237q0 -65 41 -143t99 -110q12 -6 25.5 -13t30 -15.5t25.5 -13.5q29 -15 87 -47z" />
    <glyph glyph-name="nine" unicode="9" horiz-adv-x="1069" 
d="M888 1357q21 -42 50 -231.5t29 -297.5q0 -424 -175 -641q-65 -82 -152 -126.5t-179 -44.5q-116 0 -195 70.5t-79 135.5q0 32 33 38q35 6 44 -19q21 -55 75 -97.5t117 -42.5q35 0 73 19t77.5 63t70 107.5t50 163t19.5 218.5q0 163 -28 398l-5 -13q-21 -58 -32.5 -89
t-35 -87.5t-41.5 -90t-46 -76t-54.5 -66t-61 -40t-70.5 -16.5q-119 0 -196 120q-74 114 -74 279q0 85 22.5 164t66.5 145t116.5 106t163.5 40q113 0 205 -63q2 10 7 15q20 22 70 22q45 0 83.5 -17.5t51.5 -45.5zM386 683q76 44 151.5 199.5t130.5 380.5v1q-19 19 -55 41
q-39 24 -69 24q-53 0 -105 -60t-84 -156t-32 -196q0 -74 18.5 -141t42.5 -94q1 0 2 1z" />
    <glyph glyph-name="colon" unicode=":" horiz-adv-x="376" 
d="M189 447q39 0 62.5 -25.5t23.5 -59.5t-23.5 -60t-63.5 -26q-36 0 -60.5 25t-24.5 61t24.5 60.5t61.5 24.5zM188 749q-36 0 -61 25t-25 61t25 60.5t62 24.5q39 0 62.5 -25.5t23.5 -59.5t-23.5 -60t-63.5 -26z" />
    <glyph glyph-name="semicolon" unicode=";" horiz-adv-x="378" 
d="M275 370q8 -62 -24.5 -129t-79.5 -86q-7 -3 -17 -3q-14 0 -26 12q-19 19 -11 38q5 12 21 29q30 35 33 52q-29 6 -48.5 30t-19.5 55q0 36 24.5 60t61.5 24q38 0 61.5 -24.5t24.5 -57.5zM188 754q-36 0 -61 25t-25 61t25 60.5t62 24.5q39 0 62.5 -25.5t23.5 -59.5
t-23.5 -60t-63.5 -26z" />
    <glyph glyph-name="less" unicode="&#x3c;" horiz-adv-x="688" 
d="M575 882q14 -33 11 -68.5t-22 -43.5q-2 -1 -7.5 -3t-15 -5.5t-18.5 -6.5q-217 -83 -233 -91q2 -1 8.5 -4t11.5 -5q200 -86 220 -101q38 -28 18 -63q-9 -15 -24 -15q-6 0 -12 3q-25 13 -334 120q-35 12 -55.5 39t-20.5 64q0 39 47 70q62 41 172.5 93t171.5 73q9 3 19 3
q41 0 63 -59z" />
    <glyph glyph-name="equal" unicode="=" horiz-adv-x="745" 
d="M608 527q15 -1 24.5 -14.5t10.5 -29.5q1 -14 -6 -23.5t-18 -11.5q-12 -2 -228 -13t-233 -11q-19 0 -31.5 15.5t-13.5 36.5q-1 17 8.5 31.5t29.5 15.5q53 5 419 5h18t14 -0.5t6 -0.5zM144 704q-16 0 -27.5 13.5t-13.5 30.5q-3 19 4.5 35t25.5 21q23 6 150.5 12.5
t224.5 6.5q72 0 92 -5q15 -4 24 -19.5t8 -32.5q-2 -30 -27 -33q-45 -7 -404 -26q-35 -2 -55 -3h-2z" />
    <glyph glyph-name="greater" unicode="&#x3e;" horiz-adv-x="688" 
d="M539 764q46 -31 46 -70q0 -76 -75 -102q-306 -106 -331 -119q-6 -3 -12 -3q-19 0 -28 16q-9 11 -4.5 29.5t23.5 31.5q22 16 222 101l18 8q-18 10 -232 91q-33 12 -41 16q-20 8 -22.5 43.5t10.5 68.5q13 35 34.5 50t47.5 6q60 -21 171 -73.5t173 -93.5z" />
    <glyph glyph-name="question" unicode="?" horiz-adv-x="970" 
d="M481 74q33 0 59.5 -24t26.5 -62q0 -36 -25 -60.5t-61 -24.5t-61 25t-25 60t25.5 60.5t60.5 25.5zM498 1393q155 0 262 -102.5t107 -251.5q0 -64 -25.5 -144.5t-51 -133t-79.5 -154.5q-45 -86 -68.5 -132t-52 -119.5t-38.5 -133.5q-16 -87 -70 -87q-68 0 -68 91
q0 67 24 155.5t47 147t70 166.5q42 97 63.5 151.5t42 128.5t20.5 128q0 99 -50.5 152t-117.5 53q-52 0 -109 -29t-107 -80q-106 -108 -106 -220q0 -6 4 -16t4 -15q0 -13 -11.5 -23t-26.5 -10q-29 0 -44 24.5t-15 57.5q0 102 62 195.5t153.5 147t180.5 53.5z" />
    <glyph glyph-name="at" unicode="@" horiz-adv-x="1142" 
d="M903 1034q137 -143 137 -348q0 -147 -64 -251t-155 -104q-160 0 -211 212q-57 -102 -121 -102q-65 0 -108.5 60t-43.5 149q0 72 19.5 127t52.5 85.5t70 45.5t77 15q62 0 98 -26q9 4 24 4q57 0 84 -34q11 -14 8 -32q-17 -77 -17 -195q0 -72 22.5 -142.5t50.5 -86.5h2
q38 12 78 98.5t40 169.5q0 92 -44 186t-122.5 157.5t-167.5 63.5q-167 0 -278.5 -121t-111.5 -302q0 -77 17.5 -147.5t53 -133t99 -100t147.5 -37.5q9 0 30 3q8 2 9 2q29 0 31 -28q1 -16 -12 -29t-39 -16t-50 -3q-147 0 -254 95q-74 66 -113 166.5t-39 222.5q0 223 131 368
q134 148 354 148q86 0 169 -36.5t147 -103.5zM591 719q0 3 -0.5 10t-0.5 11q0 43 7 72q-41 -36 -65 -115t-24 -158l1 -1q10 8 41 75t41 106z" />
    <glyph glyph-name="A" unicode="A" horiz-adv-x="1482" 
d="M1358 732q13 -5 18.5 -18.5t2.5 -28.5q-2 -12 -9 -19t-16 -6q-72 6 -212 9q21 -287 16 -571q-1 -37 -26 -62.5t-58 -29.5q-2 0 -5 -0.5t-5 -0.5q-25 0 -46.5 16.5t-30.5 50.5q-12 45 -51 447q-7 65 -15 152q-255 0 -440 -5q-52 -263 -90 -601q-1 -13 -13 -20t-28 -6
t-27.5 10t-10.5 25q9 249 70 589q-130 -5 -238 -12h-3q-16 0 -26 11t-12 27q-2 18 6.5 32.5t26.5 18.5l263 17q22 110 50 222q29 117 62.5 216t77.5 194t98.5 149.5t113.5 54.5q97 0 152 -72q129 -171 182 -767q187 -8 223 -22zM500 759l220 2q130 0 192 -1
q-66 642 -111 728q-2 0 -3 -1q-175 -161 -298 -728z" />
    <glyph glyph-name="A" unicode="&#xc5;" horiz-adv-x="1482" 
d="M1358 732q13 -5 18.5 -18.5t2.5 -28.5q-2 -12 -9 -19t-16 -6q-72 6 -212 9q21 -287 16 -571q-1 -37 -26 -62.5t-58 -29.5q-2 0 -5 -0.5t-5 -0.5q-25 0 -46.5 16.5t-30.5 50.5q-12 45 -51 447q-7 65 -15 152q-255 0 -440 -5q-52 -263 -90 -601q-1 -13 -13 -20t-28 -6
t-27.5 10t-10.5 25q9 249 70 589q-130 -5 -238 -12h-3q-16 0 -26 11t-12 27q-2 18 6.5 32.5t26.5 18.5l263 17q22 110 50 222q29 117 62.5 216t77.5 194t98.5 149.5t113.5 54.5q97 0 152 -72q129 -171 182 -767q187 -8 223 -22zM500 759l220 2q130 0 192 -1
q-66 642 -111 728q-2 0 -3 -1q-175 -161 -298 -728z" />
    <glyph glyph-name="A" unicode="&#xc4;" horiz-adv-x="1482" 
d="M1358 732q13 -5 18.5 -18.5t2.5 -28.5q-2 -12 -9 -19t-16 -6q-72 6 -212 9q21 -287 16 -571q-1 -37 -26 -62.5t-58 -29.5q-2 0 -5 -0.5t-5 -0.5q-25 0 -46.5 16.5t-30.5 50.5q-12 45 -51 447q-7 65 -15 152q-255 0 -440 -5q-52 -263 -90 -601q-1 -13 -13 -20t-28 -6
t-27.5 10t-10.5 25q9 249 70 589q-130 -5 -238 -12h-3q-16 0 -26 11t-12 27q-2 18 6.5 32.5t26.5 18.5l263 17q22 110 50 222q29 117 62.5 216t77.5 194t98.5 149.5t113.5 54.5q97 0 152 -72q129 -171 182 -767q187 -8 223 -22zM500 759l220 2q130 0 192 -1
q-66 642 -111 728q-2 0 -3 -1q-175 -161 -298 -728z" />
    <glyph glyph-name="A" unicode="&#xc3;" horiz-adv-x="1482" 
d="M1358 732q13 -5 18.5 -18.5t2.5 -28.5q-2 -12 -9 -19t-16 -6q-72 6 -212 9q21 -287 16 -571q-1 -37 -26 -62.5t-58 -29.5q-2 0 -5 -0.5t-5 -0.5q-25 0 -46.5 16.5t-30.5 50.5q-12 45 -51 447q-7 65 -15 152q-255 0 -440 -5q-52 -263 -90 -601q-1 -13 -13 -20t-28 -6
t-27.5 10t-10.5 25q9 249 70 589q-130 -5 -238 -12h-3q-16 0 -26 11t-12 27q-2 18 6.5 32.5t26.5 18.5l263 17q22 110 50 222q29 117 62.5 216t77.5 194t98.5 149.5t113.5 54.5q97 0 152 -72q129 -171 182 -767q187 -8 223 -22zM500 759l220 2q130 0 192 -1
q-66 642 -111 728q-2 0 -3 -1q-175 -161 -298 -728z" />
    <glyph glyph-name="A" unicode="&#xc2;" horiz-adv-x="1482" 
d="M1358 732q13 -5 18.5 -18.5t2.5 -28.5q-2 -12 -9 -19t-16 -6q-72 6 -212 9q21 -287 16 -571q-1 -37 -26 -62.5t-58 -29.5q-2 0 -5 -0.5t-5 -0.5q-25 0 -46.5 16.5t-30.5 50.5q-12 45 -51 447q-7 65 -15 152q-255 0 -440 -5q-52 -263 -90 -601q-1 -13 -13 -20t-28 -6
t-27.5 10t-10.5 25q9 249 70 589q-130 -5 -238 -12h-3q-16 0 -26 11t-12 27q-2 18 6.5 32.5t26.5 18.5l263 17q22 110 50 222q29 117 62.5 216t77.5 194t98.5 149.5t113.5 54.5q97 0 152 -72q129 -171 182 -767q187 -8 223 -22zM500 759l220 2q130 0 192 -1
q-66 642 -111 728q-2 0 -3 -1q-175 -161 -298 -728z" />
    <glyph glyph-name="A" unicode="&#xc1;" horiz-adv-x="1482" 
d="M1358 732q13 -5 18.5 -18.5t2.5 -28.5q-2 -12 -9 -19t-16 -6q-72 6 -212 9q21 -287 16 -571q-1 -37 -26 -62.5t-58 -29.5q-2 0 -5 -0.5t-5 -0.5q-25 0 -46.5 16.5t-30.5 50.5q-12 45 -51 447q-7 65 -15 152q-255 0 -440 -5q-52 -263 -90 -601q-1 -13 -13 -20t-28 -6
t-27.5 10t-10.5 25q9 249 70 589q-130 -5 -238 -12h-3q-16 0 -26 11t-12 27q-2 18 6.5 32.5t26.5 18.5l263 17q22 110 50 222q29 117 62.5 216t77.5 194t98.5 149.5t113.5 54.5q97 0 152 -72q129 -171 182 -767q187 -8 223 -22zM500 759l220 2q130 0 192 -1
q-66 642 -111 728q-2 0 -3 -1q-175 -161 -298 -728z" />
    <glyph glyph-name="A" unicode="&#xc0;" horiz-adv-x="1482" 
d="M1358 732q13 -5 18.5 -18.5t2.5 -28.5q-2 -12 -9 -19t-16 -6q-72 6 -212 9q21 -287 16 -571q-1 -37 -26 -62.5t-58 -29.5q-2 0 -5 -0.5t-5 -0.5q-25 0 -46.5 16.5t-30.5 50.5q-12 45 -51 447q-7 65 -15 152q-255 0 -440 -5q-52 -263 -90 -601q-1 -13 -13 -20t-28 -6
t-27.5 10t-10.5 25q9 249 70 589q-130 -5 -238 -12h-3q-16 0 -26 11t-12 27q-2 18 6.5 32.5t26.5 18.5l263 17q22 110 50 222q29 117 62.5 216t77.5 194t98.5 149.5t113.5 54.5q97 0 152 -72q129 -171 182 -767q187 -8 223 -22zM500 759l220 2q130 0 192 -1
q-66 642 -111 728q-2 0 -3 -1q-175 -161 -298 -728z" />
    <glyph glyph-name="B" unicode="B" horiz-adv-x="1183" 
d="M796 927q115 -29 200 -133.5t85 -258.5q0 -112 -59.5 -214.5t-169.5 -181.5q-92 -66 -201.5 -104t-207.5 -38q-158 0 -249.5 70t-91.5 191q0 139 98 268q-37 240 -37 466q0 128 16 311t27 249q11 67 85 67q80 0 118 -43q23 -26 18 -60q-3 -26 -12 -75q-56 -325 -61 -543
q56 291 159 484q130 241 294 241q96 0 167.5 -72.5t71.5 -199.5q0 -122 -72.5 -235t-177.5 -189zM204 260q0 -162 170 -162q80 0 174.5 39.5t173.5 105.5q93 78 143 178t50 208q0 107 -51 157q-66 64 -257 60q-1 0 -4 -0.5t-5 -0.5q-18 0 -32.5 11t-19.5 28q-8 34 29 53
q129 67 220 207.5t91 270.5q0 61 -13.5 87t-44.5 26q-69 0 -140 -73q-98 -101 -172 -305t-105 -451q114 56 236 56q34 0 55 -13.5t21 -35.5q0 -11 -9 -20t-21 -9q-9 0 -16 3q-10 4 -17 4q-134 0 -260 -90q-11 -137 -7 -257q3 -34 0 -54q-3 -23 -19 -35.5t-37 -15.5
q-2 0 -5.5 -0.5t-5.5 -0.5q-49 0 -65 38t-33 111q-24 -62 -24 -120z" />
    <glyph glyph-name="C" unicode="C" horiz-adv-x="1132" 
d="M1188 745q30 -8 22 -38q-14 -53 -30.5 -106.5t-45.5 -126t-62.5 -135.5t-81.5 -127t-101.5 -109.5t-123.5 -74t-147 -28.5q-97 0 -187.5 43.5t-158.5 123.5q-170 198 -170 555q0 353 141 602q71 126 166 193.5t201 67.5q144 0 228 -84t84 -229q0 -85 -14 -116
q-11 -24 -39 -24q-8 0 -12 1q-27 7 -25 29q8 77 -14.5 159t-63.5 128q-33 36 -69 36q-55 0 -118 -65.5t-114 -169t-85 -244t-34 -279.5q0 -281 106 -474q44 -81 99 -127t107 -46q129 0 258 168.5t227 466.5q6 19 23 27t34 3z" />
    <glyph glyph-name="C" unicode="&#xc7;" horiz-adv-x="1132" 
d="M1188 745q30 -8 22 -38q-14 -53 -30.5 -106.5t-45.5 -126t-62.5 -135.5t-81.5 -127t-101.5 -109.5t-123.5 -74t-147 -28.5q-97 0 -187.5 43.5t-158.5 123.5q-170 198 -170 555q0 353 141 602q71 126 166 193.5t201 67.5q144 0 228 -84t84 -229q0 -85 -14 -116
q-11 -24 -39 -24q-8 0 -12 1q-27 7 -25 29q8 77 -14.5 159t-63.5 128q-33 36 -69 36q-55 0 -118 -65.5t-114 -169t-85 -244t-34 -279.5q0 -281 106 -474q44 -81 99 -127t107 -46q129 0 258 168.5t227 466.5q6 19 23 27t34 3z" />
    <glyph glyph-name="D" unicode="D" horiz-adv-x="1380" 
d="M823 1591q94 0 178.5 -51.5t149.5 -147.5q61 -90 94 -206t33 -237q0 -179 -67.5 -355t-189.5 -317q-124 -144 -283.5 -223t-325.5 -79q-141 0 -225.5 73.5t-84.5 196.5q0 135 110 280q-34 225 -34 445q0 151 15.5 323.5t27.5 235.5q7 35 27 51t59 16q63 0 99 -24.5
t37 -68.5q0 -18 -17 -123q-43 -264 -54 -419q52 270 161 437q126 193 290 193zM201 250q0 -77 47 -133t135 -56q157 0 291.5 83t222.5 217t137.5 300t49.5 337q0 214 -72 356q-34 68 -78.5 104.5t-92.5 36.5q-91 0 -172.5 -89t-142.5 -256q-70 -192 -102 -442q83 43 156 43
q65 0 134.5 -27.5t73.5 -63.5q1 -16 -8 -27q-9 -10 -25 -10q-27 0 -39 25q-3 7 -47.5 19.5t-72.5 12.5q-84 0 -183 -73q-13 -145 -13 -275q1 -14 4 -37t4 -31q3 -38 -47 -51q-12 -3 -24 -3q-44 0 -59 32q-24 57 -43 150q-34 -74 -34 -142z" />
    <glyph glyph-name="E" unicode="E" horiz-adv-x="1081" 
d="M1023 223q15 -10 15 -23q0 -29 -56 -70.5t-138.5 -72t-148.5 -30.5q-202 0 -326 180q-128 187 -145 545q-44 -4 -84 -6h-1q-30 0 -36 32q-2 16 5 30.5t24 19.5l90 14v17q0 146 13 357t24 280q-15 -2 -45 -5.5t-45 -4.5h-5q-18 0 -31.5 13.5t-15.5 31.5q-3 16 5 29.5
t27 16.5q132 25 445 35.5t384 -4.5q19 -4 29.5 -20t8.5 -34q-4 -30 -36 -30q-314 0 -510 -12q10 -12 12 -28q3 -24 -14 -207q-26 -289 -31 -416l243 10q48 0 64 -3q16 -4 26 -18t9 -29q-2 -29 -30 -32q-28 -4 -120 -6q-133 -5 -194 -10v-6q0 -348 69 -499
q35 -76 94.5 -120.5t110.5 -44.5q90 0 237 102q35 22 36 23q18 9 41 -5z" />
    <glyph glyph-name="E" unicode="&#xcb;" horiz-adv-x="1081" 
d="M1023 223q15 -10 15 -23q0 -29 -56 -70.5t-138.5 -72t-148.5 -30.5q-202 0 -326 180q-128 187 -145 545q-44 -4 -84 -6h-1q-30 0 -36 32q-2 16 5 30.5t24 19.5l90 14v17q0 146 13 357t24 280q-15 -2 -45 -5.5t-45 -4.5h-5q-18 0 -31.5 13.5t-15.5 31.5q-3 16 5 29.5
t27 16.5q132 25 445 35.5t384 -4.5q19 -4 29.5 -20t8.5 -34q-4 -30 -36 -30q-314 0 -510 -12q10 -12 12 -28q3 -24 -14 -207q-26 -289 -31 -416l243 10q48 0 64 -3q16 -4 26 -18t9 -29q-2 -29 -30 -32q-28 -4 -120 -6q-133 -5 -194 -10v-6q0 -348 69 -499
q35 -76 94.5 -120.5t110.5 -44.5q90 0 237 102q35 22 36 23q18 9 41 -5z" />
    <glyph glyph-name="E" unicode="&#xca;" horiz-adv-x="1081" 
d="M1023 223q15 -10 15 -23q0 -29 -56 -70.5t-138.5 -72t-148.5 -30.5q-202 0 -326 180q-128 187 -145 545q-44 -4 -84 -6h-1q-30 0 -36 32q-2 16 5 30.5t24 19.5l90 14v17q0 146 13 357t24 280q-15 -2 -45 -5.5t-45 -4.5h-5q-18 0 -31.5 13.5t-15.5 31.5q-3 16 5 29.5
t27 16.5q132 25 445 35.5t384 -4.5q19 -4 29.5 -20t8.5 -34q-4 -30 -36 -30q-314 0 -510 -12q10 -12 12 -28q3 -24 -14 -207q-26 -289 -31 -416l243 10q48 0 64 -3q16 -4 26 -18t9 -29q-2 -29 -30 -32q-28 -4 -120 -6q-133 -5 -194 -10v-6q0 -348 69 -499
q35 -76 94.5 -120.5t110.5 -44.5q90 0 237 102q35 22 36 23q18 9 41 -5z" />
    <glyph glyph-name="E" unicode="&#xc9;" horiz-adv-x="1081" 
d="M1023 223q15 -10 15 -23q0 -29 -56 -70.5t-138.5 -72t-148.5 -30.5q-202 0 -326 180q-128 187 -145 545q-44 -4 -84 -6h-1q-30 0 -36 32q-2 16 5 30.5t24 19.5l90 14v17q0 146 13 357t24 280q-15 -2 -45 -5.5t-45 -4.5h-5q-18 0 -31.5 13.5t-15.5 31.5q-3 16 5 29.5
t27 16.5q132 25 445 35.5t384 -4.5q19 -4 29.5 -20t8.5 -34q-4 -30 -36 -30q-314 0 -510 -12q10 -12 12 -28q3 -24 -14 -207q-26 -289 -31 -416l243 10q48 0 64 -3q16 -4 26 -18t9 -29q-2 -29 -30 -32q-28 -4 -120 -6q-133 -5 -194 -10v-6q0 -348 69 -499
q35 -76 94.5 -120.5t110.5 -44.5q90 0 237 102q35 22 36 23q18 9 41 -5z" />
    <glyph glyph-name="E" unicode="&#xc8;" horiz-adv-x="1081" 
d="M1023 223q15 -10 15 -23q0 -29 -56 -70.5t-138.5 -72t-148.5 -30.5q-202 0 -326 180q-128 187 -145 545q-44 -4 -84 -6h-1q-30 0 -36 32q-2 16 5 30.5t24 19.5l90 14v17q0 146 13 357t24 280q-15 -2 -45 -5.5t-45 -4.5h-5q-18 0 -31.5 13.5t-15.5 31.5q-3 16 5 29.5
t27 16.5q132 25 445 35.5t384 -4.5q19 -4 29.5 -20t8.5 -34q-4 -30 -36 -30q-314 0 -510 -12q10 -12 12 -28q3 -24 -14 -207q-26 -289 -31 -416l243 10q48 0 64 -3q16 -4 26 -18t9 -29q-2 -29 -30 -32q-28 -4 -120 -6q-133 -5 -194 -10v-6q0 -348 69 -499
q35 -76 94.5 -120.5t110.5 -44.5q90 0 237 102q35 22 36 23q18 9 41 -5z" />
    <glyph glyph-name="F" unicode="F" horiz-adv-x="794" 
d="M688 898q14 -1 22 -11.5t9 -24.5q1 -13 -6 -23.5t-20 -12.5q-31 -5 -182 -9q-124 -4 -154 -7q-2 -74 -2 -112q0 -239 31 -544q6 -55 8 -103q1 -19 -13 -33t-34 -20q-11 -3 -23 -3q-36 0 -50 26q-41 74 -82 324t-41 505q0 190 16 395.5t35 266.5h-47h-16q-16 1 -26 12.5
t-11 26.5q-1 14 7.5 25.5t24.5 12.5q86 9 385.5 15.5t399.5 -2.5q21 -2 32.5 -16.5t11.5 -32.5q0 -1 -0.5 -2.5t-0.5 -2.5q-2 -15 -11.5 -24.5t-27.5 -8.5q-125 10 -497 2q3 -12 0 -27q-13 -63 -35 -235.5t-31 -363.5q38 2 172.5 5t155.5 2z" />
    <glyph glyph-name="G" unicode="G" horiz-adv-x="1214" 
d="M1068 176q60 -9 98 -30.5t38 -54.5q0 -14 -10 -25t-24 -11q-25 0 -41 30l-1 3q-5 8 -68 14q-31 -217 -115.5 -330.5t-216.5 -113.5q-150 0 -150 168q0 151 127 255q73 59 164 83q3 45 3 95q0 135 -15 273q-65 -208 -159 -315.5t-210 -107.5q-162 0 -266 132
q-120 151 -120 429q0 177 45 349t126 307q84 139 189 213.5t218 74.5q275 0 275 -335q0 -71 -10 -126.5t-23 -73.5q-9 -13 -24 -16t-27 4q-28 14 -21 36q17 62 17 134q0 117 -34.5 198t-84.5 81q-66 0 -141 -70t-139 -190q-150 -283 -150 -651q0 -174 53.5 -293.5
t131.5 -119.5q81 0 167.5 139.5t153.5 380.5q-3 18 7 31q15 19 54 19q41 0 82.5 -21.5t57.5 -55.5q23 -50 37.5 -138.5t14.5 -174.5q0 -106 -9 -196zM709 -256q2 1 3 1q44 12 87.5 100t61.5 235q-78 -34 -129 -100t-51 -139q0 -31 7 -61t21 -36z" />
    <glyph glyph-name="H" unicode="H" horiz-adv-x="1296" 
d="M1165 762q16 -4 23.5 -16.5t5.5 -27.5q-5 -28 -28 -28h-2l-2 1q-47 5 -120 8v-21q0 -163 31 -496q11 -112 10 -123q-1 -20 -17.5 -34.5t-37.5 -19.5q-12 -2 -18 -2q-33 0 -47 25q-36 68 -72.5 259t-47.5 416q-172 2 -348 0q-1 -34 -1 -103q0 -166 30 -389q11 -79 10 -92
q-1 -16 -14.5 -28.5t-35.5 -17.5q-6 -1 -18 -1q-44 0 -59 32q-29 58 -62.5 240t-37.5 356q-129 -2 -171 -4q-14 -1 -22.5 8.5t-10.5 22.5q-2 14 5.5 27.5t24.5 16.5l174 12q1 378 42 608q7 36 26.5 51.5t59.5 15.5q79 0 118 -45q22 -25 17 -54l-5 -28q-55 -335 -66 -546
l25 1q149 0 316 -5q-1 29 -1 90q0 179 13.5 364.5t39.5 294.5q16 67 87 67q83 0 118 -43q22 -28 16 -60q-20 -103 -42.5 -314t-27.5 -406q84 -4 122 -12z" />
    <glyph glyph-name="I" unicode="I" horiz-adv-x="479" 
d="M243 1591q81 0 117 -45q23 -28 15 -67q-22 -99 -46 -361.5t-24 -465.5q0 -166 31 -479q11 -104 10 -123q-3 -43 -53 -53q-10 -2 -15 -2q-40 0 -53 26q-48 99 -85.5 340t-37.5 505q0 180 14.5 374.5t38.5 282.5q17 68 88 68z" />
    <glyph glyph-name="I" unicode="&#xcf;" horiz-adv-x="479" 
d="M243 1591q81 0 117 -45q23 -28 15 -67q-22 -99 -46 -361.5t-24 -465.5q0 -166 31 -479q11 -104 10 -123q-3 -43 -53 -53q-10 -2 -15 -2q-40 0 -53 26q-48 99 -85.5 340t-37.5 505q0 180 14.5 374.5t38.5 282.5q17 68 88 68z" />
    <glyph glyph-name="I" unicode="&#xce;" horiz-adv-x="479" 
d="M243 1591q81 0 117 -45q23 -28 15 -67q-22 -99 -46 -361.5t-24 -465.5q0 -166 31 -479q11 -104 10 -123q-3 -43 -53 -53q-10 -2 -15 -2q-40 0 -53 26q-48 99 -85.5 340t-37.5 505q0 180 14.5 374.5t38.5 282.5q17 68 88 68z" />
    <glyph glyph-name="I" unicode="&#xcd;" horiz-adv-x="479" 
d="M243 1591q81 0 117 -45q23 -28 15 -67q-22 -99 -46 -361.5t-24 -465.5q0 -166 31 -479q11 -104 10 -123q-3 -43 -53 -53q-10 -2 -15 -2q-40 0 -53 26q-48 99 -85.5 340t-37.5 505q0 180 14.5 374.5t38.5 282.5q17 68 88 68z" />
    <glyph glyph-name="I" unicode="&#xcc;" horiz-adv-x="479" 
d="M243 1591q81 0 117 -45q23 -28 15 -67q-22 -99 -46 -361.5t-24 -465.5q0 -166 31 -479q11 -104 10 -123q-3 -43 -53 -53q-10 -2 -15 -2q-40 0 -53 26q-48 99 -85.5 340t-37.5 505q0 180 14.5 374.5t38.5 282.5q17 68 88 68z" />
    <glyph glyph-name="J" unicode="J" horiz-adv-x="1165" 
d="M711 1602q73 0 138.5 -61t115.5 -174q98 -221 98 -503q0 -171 -33.5 -314.5t-89.5 -242t-131 -167.5t-156.5 -101t-166.5 -32q-156 0 -256.5 116.5t-126.5 327.5q-5 36 16 51q18 13 38 4q18 -8 20 -28q16 -165 105 -277q88 -113 200 -113q171 0 274 189q106 195 106 526
q0 152 -16.5 283.5t-43 218.5t-45.5 133t-37 78q-1 1 -4 1.5t-4 -0.5q-96 -53 -154.5 -222.5t-58.5 -323.5q0 -40 4 -88q1 -7 -5 -12.5t-17 -7.5q-17 -3 -32.5 3t-20.5 22q-13 39 -13 116q0 92 22 196t60 191q44 102 99.5 156.5t114.5 54.5z" />
    <glyph glyph-name="K" unicode="K" horiz-adv-x="1071" 
d="M1125 761q23 -11 15 -32q-20 -49 -52.5 -100.5t-82 -103.5t-107.5 -92.5t-133.5 -66t-155.5 -25.5q-72 0 -160.5 33.5t-135.5 73.5q7 -127 27 -328q6 -58 6 -73q0 -38 -45 -51q-12 -3 -24 -3q-38 0 -52 24q-42 72 -82.5 320.5t-40.5 514.5q0 210 17 399.5t36 266.5
q16 68 88 68q77 0 114 -43q25 -30 19 -65q-28 -168 -49 -388.5t-21 -394.5v-71q200 152 338.5 398.5t183.5 532.5q2 16 17.5 24.5t36.5 6.5q30 -2 51 -24t20 -58q-5 -124 -61.5 -274.5t-153.5 -298.5q-93 -142 -198.5 -245.5t-199.5 -143.5q48 -45 124 -83.5t143 -38.5
q135 0 263.5 91t207.5 243q5 9 19.5 11t27.5 -4z" />
    <glyph glyph-name="L" unicode="L" horiz-adv-x="868" 
d="M815 112q18 -1 31 -13t14 -29q0 -36 -48 -43q-30 -5 -215.5 -15t-276.5 -10q-32 0 -42 1v1q-40 2 -54 28q-45 80 -83.5 326.5t-38.5 509.5q0 169 15.5 375.5t40.5 293.5q18 62 85 62q76 0 115 -44q22 -26 17 -62q-71 -444 -71 -812q0 -229 40 -586q13 0 72 2.5t98 4.5
q264 12 301 10z" />
    <glyph glyph-name="M" unicode="M" horiz-adv-x="1806" 
d="M1881 757q15 -11 12 -31q-6 -45 -13.5 -90.5t-22.5 -117.5t-32.5 -134t-44 -129t-55.5 -114.5t-69 -78t-84 -30.5q-125 0 -183 176t-58 556q0 126 1 189q4 364 -10 392h-1q-51 -32 -102 -116t-94 -199t-74 -214t-59 -207v-3l-1 -2q-1 -1 -1 -3.5t-1 -3.5q-9 -27 -33 -39
t-51 -10q-28 2 -50.5 20.5t-24.5 47.5q-2 32 1 136q4 126 4 260q0 381 -28 468q-1 0 -2 -1q-167 -135 -300 -553q-126 -398 -175 -870v-2l1 -2q5 -25 -33 -40q-18 -8 -37 -8q-36 0 -52 24q-42 62 -74.5 284.5t-32.5 446.5q0 133 14.5 309.5t28.5 256.5q11 66 87 66
q83 0 121 -46q21 -26 15 -55q-78 -386 -78 -763v-23q55 304 141.5 554.5t184 394.5t184.5 144q54 0 94 -24t64.5 -65.5t39 -106.5t20 -137.5t5.5 -168.5q0 -5 -0.5 -19t-0.5 -23q156 406 313 406q47 0 82 -18.5t57.5 -56t36.5 -79.5t21 -104.5t9 -115t2 -125.5t-6 -247
q-6 -164 -6 -216q0 -162 17 -263.5t48 -119.5h6q18 6 58 80t88.5 224.5t70.5 317.5q3 18 20 26q24 10 42 -5z" />
    <glyph glyph-name="N" unicode="N" horiz-adv-x="1312" 
d="M1383 760q13 -3 21.5 -13.5t5.5 -28.5q-15 -92 -33 -175.5t-48 -184.5t-63.5 -173t-80.5 -121t-99 -49q-111 0 -168.5 148.5t-57.5 434.5q0 121 14 409q19 403 5 462q-78 -43 -163 -180t-165 -350q-156 -414 -221 -874q0 -2 0.5 -4t0.5 -3q2 -13 -8 -24t-29 -17
q-12 -4 -30 -4q-45 0 -60 32q-34 73 -68 276.5t-34 441.5q0 130 14.5 308t29.5 262q11 66 87 66q86 0 122 -42q20 -25 14 -55q-31 -163 -54.5 -371.5t-23.5 -387.5q0 -80 4 -144q99 465 255 800q33 72 68.5 132.5t78.5 118.5t91.5 91.5t94.5 33.5q38 0 67.5 -9.5t50 -25
t34.5 -42t22.5 -54t12.5 -68.5t5.5 -76.5t1.5 -87.5q0 -128 -19 -405q-17 -238 -17 -363q0 -131 19.5 -232t42.5 -110q2 -1 4 -1q60 40 123.5 240t97.5 379q4 21 20.5 32t34.5 8z" />
    <glyph glyph-name="N" unicode="&#xd1;" horiz-adv-x="1312" 
d="M1383 760q13 -3 21.5 -13.5t5.5 -28.5q-15 -92 -33 -175.5t-48 -184.5t-63.5 -173t-80.5 -121t-99 -49q-111 0 -168.5 148.5t-57.5 434.5q0 121 14 409q19 403 5 462q-78 -43 -163 -180t-165 -350q-156 -414 -221 -874q0 -2 0.5 -4t0.5 -3q2 -13 -8 -24t-29 -17
q-12 -4 -30 -4q-45 0 -60 32q-34 73 -68 276.5t-34 441.5q0 130 14.5 308t29.5 262q11 66 87 66q86 0 122 -42q20 -25 14 -55q-31 -163 -54.5 -371.5t-23.5 -387.5q0 -80 4 -144q99 465 255 800q33 72 68.5 132.5t78.5 118.5t91.5 91.5t94.5 33.5q38 0 67.5 -9.5t50 -25
t34.5 -42t22.5 -54t12.5 -68.5t5.5 -76.5t1.5 -87.5q0 -128 -19 -405q-17 -238 -17 -363q0 -131 19.5 -232t42.5 -110q2 -1 4 -1q60 40 123.5 240t97.5 379q4 21 20.5 32t34.5 8z" />
    <glyph glyph-name="O" unicode="O" horiz-adv-x="1406" 
d="M723 1623q263 0 420 -174q162 -180 162 -506q0 -167 -33 -329.5t-93 -289.5q-28 -60 -62 -110t-82 -98.5t-112 -76t-136 -27.5q-210 0 -341 206q-126 199 -126 501q0 160 31.5 296.5t86 215.5t117.5 79q58 0 79 -33q11 -18 4 -33q-106 -225 -106 -525q0 -276 75 -447
q77 -175 206 -175q97 0 188 128.5t143.5 316.5t52.5 366q0 291 -121 459.5t-329 168.5q-93 0 -190 -60.5t-182 -171.5q-81 -106 -127 -228.5t-46 -233.5q0 -88 26 -130q7 -12 7 -20q0 -15 -10 -24t-27 -9q-46 0 -71 70t-25 167q0 139 48 272t135 236q89 106 202 162.5
t236 56.5z" />
    <glyph glyph-name="O" unicode="&#xd8;" horiz-adv-x="1406" 
d="M723 1623q263 0 420 -174q162 -180 162 -506q0 -167 -33 -329.5t-93 -289.5q-28 -60 -62 -110t-82 -98.5t-112 -76t-136 -27.5q-210 0 -341 206q-126 199 -126 501q0 160 31.5 296.5t86 215.5t117.5 79q58 0 79 -33q11 -18 4 -33q-106 -225 -106 -525q0 -276 75 -447
q77 -175 206 -175q97 0 188 128.5t143.5 316.5t52.5 366q0 291 -121 459.5t-329 168.5q-93 0 -190 -60.5t-182 -171.5q-81 -106 -127 -228.5t-46 -233.5q0 -88 26 -130q7 -12 7 -20q0 -15 -10 -24t-27 -9q-46 0 -71 70t-25 167q0 139 48 272t135 236q89 106 202 162.5
t236 56.5z" />
    <glyph glyph-name="O" unicode="&#xd6;" horiz-adv-x="1406" 
d="M723 1623q263 0 420 -174q162 -180 162 -506q0 -167 -33 -329.5t-93 -289.5q-28 -60 -62 -110t-82 -98.5t-112 -76t-136 -27.5q-210 0 -341 206q-126 199 -126 501q0 160 31.5 296.5t86 215.5t117.5 79q58 0 79 -33q11 -18 4 -33q-106 -225 -106 -525q0 -276 75 -447
q77 -175 206 -175q97 0 188 128.5t143.5 316.5t52.5 366q0 291 -121 459.5t-329 168.5q-93 0 -190 -60.5t-182 -171.5q-81 -106 -127 -228.5t-46 -233.5q0 -88 26 -130q7 -12 7 -20q0 -15 -10 -24t-27 -9q-46 0 -71 70t-25 167q0 139 48 272t135 236q89 106 202 162.5
t236 56.5z" />
    <glyph glyph-name="O" unicode="&#xd5;" horiz-adv-x="1406" 
d="M723 1623q263 0 420 -174q162 -180 162 -506q0 -167 -33 -329.5t-93 -289.5q-28 -60 -62 -110t-82 -98.5t-112 -76t-136 -27.5q-210 0 -341 206q-126 199 -126 501q0 160 31.5 296.5t86 215.5t117.5 79q58 0 79 -33q11 -18 4 -33q-106 -225 -106 -525q0 -276 75 -447
q77 -175 206 -175q97 0 188 128.5t143.5 316.5t52.5 366q0 291 -121 459.5t-329 168.5q-93 0 -190 -60.5t-182 -171.5q-81 -106 -127 -228.5t-46 -233.5q0 -88 26 -130q7 -12 7 -20q0 -15 -10 -24t-27 -9q-46 0 -71 70t-25 167q0 139 48 272t135 236q89 106 202 162.5
t236 56.5z" />
    <glyph glyph-name="O" unicode="&#xd4;" horiz-adv-x="1406" 
d="M723 1623q263 0 420 -174q162 -180 162 -506q0 -167 -33 -329.5t-93 -289.5q-28 -60 -62 -110t-82 -98.5t-112 -76t-136 -27.5q-210 0 -341 206q-126 199 -126 501q0 160 31.5 296.5t86 215.5t117.5 79q58 0 79 -33q11 -18 4 -33q-106 -225 -106 -525q0 -276 75 -447
q77 -175 206 -175q97 0 188 128.5t143.5 316.5t52.5 366q0 291 -121 459.5t-329 168.5q-93 0 -190 -60.5t-182 -171.5q-81 -106 -127 -228.5t-46 -233.5q0 -88 26 -130q7 -12 7 -20q0 -15 -10 -24t-27 -9q-46 0 -71 70t-25 167q0 139 48 272t135 236q89 106 202 162.5
t236 56.5z" />
    <glyph glyph-name="O" unicode="&#xd3;" horiz-adv-x="1406" 
d="M723 1623q263 0 420 -174q162 -180 162 -506q0 -167 -33 -329.5t-93 -289.5q-28 -60 -62 -110t-82 -98.5t-112 -76t-136 -27.5q-210 0 -341 206q-126 199 -126 501q0 160 31.5 296.5t86 215.5t117.5 79q58 0 79 -33q11 -18 4 -33q-106 -225 -106 -525q0 -276 75 -447
q77 -175 206 -175q97 0 188 128.5t143.5 316.5t52.5 366q0 291 -121 459.5t-329 168.5q-93 0 -190 -60.5t-182 -171.5q-81 -106 -127 -228.5t-46 -233.5q0 -88 26 -130q7 -12 7 -20q0 -15 -10 -24t-27 -9q-46 0 -71 70t-25 167q0 139 48 272t135 236q89 106 202 162.5
t236 56.5z" />
    <glyph glyph-name="O" unicode="&#xd2;" horiz-adv-x="1406" 
d="M723 1623q263 0 420 -174q162 -180 162 -506q0 -167 -33 -329.5t-93 -289.5q-28 -60 -62 -110t-82 -98.5t-112 -76t-136 -27.5q-210 0 -341 206q-126 199 -126 501q0 160 31.5 296.5t86 215.5t117.5 79q58 0 79 -33q11 -18 4 -33q-106 -225 -106 -525q0 -276 75 -447
q77 -175 206 -175q97 0 188 128.5t143.5 316.5t52.5 366q0 291 -121 459.5t-329 168.5q-93 0 -190 -60.5t-182 -171.5q-81 -106 -127 -228.5t-46 -233.5q0 -88 26 -130q7 -12 7 -20q0 -15 -10 -24t-27 -9q-46 0 -71 70t-25 167q0 139 48 272t135 236q89 106 202 162.5
t236 56.5z" />
    <glyph glyph-name="P" unicode="P" horiz-adv-x="1189" 
d="M777 1623q119 0 214.5 -125t95.5 -321q0 -145 -49.5 -273t-141.5 -224q-89 -93 -204 -142t-241 -49q-60 0 -90 10q-20 -194 -17 -377q3 -36 3 -51q2 -37 -43 -50q-16 -4 -27 -4q-37 0 -50 21q-46 79 -85.5 341t-39.5 494q0 175 17 381t37 288q17 68 87 68q80 0 117 -45
q22 -26 17 -55q-19 -106 -42 -310t-29 -370q38 208 105.5 384t164.5 292.5t201 116.5zM807 1523q-1 1 -7 1q-102 -25 -190.5 -156.5t-152.5 -351.5q-58 -200 -87 -438q16 -7 61 -7q89 0 173.5 41t148.5 115q146 168 146 430q0 124 -28.5 230.5t-63.5 135.5z" />
    <glyph glyph-name="Q" unicode="Q" horiz-adv-x="1503" 
d="M1370 209q30 -4 30 -44q0 -57 -61 -113.5t-145 -56.5q-45 0 -96 21t-82 41.5t-86 61.5q-99 -117 -212 -117q-77 0 -151.5 56t-132.5 158q-20 34 -45 93q-50 26 -100 75.5t-88 111.5q-99 161 -99 348q0 132 36 263.5t100 233.5q30 49 68 91t91 81.5t125 62.5t153 23
q238 0 362 -177.5t124 -518.5q0 -154 -32 -313.5t-90 -288.5q-26 -56 -46 -92q139 -84 226 -84q47 0 75.5 14.5t33.5 35.5q4 18 16.5 27t25.5 7zM562 1158q-17 -54 -31 -181t-14 -243q0 -148 24.5 -276t60.5 -206t74 -121.5t69 -43.5q44 0 108 88q-97 64 -174 64
q-11 0 -20 11t-9 25q0 20 17 32q19 15 55 15q74 0 185 -62q67 123 111 291t44 356q0 264 -94 429q-96 169 -261 169q-117 0 -212.5 -88.5t-156.5 -230.5q-80 -186 -80 -375q0 -145 66 -271q-21 123 -21 260q0 253 54 378q25 59 91 59q34 0 63.5 -12t43.5 -31q13 -18 7 -36z
" />
    <glyph glyph-name="R" unicode="R" horiz-adv-x="1255" 
d="M1324 748q30 -14 21 -35q-41 -94 -110.5 -186.5t-152 -166t-177.5 -119t-180 -45.5q-96 0 -202 52.5t-173 134.5q-10 -141 -7 -292q3 -27 3 -39q0 -19 -13 -33t-32 -20q-11 -4 -26 -4q-33 0 -49 23q-41 60 -82.5 318.5t-41.5 522.5q0 165 14.5 369t39.5 294q18 68 87 68
q79 0 114 -43q25 -30 19 -65q-58 -334 -69 -667q64 324 177 537q133 250 294 250q91 0 163 -67.5t108.5 -169t36.5 -211.5q0 -141 -47 -266.5t-135 -219.5q-90 -96 -212 -147t-262 -51l1 -1q57 -88 131.5 -138t149.5 -50q124 0 289.5 135.5t274.5 326.5q13 22 48 5z
M807 1503q-1 1 -6 1q-97 -21 -183.5 -145.5t-152.5 -337.5q-65 -208 -98 -463q18 -8 64 -8q89 0 171.5 38.5t149.5 110.5t107 186.5t40 254.5q0 122 -28 223.5t-64 139.5z" />
    <glyph glyph-name="S" unicode="S" horiz-adv-x="1267" 
d="M1292 772q15 4 27 -5t17 -25q12 -34 -12 -43q-166 -60 -336 -157q82 -77 82 -175q0 -89 -77.5 -176t-181.5 -137.5t-189 -50.5q-76 0 -134.5 37t-58.5 101q0 48 33 103t87.5 106t104.5 89.5t105 74.5q5 3 14 8.5t13 8.5q-46 29 -163 79l-23 10q-48 21 -73 32t-73.5 34.5
t-76.5 40t-70 44t-67 51t-54.5 57t-45.5 66.5t-27 73.5t-11 84.5q0 107 56.5 208t144.5 171.5t196 113t211 42.5q61 0 126.5 -19t122.5 -53.5t93.5 -90.5t36.5 -122q0 -84 -41.5 -194t-75.5 -127q-8 -4 -19 -4q-19 0 -31 12q-19 17 -8 41q59 136 59 270q0 59 -38 103.5
t-107 44.5q-79 0 -169 -40.5t-171 -111.5q-82 -73 -128.5 -156t-46.5 -157q0 -34 11.5 -65t27.5 -54.5t47.5 -49t56.5 -42t71.5 -40t74 -35.5t81.5 -36q159 -69 223 -109q217 120 386 169zM564 108q36 0 107 43t134.5 118t63.5 146q0 24 -11 46q-138 -92 -221.5 -180
t-83.5 -152q0 -21 11 -21z" />
    <glyph glyph-name="T" unicode="T" horiz-adv-x="1040" 
d="M1174 1593q15 -4 22.5 -20t5.5 -33q-3 -23 -23 -23q-131 0 -436 -14q-22 -118 -46.5 -367.5t-24.5 -440.5q0 -171 31 -507q11 -110 10 -126t-14 -29.5t-33 -19.5q-10 -3 -24 -3q-32 0 -49 21q-40 50 -82.5 311.5t-42.5 528.5q0 148 11.5 331t34.5 289q-256 -13 -372 -24
h-4q-15 0 -24 11.5t-11 27.5t4.5 29t21.5 16q126 21 424 36q30 15 62 15q29 0 64 -10q437 19 495 1z" />
    <glyph glyph-name="U" unicode="U" horiz-adv-x="1298" 
d="M1402 744q12 -10 9 -27q-22 -117 -42.5 -207t-50 -187t-61 -160.5t-73.5 -104.5t-89 -41q-137 0 -209 258q-15 55 -27 118q-87 -177 -175 -259.5t-189 -82.5q-185 0 -289 228.5t-104 632.5q0 136 12 310t36 245q17 50 78 50q79 0 117 -44q22 -26 17 -54
q-17 -95 -35 -308.5t-18 -372.5q0 -153 24 -290t72 -227.5t109 -90.5q71 0 166 125.5t158 283.5q-16 144 -16 329q0 520 40 664q17 63 86 63q70 0 102 -38q25 -30 19 -68q-45 -299 -45 -766q0 -245 28.5 -404t66.5 -215h1q62 50 122.5 239.5t95.5 380.5q3 20 23 26
q25 9 41 -6z" />
    <glyph glyph-name="U" unicode="&#xdc;" horiz-adv-x="1298" 
d="M1402 744q12 -10 9 -27q-22 -117 -42.5 -207t-50 -187t-61 -160.5t-73.5 -104.5t-89 -41q-137 0 -209 258q-15 55 -27 118q-87 -177 -175 -259.5t-189 -82.5q-185 0 -289 228.5t-104 632.5q0 136 12 310t36 245q17 50 78 50q79 0 117 -44q22 -26 17 -54
q-17 -95 -35 -308.5t-18 -372.5q0 -153 24 -290t72 -227.5t109 -90.5q71 0 166 125.5t158 283.5q-16 144 -16 329q0 520 40 664q17 63 86 63q70 0 102 -38q25 -30 19 -68q-45 -299 -45 -766q0 -245 28.5 -404t66.5 -215h1q62 50 122.5 239.5t95.5 380.5q3 20 23 26
q25 9 41 -6z" />
    <glyph glyph-name="U" unicode="&#xdb;" horiz-adv-x="1298" 
d="M1402 744q12 -10 9 -27q-22 -117 -42.5 -207t-50 -187t-61 -160.5t-73.5 -104.5t-89 -41q-137 0 -209 258q-15 55 -27 118q-87 -177 -175 -259.5t-189 -82.5q-185 0 -289 228.5t-104 632.5q0 136 12 310t36 245q17 50 78 50q79 0 117 -44q22 -26 17 -54
q-17 -95 -35 -308.5t-18 -372.5q0 -153 24 -290t72 -227.5t109 -90.5q71 0 166 125.5t158 283.5q-16 144 -16 329q0 520 40 664q17 63 86 63q70 0 102 -38q25 -30 19 -68q-45 -299 -45 -766q0 -245 28.5 -404t66.5 -215h1q62 50 122.5 239.5t95.5 380.5q3 20 23 26
q25 9 41 -6z" />
    <glyph glyph-name="U" unicode="&#xda;" horiz-adv-x="1298" 
d="M1402 744q12 -10 9 -27q-22 -117 -42.5 -207t-50 -187t-61 -160.5t-73.5 -104.5t-89 -41q-137 0 -209 258q-15 55 -27 118q-87 -177 -175 -259.5t-189 -82.5q-185 0 -289 228.5t-104 632.5q0 136 12 310t36 245q17 50 78 50q79 0 117 -44q22 -26 17 -54
q-17 -95 -35 -308.5t-18 -372.5q0 -153 24 -290t72 -227.5t109 -90.5q71 0 166 125.5t158 283.5q-16 144 -16 329q0 520 40 664q17 63 86 63q70 0 102 -38q25 -30 19 -68q-45 -299 -45 -766q0 -245 28.5 -404t66.5 -215h1q62 50 122.5 239.5t95.5 380.5q3 20 23 26
q25 9 41 -6z" />
    <glyph glyph-name="U" unicode="&#xd9;" horiz-adv-x="1298" 
d="M1402 744q12 -10 9 -27q-22 -117 -42.5 -207t-50 -187t-61 -160.5t-73.5 -104.5t-89 -41q-137 0 -209 258q-15 55 -27 118q-87 -177 -175 -259.5t-189 -82.5q-185 0 -289 228.5t-104 632.5q0 136 12 310t36 245q17 50 78 50q79 0 117 -44q22 -26 17 -54
q-17 -95 -35 -308.5t-18 -372.5q0 -153 24 -290t72 -227.5t109 -90.5q71 0 166 125.5t158 283.5q-16 144 -16 329q0 520 40 664q17 63 86 63q70 0 102 -38q25 -30 19 -68q-45 -299 -45 -766q0 -245 28.5 -404t66.5 -215h1q62 50 122.5 239.5t95.5 380.5q3 20 23 26
q25 9 41 -6z" />
    <glyph glyph-name="V" unicode="V" horiz-adv-x="1259" 
d="M1145 1589q15 -12 12 -31q-86 -539 -202.5 -942t-225.5 -539q-43 -54 -120 -54q-79 0 -153 75q-84 86 -155 265.5t-114.5 388t-65.5 421.5t-18 384q1 21 24.5 35.5t72.5 14.5q57 0 92.5 -21.5t36.5 -48.5q5 -243 51 -545.5t118.5 -551t144.5 -321.5q63 51 153.5 314.5
t166.5 579.5t111 556q3 20 22 28q27 11 49 -8z" />
    <glyph glyph-name="W" unicode="W" horiz-adv-x="1789" 
d="M1592 1598q14 4 28 -1.5t20 -19.5q18 -42 33 -194t15 -324q0 -475 -118 -769q-64 -158 -157.5 -240.5t-210.5 -82.5q-218 0 -350 250q-64 120 -94 276q-51 -195 -128 -301.5t-168 -106.5q-73 0 -139 54t-116 155q-105 212 -105 521q0 381 99 742q13 51 81 51
q44 0 80 -15.5t53 -37.5q16 -21 12 -39q-116 -495 -116 -819q0 -189 47 -344t116 -189q4 1 5 1q77 32 146 212t107 449q4 143 18 183q18 54 92 54q47 0 82.5 -19.5t38.5 -43.5q2 -15 0 -89q-1 -20 -1 -54q0 -152 17.5 -294t50 -256.5t85 -183.5t116.5 -69q74 0 141 78.5
t118 224.5q104 300 104 720q0 103 -9 250.5t-21 226.5q-5 35 28 44z" />
    <glyph glyph-name="X" unicode="X" horiz-adv-x="1073" 
d="M1147 764q13 -3 21.5 -14t4.5 -25l-11 -44q-22 -88 -34 -132.5t-34 -122.5t-38 -119.5t-41 -100.5t-49.5 -90t-55.5 -63.5t-66.5 -46t-76.5 -13.5q-131 0 -247 122q-96 100 -177 281q-122 -204 -156 -370q-1 -2 2 -10q2 -6 2 -9q0 -14 -11 -23t-25 -9q-25 0 -39 15
t-14 43q0 106 50 217.5t147 255.5q-44 117 -77 252q-48 193 -70.5 394.5t-13.5 367.5q1 32 28.5 50.5t74.5 18.5q56 0 90.5 -21t34.5 -42q9 -428 92 -789q68 99 116.5 179.5t99.5 182.5t83 210.5t43 218.5q2 21 13 36.5t31 15.5t33 -11t14 -29q4 -68 -6 -138.5t-25 -128
t-48.5 -130.5t-57.5 -120t-73.5 -123.5t-75 -114t-81.5 -117.5q-6 -9 -17.5 -26.5t-17.5 -25.5q23 -86 41 -138q62 -184 133.5 -293.5t128.5 -109.5q139 0 315 668q7 29 40 21z" />
    <glyph glyph-name="Y" unicode="Y" horiz-adv-x="1218" 
d="M938 1590q53 0 88.5 -24.5t45.5 -58.5q21 -73 32.5 -231.5t11.5 -275.5q0 -481 -182 -763q-83 -128 -198 -196t-247 -68q-125 0 -213 53.5t-159 172.5q-6 10 -2 23t17 22q35 25 65 -9q47 -55 82.5 -88.5t89 -61.5t107.5 -28q85 0 160 51.5t130 148.5q129 224 129 624v44
q0 251 -12 373q-105 -484 -190 -677q-55 -126 -121.5 -186t-149.5 -60q-91 0 -164.5 85t-114.5 236.5t-41 340.5q0 268 36 414q15 61 80 61q47 0 87 -21t44 -48q2 -11 -8 -95q-25 -215 -25 -349q0 -188 42 -352.5t88 -183.5h11q28 11 56.5 41.5t52 69.5t49 100t44.5 114.5
t41 133t36.5 135.5t33.5 141.5t29 131.5t26 124q14 64 33 88q3 8 9 14q28 34 71 34z" />
    <glyph glyph-name="Y" unicode="&#x178;" horiz-adv-x="1218" 
d="M938 1590q53 0 88.5 -24.5t45.5 -58.5q21 -73 32.5 -231.5t11.5 -275.5q0 -481 -182 -763q-83 -128 -198 -196t-247 -68q-125 0 -213 53.5t-159 172.5q-6 10 -2 23t17 22q35 25 65 -9q47 -55 82.5 -88.5t89 -61.5t107.5 -28q85 0 160 51.5t130 148.5q129 224 129 624v44
q0 251 -12 373q-105 -484 -190 -677q-55 -126 -121.5 -186t-149.5 -60q-91 0 -164.5 85t-114.5 236.5t-41 340.5q0 268 36 414q15 61 80 61q47 0 87 -21t44 -48q2 -11 -8 -95q-25 -215 -25 -349q0 -188 42 -352.5t88 -183.5h11q28 11 56.5 41.5t52 69.5t49 100t44.5 114.5
t41 133t36.5 135.5t33.5 141.5t29 131.5t26 124q14 64 33 88q3 8 9 14q28 34 71 34z" />
    <glyph glyph-name="Y" unicode="&#xdd;" horiz-adv-x="1218" 
d="M938 1590q53 0 88.5 -24.5t45.5 -58.5q21 -73 32.5 -231.5t11.5 -275.5q0 -481 -182 -763q-83 -128 -198 -196t-247 -68q-125 0 -213 53.5t-159 172.5q-6 10 -2 23t17 22q35 25 65 -9q47 -55 82.5 -88.5t89 -61.5t107.5 -28q85 0 160 51.5t130 148.5q129 224 129 624v44
q0 251 -12 373q-105 -484 -190 -677q-55 -126 -121.5 -186t-149.5 -60q-91 0 -164.5 85t-114.5 236.5t-41 340.5q0 268 36 414q15 61 80 61q47 0 87 -21t44 -48q2 -11 -8 -95q-25 -215 -25 -349q0 -188 42 -352.5t88 -183.5h11q28 11 56.5 41.5t52 69.5t49 100t44.5 114.5
t41 133t36.5 135.5t33.5 141.5t29 131.5t26 124q14 64 33 88q3 8 9 14q28 34 71 34z" />
    <glyph glyph-name="Z" unicode="Z" horiz-adv-x="1198" 
d="M1031 218q26 -19 19 -42q-20 -63 -162 -119.5t-349 -56.5q-205 0 -321 64.5t-116 178.5q0 43 21 97t50 104t84.5 118.5t97.5 117.5t117 125.5t116.5 117.5t120.5 118q90 88 135.5 133t103 107t82 100t24.5 62v3l-1 2q-26 18 -112 36.5t-155 18.5q-129 0 -239.5 -19.5
t-156 -36.5t-102.5 -43q-22 -9 -40 4q-26 19 -23 49q3 38 92.5 75.5t217 60t241.5 22.5q199 0 311 -67.5t112 -187.5q0 -48 -25 -105t-56.5 -102.5t-97 -115.5t-107.5 -110.5t-127 -120.5q-1 -1 -53 -50q-102 -96 -176 -170.5t-148 -158t-113 -149.5t-39 -110
q0 -28 70.5 -48.5t169.5 -20.5q195 0 295 27t193 93q23 16 46 -1z" />
    <glyph glyph-name="bracketleft" unicode="[" horiz-adv-x="612" 
d="M511 1399q4 -33 -28 -42q-3 -1 -50 -4q-71 -5 -79 -6q5 -16 2 -40q-10 -67 -26 -369t-16 -532q0 -184 11 -448h20h20.5h19.5l8 -1q20 0 31.5 -12t12.5 -28t-8 -29t-25 -15q-32 -4 -116 -4q-30 0 -37 1q-42 4 -62 47q-38 86 -62.5 325.5t-24.5 532.5q0 222 12.5 386.5
t26.5 213.5q14 47 72 52q71 18 259 9q17 -1 27 -11.5t12 -25.5z" />
    <glyph glyph-name="backslash" unicode="\" horiz-adv-x="1048" 
d="M944 15q6 -21 -4 -39.5t-33 -27.5q-15 -5 -28 -5q-47 0 -69 46q-92 192 -334 647.5t-366 631.5q-8 11 -8 23q0 27 33 54q35 29 78.5 40t66.5 -8q57 -56 206.5 -346.5t286.5 -596t171 -419.5z" />
    <glyph glyph-name="bracketright" unicode="]" horiz-adv-x="614" 
d="M473 1375q14 -46 26 -210.5t12 -389.5q0 -304 -24 -540.5t-63 -317.5q-20 -42 -61 -47q-12 -2 -33 -2q-80 0 -120 5q-16 2 -24.5 14.5t-7.5 28.5t12 28.5t30 12.5l22 1h33h13q11 264 11 448q0 230 -16 532t-26 369q-3 21 2 40q-8 1 -79 6q-46 3 -49 4q-32 9 -28 42
q2 15 11.5 25.5t26.5 11.5q188 8 261 -8q57 -7 71 -53z" />
    <glyph glyph-name="asciicircum" unicode="^" horiz-adv-x="675" 
d="M571 1036q6 -16 -6 -35q-12 -17 -32 -17q-57 0 -171 202q-8 -17 -44.5 -87t-40.5 -77q-20 -32 -67.5 -32t-76.5 21q-43 27 -27 54l17 29q135 234 155 266l3 3q20 32 51 32q51 0 72.5 -28t44.5 -98l3 -9q26 -77 94 -182q22 -32 25 -42z" />
    <glyph glyph-name="underscore" unicode="_" horiz-adv-x="819" 
d="M686 28q17 -6 25.5 -23t5.5 -34q-5 -26 -29 -26q-7 0 -117.5 -3t-243.5 -7.5t-168 -8.5h-4q-20 0 -34.5 17t-17.5 40q-5 46 32 51q29 5 276.5 4.5t274.5 -10.5z" />
    <glyph glyph-name="grave" unicode="`" horiz-adv-x="534" 
d="M430 1074q13 -35 -38 -65q-30 -16 -56 -16q-42 0 -66 33q-9 13 -84.5 143t-80.5 143q-8 23 7 44q31 44 113 44q94 0 109 -59q2 -9 96 -267z" />
    <glyph glyph-name="a" unicode="a" horiz-adv-x="937" 
d="M977 690q14 -2 23 -10t8 -20q-9 -148 -47.5 -286.5t-101.5 -229.5t-133 -91q-168 0 -246 237q-34 101 -47 227q-66 -177 -115 -235.5t-130 -58.5q-83 0 -147 81.5t-64 213.5q0 80 20 156.5t57 139t96 100.5t130 38q99 0 157 -42q11 69 89 69q65 0 102 -37q17 -19 17 -38
q0 -1 -0.5 -11.5t-0.5 -19.5q-8 -308 -8 -337q0 -125 15 -219.5t37.5 -139t47.5 -44.5q8 0 25 19.5t40.5 63.5t47 103t46.5 148.5t37 190.5q2 17 15.5 25.5t29.5 6.5zM222 326q53 55 122 243.5t69 220.5q0 6 -22 27.5t-36 29.5h-2q-5 0 -6 -1q-68 -35 -107.5 -148.5
t-39.5 -239.5q0 -76 22 -132z" />
    <glyph glyph-name="a" unicode="&#xe5;" horiz-adv-x="937" 
d="M977 690q14 -2 23 -10t8 -20q-9 -148 -47.5 -286.5t-101.5 -229.5t-133 -91q-168 0 -246 237q-34 101 -47 227q-66 -177 -115 -235.5t-130 -58.5q-83 0 -147 81.5t-64 213.5q0 80 20 156.5t57 139t96 100.5t130 38q99 0 157 -42q11 69 89 69q65 0 102 -37q17 -19 17 -38
q0 -1 -0.5 -11.5t-0.5 -19.5q-8 -308 -8 -337q0 -125 15 -219.5t37.5 -139t47.5 -44.5q8 0 25 19.5t40.5 63.5t47 103t46.5 148.5t37 190.5q2 17 15.5 25.5t29.5 6.5zM222 326q53 55 122 243.5t69 220.5q0 6 -22 27.5t-36 29.5h-2q-5 0 -6 -1q-68 -35 -107.5 -148.5
t-39.5 -239.5q0 -76 22 -132z" />
    <glyph glyph-name="a" unicode="&#xe4;" horiz-adv-x="937" 
d="M977 690q14 -2 23 -10t8 -20q-9 -148 -47.5 -286.5t-101.5 -229.5t-133 -91q-168 0 -246 237q-34 101 -47 227q-66 -177 -115 -235.5t-130 -58.5q-83 0 -147 81.5t-64 213.5q0 80 20 156.5t57 139t96 100.5t130 38q99 0 157 -42q11 69 89 69q65 0 102 -37q17 -19 17 -38
q0 -1 -0.5 -11.5t-0.5 -19.5q-8 -308 -8 -337q0 -125 15 -219.5t37.5 -139t47.5 -44.5q8 0 25 19.5t40.5 63.5t47 103t46.5 148.5t37 190.5q2 17 15.5 25.5t29.5 6.5zM222 326q53 55 122 243.5t69 220.5q0 6 -22 27.5t-36 29.5h-2q-5 0 -6 -1q-68 -35 -107.5 -148.5
t-39.5 -239.5q0 -76 22 -132z" />
    <glyph glyph-name="a" unicode="&#xe3;" horiz-adv-x="937" 
d="M977 690q14 -2 23 -10t8 -20q-9 -148 -47.5 -286.5t-101.5 -229.5t-133 -91q-168 0 -246 237q-34 101 -47 227q-66 -177 -115 -235.5t-130 -58.5q-83 0 -147 81.5t-64 213.5q0 80 20 156.5t57 139t96 100.5t130 38q99 0 157 -42q11 69 89 69q65 0 102 -37q17 -19 17 -38
q0 -1 -0.5 -11.5t-0.5 -19.5q-8 -308 -8 -337q0 -125 15 -219.5t37.5 -139t47.5 -44.5q8 0 25 19.5t40.5 63.5t47 103t46.5 148.5t37 190.5q2 17 15.5 25.5t29.5 6.5zM222 326q53 55 122 243.5t69 220.5q0 6 -22 27.5t-36 29.5h-2q-5 0 -6 -1q-68 -35 -107.5 -148.5
t-39.5 -239.5q0 -76 22 -132z" />
    <glyph glyph-name="a" unicode="&#xe2;" horiz-adv-x="937" 
d="M977 690q14 -2 23 -10t8 -20q-9 -148 -47.5 -286.5t-101.5 -229.5t-133 -91q-168 0 -246 237q-34 101 -47 227q-66 -177 -115 -235.5t-130 -58.5q-83 0 -147 81.5t-64 213.5q0 80 20 156.5t57 139t96 100.5t130 38q99 0 157 -42q11 69 89 69q65 0 102 -37q17 -19 17 -38
q0 -1 -0.5 -11.5t-0.5 -19.5q-8 -308 -8 -337q0 -125 15 -219.5t37.5 -139t47.5 -44.5q8 0 25 19.5t40.5 63.5t47 103t46.5 148.5t37 190.5q2 17 15.5 25.5t29.5 6.5zM222 326q53 55 122 243.5t69 220.5q0 6 -22 27.5t-36 29.5h-2q-5 0 -6 -1q-68 -35 -107.5 -148.5
t-39.5 -239.5q0 -76 22 -132z" />
    <glyph glyph-name="a" unicode="&#xe1;" horiz-adv-x="937" 
d="M977 690q14 -2 23 -10t8 -20q-9 -148 -47.5 -286.5t-101.5 -229.5t-133 -91q-168 0 -246 237q-34 101 -47 227q-66 -177 -115 -235.5t-130 -58.5q-83 0 -147 81.5t-64 213.5q0 80 20 156.5t57 139t96 100.5t130 38q99 0 157 -42q11 69 89 69q65 0 102 -37q17 -19 17 -38
q0 -1 -0.5 -11.5t-0.5 -19.5q-8 -308 -8 -337q0 -125 15 -219.5t37.5 -139t47.5 -44.5q8 0 25 19.5t40.5 63.5t47 103t46.5 148.5t37 190.5q2 17 15.5 25.5t29.5 6.5zM222 326q53 55 122 243.5t69 220.5q0 6 -22 27.5t-36 29.5h-2q-5 0 -6 -1q-68 -35 -107.5 -148.5
t-39.5 -239.5q0 -76 22 -132z" />
    <glyph glyph-name="a" unicode="&#xe0;" horiz-adv-x="937" 
d="M977 690q14 -2 23 -10t8 -20q-9 -148 -47.5 -286.5t-101.5 -229.5t-133 -91q-168 0 -246 237q-34 101 -47 227q-66 -177 -115 -235.5t-130 -58.5q-83 0 -147 81.5t-64 213.5q0 80 20 156.5t57 139t96 100.5t130 38q99 0 157 -42q11 69 89 69q65 0 102 -37q17 -19 17 -38
q0 -1 -0.5 -11.5t-0.5 -19.5q-8 -308 -8 -337q0 -125 15 -219.5t37.5 -139t47.5 -44.5q8 0 25 19.5t40.5 63.5t47 103t46.5 148.5t37 190.5q2 17 15.5 25.5t29.5 6.5zM222 326q53 55 122 243.5t69 220.5q0 6 -22 27.5t-36 29.5h-2q-5 0 -6 -1q-68 -35 -107.5 -148.5
t-39.5 -239.5q0 -76 22 -132z" />
    <glyph glyph-name="b" unicode="b" horiz-adv-x="929" 
d="M972 686q15 -2 22.5 -14t5.5 -26q-2 -28 -23 -28q-140 3 -253 -25q-4 -106 -50 -201.5t-118.5 -153.5t-150.5 -58q-57 0 -93 32.5t-36 82.5q0 123 127 233q66 58 155 98v20q0 79 -14 125.5t-37 46.5q-59 0 -122 -80t-110.5 -225.5t-57.5 -311.5q12 -109 10 -138
q-1 -16 -13.5 -28.5t-32.5 -17.5q-9 -3 -20 -3q-37 0 -54 28q-43 67 -75 297t-32 428q0 135 15 324.5t30 255.5q7 29 26.5 42t57.5 13q55 0 92.5 -22.5t40.5 -46.5q2 -19 -16 -135q-59 -375 -59 -629v-1q38 136 123.5 243.5t170.5 107.5q89 0 155.5 -68t83.5 -173
q128 26 252 8zM376 263q59 16 103.5 88.5t65.5 170.5q-48 -29 -86 -65q-87 -85 -87 -171q0 -18 3 -22z" />
    <glyph glyph-name="c" unicode="c" horiz-adv-x="823" 
d="M864 676q15 -4 23.5 -16.5t4.5 -30.5q-23 -103 -67.5 -200.5t-104.5 -177t-137.5 -128t-157.5 -48.5q-194 0 -316.5 141t-122.5 364q0 200 92 345q106 166 279 166q121 0 187 -82.5t66 -231.5q0 -105 -17 -158q-5 -16 -19.5 -24.5t-30.5 -6.5q-28 3 -30 26q-1 8 1 41
q0 6 0.5 20.5t0.5 21.5q0 118 -18.5 177.5t-67.5 99.5q-2 2 -7 0q-83 -35 -147 -149t-64 -262q0 -171 67 -288.5t165 -117.5q67 0 142 75t135 186.5t100 236.5q4 14 17 19.5t27 1.5z" />
    <glyph glyph-name="c" unicode="&#xe7;" horiz-adv-x="823" 
d="M864 676q15 -4 23.5 -16.5t4.5 -30.5q-23 -103 -67.5 -200.5t-104.5 -177t-137.5 -128t-157.5 -48.5q-194 0 -316.5 141t-122.5 364q0 200 92 345q106 166 279 166q121 0 187 -82.5t66 -231.5q0 -105 -17 -158q-5 -16 -19.5 -24.5t-30.5 -6.5q-28 3 -30 26q-1 8 1 41
q0 6 0.5 20.5t0.5 21.5q0 118 -18.5 177.5t-67.5 99.5q-2 2 -7 0q-83 -35 -147 -149t-64 -262q0 -171 67 -288.5t165 -117.5q67 0 142 75t135 186.5t100 236.5q4 14 17 19.5t27 1.5z" />
    <glyph glyph-name="d" unicode="d" horiz-adv-x="950" 
d="M995 689q13 -2 21 -13.5t4 -29.5q-62 -314 -138 -464t-173 -150q-76 0 -134 75t-90 189t-46 260q-6 -15 -16.5 -40.5t-14.5 -34.5q-23 -57 -34.5 -83.5t-32.5 -66t-38.5 -57t-43.5 -31t-56 -13.5q-97 0 -156 89.5t-59 234.5q0 171 67 282q74 123 214 123q47 0 92 -12.5
t71 -30.5q5 303 40 455q8 35 28.5 51t57.5 16q46 0 83 -18.5t41 -42.5q1 -11 -8 -90q-38 -348 -38 -613q0 -206 26 -361.5t69 -201.5h2q112 93 214 545q4 19 18.5 27.5t29.5 5.5zM222 339q37 40 85 155t78 209t30 105q0 9 -19 22t-31 13q-21 0 -48.5 -28t-52.5 -75
t-42.5 -118t-17.5 -146q0 -86 17 -137h1z" />
    <glyph glyph-name="e" unicode="e" horiz-adv-x="749" 
d="M793 676q33 -8 25 -49q-57 -268 -175.5 -415t-276.5 -147q-166 0 -271 129.5t-105 334.5q0 195 81.5 325t203.5 130q93 0 141 -59.5t48 -174.5q0 -85 -32 -159.5t-87 -117.5q-65 -52 -136 -36q1 -66 19.5 -131t57.5 -113t89 -48q53 0 105 33t92.5 85.5t75.5 120.5
t58.5 134t38.5 130q4 16 18.5 23.5t29.5 4.5zM329 878q-47 -42 -79 -143t-40 -227q41 -5 77 25q39 32 63 90.5t24 119.5q0 97 -44 136z" />
    <glyph glyph-name="e" unicode="&#xeb;" horiz-adv-x="749" 
d="M793 676q33 -8 25 -49q-57 -268 -175.5 -415t-276.5 -147q-166 0 -271 129.5t-105 334.5q0 195 81.5 325t203.5 130q93 0 141 -59.5t48 -174.5q0 -85 -32 -159.5t-87 -117.5q-65 -52 -136 -36q1 -66 19.5 -131t57.5 -113t89 -48q53 0 105 33t92.5 85.5t75.5 120.5
t58.5 134t38.5 130q4 16 18.5 23.5t29.5 4.5zM329 878q-47 -42 -79 -143t-40 -227q41 -5 77 25q39 32 63 90.5t24 119.5q0 97 -44 136z" />
    <glyph glyph-name="e" unicode="&#xea;" horiz-adv-x="749" 
d="M793 676q33 -8 25 -49q-57 -268 -175.5 -415t-276.5 -147q-166 0 -271 129.5t-105 334.5q0 195 81.5 325t203.5 130q93 0 141 -59.5t48 -174.5q0 -85 -32 -159.5t-87 -117.5q-65 -52 -136 -36q1 -66 19.5 -131t57.5 -113t89 -48q53 0 105 33t92.5 85.5t75.5 120.5
t58.5 134t38.5 130q4 16 18.5 23.5t29.5 4.5zM329 878q-47 -42 -79 -143t-40 -227q41 -5 77 25q39 32 63 90.5t24 119.5q0 97 -44 136z" />
    <glyph glyph-name="e" unicode="&#xe9;" horiz-adv-x="749" 
d="M793 676q33 -8 25 -49q-57 -268 -175.5 -415t-276.5 -147q-166 0 -271 129.5t-105 334.5q0 195 81.5 325t203.5 130q93 0 141 -59.5t48 -174.5q0 -85 -32 -159.5t-87 -117.5q-65 -52 -136 -36q1 -66 19.5 -131t57.5 -113t89 -48q53 0 105 33t92.5 85.5t75.5 120.5
t58.5 134t38.5 130q4 16 18.5 23.5t29.5 4.5zM329 878q-47 -42 -79 -143t-40 -227q41 -5 77 25q39 32 63 90.5t24 119.5q0 97 -44 136z" />
    <glyph glyph-name="e" unicode="&#xe8;" horiz-adv-x="749" 
d="M793 676q33 -8 25 -49q-57 -268 -175.5 -415t-276.5 -147q-166 0 -271 129.5t-105 334.5q0 195 81.5 325t203.5 130q93 0 141 -59.5t48 -174.5q0 -85 -32 -159.5t-87 -117.5q-65 -52 -136 -36q1 -66 19.5 -131t57.5 -113t89 -48q53 0 105 33t92.5 85.5t75.5 120.5
t58.5 134t38.5 130q4 16 18.5 23.5t29.5 4.5zM329 878q-47 -42 -79 -143t-40 -227q41 -5 77 25q39 32 63 90.5t24 119.5q0 97 -44 136z" />
    <glyph glyph-name="f" unicode="f" horiz-adv-x="563" 
d="M618 674q24 -22 12 -46q-20 -43 -141 -153t-178 -144q53 -18 94.5 -63t70.5 -136t29 -215q0 -353 -165 -353q-69 0 -130 65t-107 186q-105 283 -105 778q0 179 18.5 376.5t35.5 297.5q10 63 96 63q75 0 112 -40q21 -23 18 -50q-4 -47 -19 -169q-51 -414 -56 -714
q143 85 337 281q35 36 45 43q15 10 33 -7zM425 -100q0 157 -61 264t-135 107q-17 0 -27 -5q1 -172 43.5 -365t111.5 -261h4q28 15 46 88.5t18 171.5z" />
    <glyph glyph-name="g" unicode="g" horiz-adv-x="929" 
d="M999 643q5 -25 -17 -31q-169 -45 -321 -149q25 -155 25 -280q0 -335 -104 -535q-50 -97 -119 -148.5t-148 -51.5q-81 0 -134 81.5t-53 206.5q0 158 70 317t201 299q36 37 54 55q-20 130 -51 257q-12 -39 -32 -113q-15 -56 -23 -82.5t-23 -69.5t-28 -63.5t-32.5 -44
t-44 -33t-54.5 -9.5q-86 0 -138 73.5t-52 196.5q0 167 86 272.5t222 105.5q33 0 54 -7q-2 13 6 22q17 23 64 23q35 0 68.5 -12.5t52.5 -32.5q64 -68 117 -337q158 95 306 122q17 3 31 -7t17 -25zM180 358q46 65 92 214t59 220q-75 -24 -118 -123.5t-43 -216.5q0 -62 9 -94h1
zM316 -472q23 0 51.5 35.5t54.5 95t44 150t18 188.5q0 145 -17 300q-112 -119 -175 -261.5t-63 -294.5q0 -76 30.5 -144.5t56.5 -68.5z" />
    <glyph glyph-name="h" unicode="h" horiz-adv-x="808" 
d="M858 673q28 -8 21 -33q-125 -442 -264 -442q-33 0 -60.5 14t-54 48.5t-42 104t-15.5 168.5q0 49 5 121q6 90 5 111q-98 -104 -146.5 -274t-79.5 -448v-7q-1 -17 -15 -29t-36 -16q-8 -2 -13 -2q-49 0 -65 40q-44 109 -71 312t-27 427q0 234 41 541q9 68 87 68
q85 0 120 -43q20 -24 14 -59q-27 -145 -51 -373.5t-24 -388.5q0 -43 3 -90q21 90 48.5 169t63 146.5t81 107t93.5 39.5q71 0 109.5 -45t38.5 -130q0 -30 -13 -158q-14 -124 -14 -175q0 -66 25 -100h1q32 23 75 107t67.5 147.5t45.5 124.5q4 13 19 17.5t28 -0.5z" />
    <glyph glyph-name="i" unicode="i" horiz-adv-x="489" 
d="M148 878q-37 0 -63.5 27t-26.5 64q0 40 27 67t65 27q37 0 66 -26t29 -67q0 -40 -28 -66t-69 -26zM537 668q27 -6 22 -36q-52 -258 -134 -399t-180 -141q-118 0 -181.5 130t-63.5 374q0 150 26 210q14 33 82 33q51 0 86 -17.5t36 -43.5q0 -20 -6 -78q-16 -162 -16 -272
q0 -204 60 -260h1q65 40 123 164t99 311q3 14 17.5 21t28.5 4z" />
    <glyph glyph-name="i" unicode="&#xef;" horiz-adv-x="489" 
d="M148 878q-37 0 -63.5 27t-26.5 64q0 40 27 67t65 27q37 0 66 -26t29 -67q0 -40 -28 -66t-69 -26zM537 668q27 -6 22 -36q-52 -258 -134 -399t-180 -141q-118 0 -181.5 130t-63.5 374q0 150 26 210q14 33 82 33q51 0 86 -17.5t36 -43.5q0 -20 -6 -78q-16 -162 -16 -272
q0 -204 60 -260h1q65 40 123 164t99 311q3 14 17.5 21t28.5 4z" />
    <glyph glyph-name="i" unicode="&#xee;" horiz-adv-x="489" 
d="M148 878q-37 0 -63.5 27t-26.5 64q0 40 27 67t65 27q37 0 66 -26t29 -67q0 -40 -28 -66t-69 -26zM537 668q27 -6 22 -36q-52 -258 -134 -399t-180 -141q-118 0 -181.5 130t-63.5 374q0 150 26 210q14 33 82 33q51 0 86 -17.5t36 -43.5q0 -20 -6 -78q-16 -162 -16 -272
q0 -204 60 -260h1q65 40 123 164t99 311q3 14 17.5 21t28.5 4z" />
    <glyph glyph-name="i" unicode="&#xed;" horiz-adv-x="489" 
d="M148 878q-37 0 -63.5 27t-26.5 64q0 40 27 67t65 27q37 0 66 -26t29 -67q0 -40 -28 -66t-69 -26zM537 668q27 -6 22 -36q-52 -258 -134 -399t-180 -141q-118 0 -181.5 130t-63.5 374q0 150 26 210q14 33 82 33q51 0 86 -17.5t36 -43.5q0 -20 -6 -78q-16 -162 -16 -272
q0 -204 60 -260h1q65 40 123 164t99 311q3 14 17.5 21t28.5 4z" />
    <glyph glyph-name="i" unicode="&#xec;" horiz-adv-x="489" 
d="M148 878q-37 0 -63.5 27t-26.5 64q0 40 27 67t65 27q37 0 66 -26t29 -67q0 -40 -28 -66t-69 -26zM537 668q27 -6 22 -36q-52 -258 -134 -399t-180 -141q-118 0 -181.5 130t-63.5 374q0 150 26 210q14 33 82 33q51 0 86 -17.5t36 -43.5q0 -20 -6 -78q-16 -162 -16 -272
q0 -204 60 -260h1q65 40 123 164t99 311q3 14 17.5 21t28.5 4z" />
    <glyph glyph-name="j" unicode="j" horiz-adv-x="514" 
d="M-47 976q-39 0 -65 26t-26 65q0 41 28 67.5t63 26.5q40 0 68 -27t28 -65q0 -40 -27 -66.5t-69 -26.5zM584 652q7 -27 -16 -34q-174 -52 -320 -150q24 -150 24 -285q0 -313 -101 -518q-104 -212 -269 -212q-91 0 -140 85.5t-49 204.5q0 184 88.5 358t237.5 312
q-35 229 -116 472q-6 17 4 31q17 24 67 24q43 0 79 -18t56 -48q58 -91 103 -316q148 91 303 123q19 4 32.5 -5t16.5 -24zM-98 -467q21 0 49.5 36t55 95.5t45 148t18.5 181.5q0 163 -16 310q-115 -122 -178 -264.5t-63 -287.5q0 -85 31.5 -152t57.5 -67z" />
    <glyph glyph-name="k" unicode="k" horiz-adv-x="827" 
d="M878 677q28 -12 16 -42q-40 -105 -106.5 -199t-155.5 -157.5t-174 -63.5q-70 0 -144.5 31t-118.5 78q11 -153 34 -267q6 -31 -8 -52.5t-37 -30.5q-11 -4 -26 -4q-37 0 -52 29q-48 89 -77 311.5t-29 410.5q0 139 14.5 322.5t31.5 261.5q13 55 83 55q50 0 89.5 -22
t44.5 -47q4 -23 -20 -188q-56 -377 -56 -561v-27q86 62 185.5 228.5t139.5 316.5q12 45 46 45q28 0 53 -23t25 -45q0 -75 -64 -204t-160.5 -247t-177.5 -156v-1l1 -1q36 -62 93 -97.5t122 -35.5q50 0 104 32t103 86.5t92 117.5t80 134q6 11 21.5 14.5t27.5 -2.5z" />
    <glyph glyph-name="l" unicode="l" horiz-adv-x="516" 
d="M576 669q14 -12 9 -37q-25 -118 -48 -206t-52 -168t-59.5 -130t-69.5 -79.5t-83 -29.5q-128 0 -200.5 203t-72.5 563q0 453 42 592q16 48 83 48q40 0 78.5 -18t42.5 -42q2 -12 -8 -105q-36 -313 -36 -611q0 -205 27 -361t68 -191q0 1 1 1q53 35 112 186t105 366
q5 19 24 25q22 7 37 -6z" />
    <glyph glyph-name="m" unicode="m" horiz-adv-x="1333" 
d="M1378 671q12 -2 19 -10t6 -18q-11 -87 -39 -182t-67 -179t-92 -138.5t-107 -54.5q-37 0 -69.5 12.5t-55.5 30.5t-44 50t-33.5 57.5t-26.5 68t-20.5 66.5t-17.5 67q-20 82 -34 117q-33 -19 -126 -159q-5 -7 -13 -20.5t-12 -18.5h-1q-24 -40 -76 -34q-28 3 -49.5 20.5
t-24.5 46.5q-5 59 -5 286v5v36q0 144 -7 175h-1q-43 -49 -78.5 -119.5t-59.5 -156.5t-40.5 -157.5t-27.5 -164.5t-15.5 -132.5t-9.5 -104.5v-1q0 -13 -16 -23q-15 -9 -39 -9q-25 0 -42 13q-67 52 -110.5 209.5t-43.5 348.5q0 54 0.5 78t3.5 58.5t9 47.5t17 28t28.5 19.5
t42.5 4.5q47 0 86.5 -19t45.5 -44q5 -21 -6 -113q-10 -77 -12 -130q17 73 40 144.5t60 160t86.5 143t103.5 54.5q44 0 75.5 -18t48.5 -45.5t26.5 -74t12 -88t2.5 -104.5q0 -80 -1 -117q55 72 134 72q32 0 58.5 -10t46.5 -32t34 -43t27 -59t20 -62t18 -68q16 -62 25 -92
t29 -68t44 -54q1 0 1 1q1 0 2 1q45 29 108 155.5t117 320.5q8 32 45 26z" />
    <glyph glyph-name="n" unicode="n" horiz-adv-x="1007" 
d="M1053 671q31 -9 23 -41q-137 -530 -319 -530q-107 0 -163 105.5t-56 308.5q0 29 4 119q4 131 2 166q-141 -171 -290 -712q0 -20 -20 -34q-17 -11 -38 -11t-38 11q-67 46 -112.5 207t-45.5 354q0 130 15 184q15 51 88 51q48 0 87 -18.5t45 -44.5q3 -14 -6 -115
q-14 -145 -14 -201q0 -58 5 -133q77 264 166 429q101 186 186 186q93 0 126 -67t33 -205q0 -18 -7 -135q-7 -96 -7 -163q0 -167 48 -201h2q51 21 119.5 168t120.5 304q4 13 18 17.5t28 0.5z" />
    <glyph glyph-name="n" unicode="&#xf1;" horiz-adv-x="1007" 
d="M1053 671q31 -9 23 -41q-137 -530 -319 -530q-107 0 -163 105.5t-56 308.5q0 29 4 119q4 131 2 166q-141 -171 -290 -712q0 -20 -20 -34q-17 -11 -38 -11t-38 11q-67 46 -112.5 207t-45.5 354q0 130 15 184q15 51 88 51q48 0 87 -18.5t45 -44.5q3 -14 -6 -115
q-14 -145 -14 -201q0 -58 5 -133q77 264 166 429q101 186 186 186q93 0 126 -67t33 -205q0 -18 -7 -135q-7 -96 -7 -163q0 -167 48 -201h2q51 21 119.5 168t120.5 304q4 13 18 17.5t28 0.5z" />
    <glyph glyph-name="o" unicode="o" horiz-adv-x="929" 
d="M979 673q29 -14 20 -40q-30 -82 -126 -152t-224 -107q-37 -127 -103 -200.5t-149 -73.5q-92 0 -171 99t-92 227q-6 3 -7 4q-127 96 -127 264q0 158 100 275q103 120 250 120q64 0 122.5 -27.5t106.5 -80t76.5 -141t28.5 -200.5q0 -94 -15 -177q190 70 272 203q11 19 38 7
zM417 184q32 13 66.5 56.5t60.5 110.5q-109 -17 -209 -2q12 -59 33 -103.5t44 -60.5q1 -1 5 -1zM570 435q19 81 19 175q0 96 -23 174.5t-57.5 123t-69.5 68t-64 23.5q-77 0 -147 -91.5t-83 -195.5q0 1 1 3l1 2q14 54 87 54q39 0 75.5 -17t40.5 -38q5 -23 -10 -117
q-15 -103 -15 -151v-15q48 -12 107 -12q68 0 138 14z" />
    <glyph glyph-name="o" unicode="&#xf8;" horiz-adv-x="929" 
d="M979 673q29 -14 20 -40q-30 -82 -126 -152t-224 -107q-37 -127 -103 -200.5t-149 -73.5q-92 0 -171 99t-92 227q-6 3 -7 4q-127 96 -127 264q0 158 100 275q103 120 250 120q64 0 122.5 -27.5t106.5 -80t76.5 -141t28.5 -200.5q0 -94 -15 -177q190 70 272 203q11 19 38 7
zM417 184q32 13 66.5 56.5t60.5 110.5q-109 -17 -209 -2q12 -59 33 -103.5t44 -60.5q1 -1 5 -1zM570 435q19 81 19 175q0 96 -23 174.5t-57.5 123t-69.5 68t-64 23.5q-77 0 -147 -91.5t-83 -195.5q0 1 1 3l1 2q14 54 87 54q39 0 75.5 -17t40.5 -38q5 -23 -10 -117
q-15 -103 -15 -151v-15q48 -12 107 -12q68 0 138 14z" />
    <glyph glyph-name="o" unicode="&#xf6;" horiz-adv-x="929" 
d="M979 673q29 -14 20 -40q-30 -82 -126 -152t-224 -107q-37 -127 -103 -200.5t-149 -73.5q-92 0 -171 99t-92 227q-6 3 -7 4q-127 96 -127 264q0 158 100 275q103 120 250 120q64 0 122.5 -27.5t106.5 -80t76.5 -141t28.5 -200.5q0 -94 -15 -177q190 70 272 203q11 19 38 7
zM417 184q32 13 66.5 56.5t60.5 110.5q-109 -17 -209 -2q12 -59 33 -103.5t44 -60.5q1 -1 5 -1zM570 435q19 81 19 175q0 96 -23 174.5t-57.5 123t-69.5 68t-64 23.5q-77 0 -147 -91.5t-83 -195.5q0 1 1 3l1 2q14 54 87 54q39 0 75.5 -17t40.5 -38q5 -23 -10 -117
q-15 -103 -15 -151v-15q48 -12 107 -12q68 0 138 14z" />
    <glyph glyph-name="o" unicode="&#xf5;" horiz-adv-x="929" 
d="M979 673q29 -14 20 -40q-30 -82 -126 -152t-224 -107q-37 -127 -103 -200.5t-149 -73.5q-92 0 -171 99t-92 227q-6 3 -7 4q-127 96 -127 264q0 158 100 275q103 120 250 120q64 0 122.5 -27.5t106.5 -80t76.5 -141t28.5 -200.5q0 -94 -15 -177q190 70 272 203q11 19 38 7
zM417 184q32 13 66.5 56.5t60.5 110.5q-109 -17 -209 -2q12 -59 33 -103.5t44 -60.5q1 -1 5 -1zM570 435q19 81 19 175q0 96 -23 174.5t-57.5 123t-69.5 68t-64 23.5q-77 0 -147 -91.5t-83 -195.5q0 1 1 3l1 2q14 54 87 54q39 0 75.5 -17t40.5 -38q5 -23 -10 -117
q-15 -103 -15 -151v-15q48 -12 107 -12q68 0 138 14z" />
    <glyph glyph-name="o" unicode="&#xf4;" horiz-adv-x="929" 
d="M979 673q29 -14 20 -40q-30 -82 -126 -152t-224 -107q-37 -127 -103 -200.5t-149 -73.5q-92 0 -171 99t-92 227q-6 3 -7 4q-127 96 -127 264q0 158 100 275q103 120 250 120q64 0 122.5 -27.5t106.5 -80t76.5 -141t28.5 -200.5q0 -94 -15 -177q190 70 272 203q11 19 38 7
zM417 184q32 13 66.5 56.5t60.5 110.5q-109 -17 -209 -2q12 -59 33 -103.5t44 -60.5q1 -1 5 -1zM570 435q19 81 19 175q0 96 -23 174.5t-57.5 123t-69.5 68t-64 23.5q-77 0 -147 -91.5t-83 -195.5q0 1 1 3l1 2q14 54 87 54q39 0 75.5 -17t40.5 -38q5 -23 -10 -117
q-15 -103 -15 -151v-15q48 -12 107 -12q68 0 138 14z" />
    <glyph glyph-name="o" unicode="&#xf3;" horiz-adv-x="929" 
d="M979 673q29 -14 20 -40q-30 -82 -126 -152t-224 -107q-37 -127 -103 -200.5t-149 -73.5q-92 0 -171 99t-92 227q-6 3 -7 4q-127 96 -127 264q0 158 100 275q103 120 250 120q64 0 122.5 -27.5t106.5 -80t76.5 -141t28.5 -200.5q0 -94 -15 -177q190 70 272 203q11 19 38 7
zM417 184q32 13 66.5 56.5t60.5 110.5q-109 -17 -209 -2q12 -59 33 -103.5t44 -60.5q1 -1 5 -1zM570 435q19 81 19 175q0 96 -23 174.5t-57.5 123t-69.5 68t-64 23.5q-77 0 -147 -91.5t-83 -195.5q0 1 1 3l1 2q14 54 87 54q39 0 75.5 -17t40.5 -38q5 -23 -10 -117
q-15 -103 -15 -151v-15q48 -12 107 -12q68 0 138 14z" />
    <glyph glyph-name="o" unicode="&#xf2;" horiz-adv-x="929" 
d="M979 673q29 -14 20 -40q-30 -82 -126 -152t-224 -107q-37 -127 -103 -200.5t-149 -73.5q-92 0 -171 99t-92 227q-6 3 -7 4q-127 96 -127 264q0 158 100 275q103 120 250 120q64 0 122.5 -27.5t106.5 -80t76.5 -141t28.5 -200.5q0 -94 -15 -177q190 70 272 203q11 19 38 7
zM417 184q32 13 66.5 56.5t60.5 110.5q-109 -17 -209 -2q12 -59 33 -103.5t44 -60.5q1 -1 5 -1zM570 435q19 81 19 175q0 96 -23 174.5t-57.5 123t-69.5 68t-64 23.5q-77 0 -147 -91.5t-83 -195.5q0 1 1 3l1 2q14 54 87 54q39 0 75.5 -17t40.5 -38q5 -23 -10 -117
q-15 -103 -15 -151v-15q48 -12 107 -12q68 0 138 14z" />
    <glyph glyph-name="p" unicode="p" horiz-adv-x="948" 
d="M980 681q19 -2 29 -14.5t9 -27.5q-1 -12 -10 -20.5t-24 -7.5q-105 4 -207 -14q-6 -167 -120 -307q-56 -69 -124.5 -108t-132.5 -39t-99.5 39.5t-35.5 110.5q0 121 114 223q80 70 200 115q2 28 2 40q0 129 -40 198l-3 1h-4q-54 0 -112 -58q-87 -88 -149.5 -275.5
t-61.5 -423.5q15 -164 46 -290q13 -53 -27 -76q-15 -9 -33 -9t-31 11q-74 71 -120 323.5t-46 522.5q0 288 27 400q13 53 78 53q47 0 82.5 -18t40.5 -44q3 -14 -9 -143q-1 -9 -6.5 -61.5t-7.5 -83.5q51 116 131 199t159 83q119 0 198 -96q66 -79 81 -205q112 15 206 2z
M388 236q58 23 104 106t70 186q-67 -34 -112 -78q-76 -73 -76 -155q0 -43 10 -58q1 -1 4 -1z" />
    <glyph glyph-name="q" unicode="q" horiz-adv-x="915" 
d="M963 671q14 -2 23.5 -11.5t7.5 -24.5q-46 -367 -112 -695.5t-132 -438.5q-28 -48 -96 -48q-120 0 -191 216q-75 225 -75 621q0 106 2 159q-5 -12 -13 -34q-52 -131 -86 -176.5t-103 -45.5q-86 0 -147 82.5t-61 240.5q0 182 83.5 300.5t211.5 118.5q41 0 80.5 -11.5
t59.5 -28.5v7q3 73 91 73q49 0 85.5 -22t40.5 -54q2 -20 -11 -186q-31 -398 -31 -574q0 -216 24.5 -392t58.5 -210q55 67 126.5 433.5t113.5 667.5q2 18 17 26.5t33 6.5zM205 308q43 51 109 240t68 217q0 5 -14.5 24.5t-23.5 26.5h-2q-2 1 -3 1t-3 -1h-2
q-66 -41 -105.5 -143.5t-39.5 -232.5q0 -81 16 -132z" />
    <glyph glyph-name="r" unicode="r" horiz-adv-x="753" 
d="M822 657q9 -21 -4 -37q-8 -12 -43 -18.5t-65 -6.5q-152 0 -274 95q-59 -67 -112.5 -237t-69.5 -378v-3q3 -16 -16 -27q-15 -9 -36 -9q-27 0 -44 16q-62 56 -110 213t-48 352q0 57 5.5 148.5t8.5 114.5q3 20 25.5 32.5t56.5 12.5q49 0 91 -21.5t46 -48.5q1 -12 -5 -71
q-19 -179 -19 -278q0 -7 0.5 -20.5t0.5 -20.5q20 66 39.5 116t44.5 97.5t55 73t63 25.5q20 0 39.5 -7t31 -13.5t33.5 -21.5q33 -21 51.5 -31.5t60.5 -22t92 -11.5q26 0 53 5q18 2 20 2q21 -2 29 -20z" />
    <glyph glyph-name="s" unicode="s" horiz-adv-x="888" 
d="M941 674q26 -15 15 -37q-55 -112 -148 -189t-219 -144q32 -45 32 -105q0 -81 -91 -162.5t-197 -81.5q-60 0 -99.5 31.5t-39.5 79.5q0 44 15.5 79t48.5 63.5t66.5 48.5t88.5 47q-37 21 -109 49q-41 17 -60.5 25t-58 27.5t-59 34.5t-48.5 40t-42.5 50.5t-25 61t-10.5 75.5
q0 66 31 136t82 127t123 94t147 37q111 0 197 -70t86 -189q0 -65 -27.5 -129.5t-55.5 -64.5q-22 0 -36 21q-10 13 -5 29q23 69 23 118q0 53 -16.5 92.5t-40.5 54.5q-2 2 -8 2q-90 -4 -188.5 -112.5t-98.5 -217.5q0 -25 11 -47t25 -36.5t43 -31.5t48 -26t56 -25
q98 -44 133 -68q113 59 203 129.5t160 179.5q6 10 21.5 10.5t27.5 -6.5zM298 44q56 2 119.5 59.5t63.5 112.5q0 16 -6 29q-91 -48 -136 -88t-45 -91q0 -14 3 -22h1z" />
    <glyph glyph-name="t" unicode="t" horiz-adv-x="514" 
d="M556 679q14 -2 22.5 -13t4.5 -28q-22 -118 -49 -217t-65 -194.5t-89 -150t-108 -54.5q-129 0 -202 204.5t-73 565.5q0 154 6 276q-80 -5 -188 -16h-5q-29 0 -35 30q-2 15 4.5 28t21.5 17q34 10 207 20q9 131 26 215q14 66 87 66q49 0 83.5 -18t40.5 -42q3 -10 -8 -106
q-1 -12 -5.5 -48t-6.5 -59q148 3 201 -5q16 -2 26 -16t8 -29q-2 -25 -28 -25q-80 1 -214 -2q-19 -218 -19 -422q0 -238 28.5 -379t66.5 -177h2q61 41 120 209.5t97 343.5q4 16 16 22t27 4z" />
    <glyph glyph-name="u" unicode="u" horiz-adv-x="952" 
d="M1010 656q20 -18 15 -46q-15 -86 -40.5 -174t-64.5 -177t-95 -145t-119 -56q-58 0 -110 38.5t-90 110.5q-66 125 -69 284q-29 -84 -50.5 -136t-50 -99.5t-61 -69t-72.5 -21.5q-92 0 -148.5 110t-56.5 288q0 142 24 235q2 7 5.5 13.5t12 16t25.5 15.5t39 6q75 0 110 -38
q22 -24 19 -53q0 -2 -11 -97q-20 -156 -20 -256q0 -120 18 -148h1q97 59 232 584q0 2 0.5 4.5t0.5 3.5q7 58 88 58t119 -43q23 -26 18 -59q-29 -209 -29 -362q0 -123 23 -215.5t49 -92.5q21 0 55.5 46t69 116t63.5 161.5t39 173.5q3 23 22 31q21 8 39 -7z" />
    <glyph glyph-name="u" unicode="&#xfc;" horiz-adv-x="952" 
d="M1010 656q20 -18 15 -46q-15 -86 -40.5 -174t-64.5 -177t-95 -145t-119 -56q-58 0 -110 38.5t-90 110.5q-66 125 -69 284q-29 -84 -50.5 -136t-50 -99.5t-61 -69t-72.5 -21.5q-92 0 -148.5 110t-56.5 288q0 142 24 235q2 7 5.5 13.5t12 16t25.5 15.5t39 6q75 0 110 -38
q22 -24 19 -53q0 -2 -11 -97q-20 -156 -20 -256q0 -120 18 -148h1q97 59 232 584q0 2 0.5 4.5t0.5 3.5q7 58 88 58t119 -43q23 -26 18 -59q-29 -209 -29 -362q0 -123 23 -215.5t49 -92.5q21 0 55.5 46t69 116t63.5 161.5t39 173.5q3 23 22 31q21 8 39 -7z" />
    <glyph glyph-name="u" unicode="&#xfb;" horiz-adv-x="952" 
d="M1010 656q20 -18 15 -46q-15 -86 -40.5 -174t-64.5 -177t-95 -145t-119 -56q-58 0 -110 38.5t-90 110.5q-66 125 -69 284q-29 -84 -50.5 -136t-50 -99.5t-61 -69t-72.5 -21.5q-92 0 -148.5 110t-56.5 288q0 142 24 235q2 7 5.5 13.5t12 16t25.5 15.5t39 6q75 0 110 -38
q22 -24 19 -53q0 -2 -11 -97q-20 -156 -20 -256q0 -120 18 -148h1q97 59 232 584q0 2 0.5 4.5t0.5 3.5q7 58 88 58t119 -43q23 -26 18 -59q-29 -209 -29 -362q0 -123 23 -215.5t49 -92.5q21 0 55.5 46t69 116t63.5 161.5t39 173.5q3 23 22 31q21 8 39 -7z" />
    <glyph glyph-name="u" unicode="&#xfa;" horiz-adv-x="952" 
d="M1010 656q20 -18 15 -46q-15 -86 -40.5 -174t-64.5 -177t-95 -145t-119 -56q-58 0 -110 38.5t-90 110.5q-66 125 -69 284q-29 -84 -50.5 -136t-50 -99.5t-61 -69t-72.5 -21.5q-92 0 -148.5 110t-56.5 288q0 142 24 235q2 7 5.5 13.5t12 16t25.5 15.5t39 6q75 0 110 -38
q22 -24 19 -53q0 -2 -11 -97q-20 -156 -20 -256q0 -120 18 -148h1q97 59 232 584q0 2 0.5 4.5t0.5 3.5q7 58 88 58t119 -43q23 -26 18 -59q-29 -209 -29 -362q0 -123 23 -215.5t49 -92.5q21 0 55.5 46t69 116t63.5 161.5t39 173.5q3 23 22 31q21 8 39 -7z" />
    <glyph glyph-name="u" unicode="&#xf9;" horiz-adv-x="952" 
d="M1010 656q20 -18 15 -46q-15 -86 -40.5 -174t-64.5 -177t-95 -145t-119 -56q-58 0 -110 38.5t-90 110.5q-66 125 -69 284q-29 -84 -50.5 -136t-50 -99.5t-61 -69t-72.5 -21.5q-92 0 -148.5 110t-56.5 288q0 142 24 235q2 7 5.5 13.5t12 16t25.5 15.5t39 6q75 0 110 -38
q22 -24 19 -53q0 -2 -11 -97q-20 -156 -20 -256q0 -120 18 -148h1q97 59 232 584q0 2 0.5 4.5t0.5 3.5q7 58 88 58t119 -43q23 -26 18 -59q-29 -209 -29 -362q0 -123 23 -215.5t49 -92.5q21 0 55.5 46t69 116t63.5 161.5t39 173.5q3 23 22 31q21 8 39 -7z" />
    <glyph glyph-name="v" unicode="v" horiz-adv-x="757" 
d="M787 670q19 0 30 -10t11 -23q0 -16 -14 -27q-15 -12 -41 -12q-150 0 -227 26q-50 -585 -259 -585q-150 0 -225 215q-62 175 -62 442v13q0 74 3 109q6 61 87 61q44 0 84.5 -20.5t44.5 -47.5q4 -31 -2 -132q-4 -70 -4 -98q0 -154 31 -294.5t65 -161.5q58 38 101.5 203.5
t47.5 329.5q1 23 18 39.5t40 16.5q8 0 36 -10q84 -34 235 -34z" />
    <glyph glyph-name="w" unicode="w" horiz-adv-x="1196" 
d="M1266 652q5 -25 -16 -37q-11 -6 -69.5 -13t-93.5 -7q-65 0 -113 12l-1 1q4 -56 4 -96q0 -136 -29.5 -262.5t-85.5 -210t-125 -83.5q-105 0 -188 122t-111 311q-25 -71 -40 -109t-39.5 -88.5t-46 -75.5t-52.5 -43.5t-67 -18.5q-89 0 -155.5 98t-66.5 268q0 96 13.5 197
t31.5 142q20 45 85 45q84 0 117 -43q17 -23 11 -49l-3 -9q-56 -211 -56 -382q0 -56 12.5 -107t27.5 -68q2 -2 6 0q28 13 71.5 108.5t83 232.5t53.5 254q0 93 9 147q15 82 93 82q54 0 85 -25t34 -60q1 -8 -3 -141q-4 -156 -4 -226q0 -198 35 -321.5t76 -151.5q3 0 4 1
q59 58 97.5 211.5t38.5 332.5v14q0 60 13 73q12 12 35 12q11 0 45 -6q65 -10 96 -10q47 0 89 3q60 4 72 2q22 -3 27 -26z" />
    <glyph glyph-name="x" unicode="x" horiz-adv-x="782" 
d="M842 656q16 -16 10 -40q-21 -85 -42 -153.5t-55 -149t-71 -135t-89.5 -91t-111.5 -36.5q-164 0 -306 194q-142 -233 -156 -251q-11 -15 -28 -15q-11 0 -19 4q-14 6 -22.5 18t-6.5 23q10 52 165 330q-110 205 -141 469q-3 27 14 47q24 27 77 27q117 0 141 -119
q22 -103 45 -187q171 291 208 326q14 14 38 14q29 0 56 -21q28 -23 13 -44q-40 -61 -266 -429q51 -142 106.5 -221t105.5 -79q36 0 77 49t77 126.5t66 163.5t50 169q5 17 21 21q27 7 44 -10z" />
    <glyph glyph-name="y" unicode="y" horiz-adv-x="976" 
d="M1046 641q6 -23 -14 -30q-170 -55 -322 -156q24 -152 24 -278q0 -311 -98 -516q-102 -215 -273 -215q-85 0 -135.5 78.5t-50.5 209.5q0 184 87.5 357.5t235.5 311.5q-21 141 -52 266q-74 -441 -249 -441q-89 0 -150 99t-61 242q0 109 35 233q13 43 75 43q39 0 71 -15
t47 -35q14 -18 9 -35l-2 -6q-45 -148 -45 -267q0 -67 10 -116t23 -62h3q61 31 115 205t59 355q-7 22 4 40q15 23 61 23q87 0 128 -51q64 -77 113 -331q153 93 304 124q16 4 30 -6.5t18 -26.5zM364 -474q34 0 73 62t67.5 174.5t28.5 235.5q0 135 -18 292
q-114 -122 -176.5 -263t-62.5 -287q0 -80 31.5 -147t56.5 -67z" />
    <glyph glyph-name="y" unicode="&#xff;" horiz-adv-x="976" 
d="M1046 641q6 -23 -14 -30q-170 -55 -322 -156q24 -152 24 -278q0 -311 -98 -516q-102 -215 -273 -215q-85 0 -135.5 78.5t-50.5 209.5q0 184 87.5 357.5t235.5 311.5q-21 141 -52 266q-74 -441 -249 -441q-89 0 -150 99t-61 242q0 109 35 233q13 43 75 43q39 0 71 -15
t47 -35q14 -18 9 -35l-2 -6q-45 -148 -45 -267q0 -67 10 -116t23 -62h3q61 31 115 205t59 355q-7 22 4 40q15 23 61 23q87 0 128 -51q64 -77 113 -331q153 93 304 124q16 4 30 -6.5t18 -26.5zM364 -474q34 0 73 62t67.5 174.5t28.5 235.5q0 135 -18 292
q-114 -122 -176.5 -263t-62.5 -287q0 -80 31.5 -147t56.5 -67z" />
    <glyph glyph-name="y" unicode="&#xfd;" horiz-adv-x="976" 
d="M1046 641q6 -23 -14 -30q-170 -55 -322 -156q24 -152 24 -278q0 -311 -98 -516q-102 -215 -273 -215q-85 0 -135.5 78.5t-50.5 209.5q0 184 87.5 357.5t235.5 311.5q-21 141 -52 266q-74 -441 -249 -441q-89 0 -150 99t-61 242q0 109 35 233q13 43 75 43q39 0 71 -15
t47 -35q14 -18 9 -35l-2 -6q-45 -148 -45 -267q0 -67 10 -116t23 -62h3q61 31 115 205t59 355q-7 22 4 40q15 23 61 23q87 0 128 -51q64 -77 113 -331q153 93 304 124q16 4 30 -6.5t18 -26.5zM364 -474q34 0 73 62t67.5 174.5t28.5 235.5q0 135 -18 292
q-114 -122 -176.5 -263t-62.5 -287q0 -80 31.5 -147t56.5 -67z" />
    <glyph glyph-name="z" unicode="z" horiz-adv-x="856" 
d="M904 682q27 -8 22 -39q-10 -55 -41.5 -111.5t-90.5 -120.5t-106.5 -108.5t-132.5 -119.5q78 -91 78 -239q0 -89 -35.5 -179.5t-99.5 -166.5q-62 -73 -138.5 -115t-148.5 -42q-85 0 -126 55t-41 133q0 57 20.5 115t50 105t82.5 104t96 96.5t111 98.5q-34 52 -88 52
q-48 0 -132 -25q-23 -7 -36 -7q-36 0 -60 15.5t-32 37.5q-11 32 17 53q120 90 215 241.5t95 252.5q0 49 -13.5 79.5t-31.5 30.5q-52 0 -111.5 -45t-97 -103.5t-37.5 -100.5q0 -11 -12 -18t-27 -7q-22 0 -36 10q-17 12 -17 35q0 72 42 148t115 128t151 52q117 0 190.5 -75.5
t73.5 -194.5q0 -88 -62 -201t-152 -206q83 -25 143 -68q133 116 221.5 216.5t135.5 212.5q6 14 19.5 19.5t26.5 1.5zM356 -345q92 141 92 297q0 69 -14 123q-66 -60 -113 -109.5t-90.5 -106.5t-66 -114t-22.5 -111q0 -47 14.5 -79t31.5 -32q38 0 83 35.5t85 96.5z" />
    <glyph glyph-name="braceleft" unicode="{" horiz-adv-x="579" 
d="M432 2q20 0 32.5 -10t12.5 -26q0 -24 -35 -46t-80 -22q-93 0 -150.5 97.5t-57.5 257.5q0 40 8 124q5 56 6.5 86t-0.5 73t-13.5 71t-33.5 45q-14 10 -18 29q-6 28 13 40q53 33 53 136q0 52 -7 124q-7 73 -7 137q0 164 56.5 262t150.5 98q45 0 79.5 -22t34.5 -46
q0 -14 -13 -25t-28 -11q-2 0 -8 2q-7 2 -9 1q-17 -8 -33 -65.5t-16 -132.5q0 -55 11 -178q9 -103 9 -123q0 -119 -76 -186q-1 0 -2 -1l-2 -2q35 -28 54 -66t22.5 -92.5t1.5 -90.5t-9 -105q-10 -96 -10 -142q0 -63 13.5 -118t35.5 -77q1 -1 6 1z" />
    <glyph glyph-name="verticalbar" unicode="|" horiz-adv-x="468" 
d="M346 1351q27 -31 19 -72q-24 -136 -49.5 -376t-25.5 -418q0 -273 40 -469q9 -44 -14 -72q-19 -24 -52 -24q-21 0 -41 16t-28 37q-31 78 -62 302t-31 437q0 142 15 340.5t28 271.5q13 71 86 71q77 0 115 -44z" />
    <glyph glyph-name="braceright" unicode="}" horiz-adv-x="579" 
d="M476 696q7 -28 -13 -41q-53 -33 -53 -136q0 -52 7 -124q7 -74 7 -137q0 -164 -57 -262t-152 -98q-49 0 -80.5 22t-31.5 46q0 15 11.5 24.5t29.5 9.5q1 0 3 -0.5t3 -0.5q9 0 11 1q18 9 34.5 64t16.5 133q0 44 -10 142q-11 112 -11 160q0 121 76 186l3 3q-35 28 -54 66
t-22.5 92.5t-1.5 90.5t9 105q10 96 10 141q0 63 -13.5 118.5t-35.5 77.5q-1 1 -4 -1q-9 -3 -11 -3q-20 0 -32.5 9.5t-12.5 25.5q0 27 35 48t80 21q93 0 150.5 -98t57.5 -258q0 -40 -8 -124q-5 -56 -6.5 -86t0.5 -73t13.5 -71t33.5 -45q14 -10 18 -28z" />
    <glyph glyph-name="asciitilde" unicode="~" horiz-adv-x="1128" 
d="M1005 781q29 -14 18 -43q-37 -101 -106.5 -173.5t-156.5 -72.5q-53 0 -107.5 27.5t-83.5 53.5t-73 70q-24 24 -36.5 35.5t-28 22t-25.5 10.5q-42 0 -109.5 -57.5t-102.5 -117.5q-18 -29 -56 -13q-18 7 -28.5 21.5t-6.5 32.5q16 70 101.5 152t174.5 82q49 0 95 -15.5
t87 -46.5t64.5 -53t57.5 -58q53 -57 68 -57q25 0 51.5 16.5t54.5 50t45 56.5t43 61l6 7q9 12 25 14t29 -5z" />
    <glyph glyph-name="nonbreakingspace" unicode="&#xa0;" horiz-adv-x="571" 
 />
    <glyph glyph-name="exclamdown" unicode="&#xa1;" horiz-adv-x="452" 
d="M226 1233q-41 0 -64.5 25.5t-23.5 59.5q0 36 25.5 60.5t62.5 24.5q34 0 59.5 -25.5t25.5 -59.5q0 -33 -23.5 -59t-61.5 -26zM288 1172q62 -148 62 -693q0 -137 -9.5 -287.5t-22.5 -213.5q-6 -31 -32 -46.5t-60 -15.5q-7 0 -23 2q-45 7 -75.5 37t-24.5 75
q15 122 37.5 421.5t22.5 474.5q0 119 -4 208q-1 36 20 59q21 21 50 21q20 0 36.5 -14t22.5 -28z" />
    <glyph glyph-name="cent" unicode="&#xa2;" horiz-adv-x="999" 
d="M891 1319q12 -23 0 -40q-57 -80 -177 -301q60 -81 60 -189q0 -49 -10 -74q-9 -23 -41 -23h-9q-33 5 -35 38q-4 73 -28 131q-139 -262 -267 -535q46 -49 104 -49q48 0 147 54q30 18 45 22q25 7 43 -16q13 -16 3 -35q-16 -28 -99.5 -69t-151.5 -41q-73 0 -140 28
q-65 -144 -94 -232q-16 -49 -67 -49q-5 0 -15 2q-21 4 -35 20.5t-11 44.5q8 85 91 307q-102 114 -102 288q0 204 112 347q110 141 268 141q36 0 67 -6q113 217 162 264l8 8q25 27 55 27q39 0 71.5 -19t45.5 -44zM305 563q96 222 179 391q-73 -35 -125.5 -154t-53.5 -237z
" />
    <glyph glyph-name="sterling" unicode="&#xa3;" horiz-adv-x="905" 
d="M759 60q21 0 32 -15t11 -36q0 -40 -49.5 -72.5t-122.5 -32.5q-66 0 -191 17q-91 13 -140 13q-53 0 -93 -12q-29 -10 -43 17q-13 24 -4 47q23 61 35 114.5t12.5 114.5t-2 100.5t-10.5 121.5q-8 83 -15 177q-12 0 -23.5 -0.5t-17.5 -1.5h-5q-15 0 -23 11t-8 26t7.5 26.5
t20.5 11.5l15 1h30q-3 63 -3 138q0 107 15.5 203.5t47 179.5t88 132t131.5 49q72 0 120 -39t66.5 -94t18.5 -121q0 -104 -46 -104q-20 0 -31 12q-7 8 -7 21q3 65 -20 131t-54 94h-2q-129 -77 -129 -537q0 -11 0.5 -31t0.5 -30h56q15 -1 23.5 -13.5t7.5 -26.5q-1 -13 -9 -22
t-21 -9l-7 -1q-7 0 -21 -0.5t-28 -0.5q2 -48 3 -83q3 -110 3 -194.5t-18.5 -165t-58.5 -154.5h21q68 0 181 -13q72 -9 106 -9q30 0 58.5 5.5t43.5 12t16 10.5q5 32 32 32z" />
    <glyph glyph-name="currency" unicode="&#xa4;" horiz-adv-x="919" 
d="M815 928q-4 -11 -41 -51.5t-58 -58.5q27 -78 27 -181q0 -191 -89 -307q67 -79 76 -97q6 -11 -2 -24q-14 -23 -36 -23q-18 0 -48 25t-55 55q-67 -47 -150 -47q-95 0 -166 64q-52 -70 -73 -76q-6 -2 -10 -2q-16 0 -31 12q-16 13 -14 32q1 13 27.5 49t42.5 53
q-77 118 -77 277q0 111 41 201q-16 17 -43.5 52t-30.5 45q-7 19 4 33q12 18 43 18q25 0 42 -15t37 -49q77 93 171 93h9q21 11 66 11q125 0 199 -114q55 79 89 79q28 0 45 -24q11 -16 5 -30zM473 307q63 0 118 105t55 225t-50 213t-114 93h-6q-1 -9 -8 -17
q-121 -155 -121 -353q0 -101 39 -183.5t87 -82.5z" />
    <glyph glyph-name="yen" unicode="&#xa5;" horiz-adv-x="911" 
d="M776 1375q16 -3 26 -17t7 -35q-22 -146 -90 -358t-140 -322q73 -4 80 -5q14 -3 22.5 -16.5t6.5 -28.5q-3 -30 -29 -28q-60 2 -127 2v-46h53q16 -1 25.5 -13.5t8.5 -28.5q-2 -31 -27 -31q-36 0 -61 -1v-5q-2 -397 -8 -442q-3 -25 -20.5 -41.5t-43.5 -19.5h-8q-52 0 -68 46
q-21 60 -32 456q-56 -2 -70 -2h-1q-31 0 -35 33q-2 15 5.5 28t21.5 16l77 4q0 8 -0.5 23t-0.5 22q-43 -1 -84 -5q-1 0 -3 -0.5t-3 -0.5q-31 0 -37 30q-3 15 5 30t24 19q19 5 80 7q-83 95 -141.5 271t-84.5 348q-6 40 14 63q25 29 92 29q54 0 87 -20t35 -47
q9 -93 63.5 -322.5t92.5 -280.5h2q110 112 238 657q4 18 18.5 26.5t29.5 5.5z" />
    <glyph glyph-name="section" unicode="&#xa7;" horiz-adv-x="1044" 
d="M943 423q0 -74 -34 -114q33 -56 33 -112q0 -55 -32.5 -108t-91.5 -94q-126 -87 -303 -87q-133 0 -229 47.5t-119 125.5q-5 17 4 30q13 18 40 18q16 0 45 -33q22 -25 38 -40t58 -31.5t94 -16.5q114 0 205.5 60.5t91.5 152.5q0 30 -10 56.5t-33 49.5t-44 40t-62 37.5
t-65.5 32t-74.5 32.5t-75 32.5t-69.5 33.5t-68 38.5t-54.5 43.5t-46.5 52.5t-27 60t-11.5 72.5q0 22 8.5 62.5t17.5 53.5q-26 52 -26 110q0 70 35.5 134.5t101.5 114.5q131 100 307 100q157 0 248.5 -67.5t91.5 -183.5q0 -38 -16 -76t-33 -45q-24 -10 -46 9q-21 18 -15 45
q8 34 8 65q0 69 -37 105t-107 36q-76 0 -154 -38.5t-131 -105.5t-53 -140q0 -32 15 -60t34 -46.5t58.5 -39.5t66 -32t80.5 -32q56 -21 104 -42q117 -52 200 -133t83 -173zM612 526q69 -29 131 -65q-1 24 -10.5 45.5t-21.5 38.5t-37 35t-43 29.5t-53.5 28.5t-55.5 25.5
t-61 25.5q-107 44 -159 72q1 -35 15.5 -63.5t32 -46.5t54 -38t60.5 -29.5t73 -28.5q40 -15 75 -29z" />
    <glyph glyph-name="copyright" unicode="&#xa9;" horiz-adv-x="1280" 
d="M840 417q24 -16 18 -37q-9 -30 -76.5 -66.5t-122.5 -36.5q-141 0 -228 92t-87 242q0 183 88 300t199 117q83 0 147.5 -50.5t64.5 -131.5q0 -92 -47 -92q-18 0 -32 11.5t-15 26.5q-2 47 -19 88.5t-35 41.5q-10 0 -27.5 -17t-38 -50.5t-38.5 -76t-30.5 -100.5t-12.5 -117
q0 -93 32 -147t87 -54q20 0 64 21.5t64 38.5q18 15 45 -3zM1032 1117q146 -185 146 -450q0 -140 -42 -267t-120 -225q-77 -97 -177 -148t-210 -51q-143 0 -264.5 86.5t-192 234.5t-70.5 323q0 144 44 273t126 226q76 91 176.5 140.5t205.5 49.5q110 0 207.5 -49.5
t170.5 -142.5zM640 51q80 0 160 44t144 120t104.5 189t40.5 240q0 255 -134 428q-60 77 -136 119.5t-155 42.5q-80 0 -159.5 -45t-142.5 -123.5t-102 -195.5t-39 -250q0 -149 58 -280.5t155 -210t206 -78.5z" />
    <glyph glyph-name="softhyphen" unicode="&#xad;" 
 />
    <glyph glyph-name="registered" unicode="&#xae;" horiz-adv-x="1280" 
d="M964 806q0 -60 -29 -112.5t-74.5 -87.5t-95.5 -57t-97 -28q34 -43 97.5 -69.5t122.5 -30.5q17 -1 26.5 -12.5t8.5 -25.5t-11.5 -24.5t-28.5 -10.5q-60 0 -145 21t-140 70q-6 -34 -8 -56q1 -8 2.5 -15t3 -14.5t2.5 -10.5q13 -50 -31 -73q-16 -8 -37 -8q-36 0 -56 23
q-35 43 -62.5 178.5t-27.5 299.5q0 137 15 201q4 14 24 23.5t48 9.5q80 0 116 -44q16 -21 12 -40q-9 -49 -18 -131q93 208 208 208q78 0 126.5 -56t48.5 -128zM630 604q69 24 119 85t50 143q0 49 -8 57q-2 2 -4 2h-1q-100 -69 -156 -287zM1020 1131q76 -89 116.5 -209.5
t40.5 -258.5q0 -143 -43 -271t-123 -225q-76 -91 -175 -141.5t-203 -50.5q-144 0 -266 85.5t-193.5 233t-71.5 321.5q0 142 42.5 270t121.5 226q78 96 177.5 147t207.5 51q105 0 200.5 -46t168.5 -132zM952 227q66 86 102.5 194.5t36.5 220.5q0 252 -134 427
q-60 78 -136.5 121t-155.5 43q-118 0 -220.5 -83t-162.5 -223.5t-60 -303.5q0 -236 127 -406q59 -79 135.5 -123t155.5 -44q84 0 165.5 46.5t146.5 130.5z" />
    <glyph glyph-name="plusminus" unicode="&#xb1;" horiz-adv-x="679" 
d="M551 804q14 -4 20.5 -18t4.5 -29q-3 -25 -22 -25q-14 0 -116 -2q-4 -98 -1 -161q3 -76 -53 -96q-13 -5 -26 -5q-36 0 -55 26q-16 22 -32.5 89t-24.5 144q-57 -1 -108 -1q-16 0 -25.5 11.5t-10.5 26.5q-1 17 9 30.5t29 15.5l100 2v18q0 78 10 140q4 26 28.5 41.5
t61.5 15.5q66 0 96 -33q18 -19 16 -46l-1 -16q-5 -56 -9 -120q88 -2 109 -8zM523 430q19 -6 28 -19.5t7 -27.5q-5 -29 -37 -29q-46 0 -91 1q-248 5 -280 4q-14 -1 -23 9.5t-10 24.5q-2 16 7 29.5t28 15.5q20 2 136 2q202 0 235 -10z" />
    <glyph glyph-name="acute" unicode="&#xb4;" horiz-adv-x="532" 
d="M419 1363q16 -19 10 -48q-3 -12 -44.5 -84t-79 -134.5t-41.5 -68.5q-21 -34 -67 -34q-27 0 -53 13t-36 32t-2 38q1 1 22 59t44.5 124t28.5 84q8 26 34 41t65 15q90 0 119 -37z" />
    <glyph glyph-name="paragraph" unicode="&#xb6;" horiz-adv-x="1216" 
d="M1078 1422q22 -10 30 -31t3 -44q-4 -15 -12 -24.5t-18 -8.5q-34 2 -130 0q6 -15 3 -33q-23 -131 -49 -381.5t-26 -408.5q0 -116 13.5 -265.5t27.5 -213.5q8 -32 -5 -54.5t-34 -32.5q-10 -5 -28 -5q-38 0 -60 33q-33 47 -68 287t-35 483q0 146 15 333t27 252
q-74 -2 -109 -4q5 -19 1 -38q-22 -120 -44 -306q-31 -263 -31 -497q0 -105 11 -241t29 -220q8 -37 -5.5 -59t-36.5 -30q-14 -4 -21 -4q-49 0 -71 47q-37 82 -65.5 323.5t-28.5 436.5v32q-87 2 -173 83.5t-86 197.5q0 69 28.5 133t75.5 111.5t103.5 82.5t117.5 54h1l2 1
q77 27 220.5 36t266 0.5t161.5 -25.5z" />
    <glyph glyph-name="questiondown" unicode="&#xbf;" horiz-adv-x="970" 
d="M488 1229q-35 0 -61 25.5t-26 59.5q0 37 25 61.5t63 24.5q35 0 60.5 -27t25.5 -59q0 -36 -25 -60.5t-62 -24.5zM809 389q23 0 41.5 -24.5t18.5 -63.5q0 -92 -59.5 -183.5t-153.5 -149t-189 -57.5q-146 0 -255.5 105t-109.5 244q0 52 10 101.5t33 103.5t41.5 90.5
t54.5 101.5q46 83 72.5 135.5t61.5 144.5t54 182q4 19 24 36q17 14 37 14q66 0 66 -94q0 -62 -23.5 -149t-46.5 -145.5t-69 -167.5q-44 -104 -65 -158t-42.5 -130.5t-21.5 -130.5q0 -74 48 -136t116 -62q78 0 157 56t125.5 131.5t46.5 135.5q0 10 -7 26q-3 7 -3 13
q0 12 11 21.5t27 9.5z" />
    <glyph glyph-name="multiply" unicode="&#xd7;" horiz-adv-x="649" 
d="M543 739q9 -22 -4 -37q-1 -1 -10 -13q-103 -126 -132 -160q104 -133 112 -148q13 -26 -6 -43q-17 -15 -44 -15q-16 0 -26 7q-32 22 -110 111q-72 -85 -84 -94q-23 -16 -49 -16q-39 0 -67 28q-16 16 -19.5 34.5t6.5 33.5q4 5 9 13q38 57 92 137q-90 118 -104 154
q-2 5 -2 14q0 10 6 19q13 19 42 19q43 0 71 -34q32 -40 56 -71q63 91 74 104q24 28 62 28q35 0 75 -22.5t52 -48.5z" />
    <glyph glyph-name="divide" unicode="&#xf7;" horiz-adv-x="704" 
d="M351 465q37 0 61.5 -24.5t24.5 -60.5q0 -33 -24 -59t-62 -26q-33 0 -60 24t-27 61q0 36 25 60.5t62 24.5zM351 768q-33 0 -60 24t-27 61q0 35 25.5 60t61.5 25q35 0 60.5 -25t25.5 -60q0 -38 -24 -61.5t-62 -23.5zM564 672q16 0 27 -14t12 -32q2 -35 -31 -38
q-1 0 -211.5 -12.5t-214.5 -12.5q-21 0 -33 19q-11 17 -11 40q0 20 9 33t23 13q5 0 209 2q214 2 221 2z" />
    <glyph glyph-name="mugreek" unicode="&#x3bc;" horiz-adv-x="1236" 
d="M1120 535q19 -16 14 -47q-18 -106 -48 -203t-70 -176.5t-92 -127t-108 -47.5q-60 0 -111 40t-84 104t-53.5 138.5t-25.5 149.5q-53 -164 -105 -243.5t-124 -79.5q-56 0 -104 43q-2 -47 5 -90q4 -33 -33 -43q-5 -1 -15 -1q-32 0 -42 26q-10 25 -16.5 160.5t-4.5 199.5v1v7
q0 235 26 326q15 55 84 55q76 0 112 -42q20 -23 17 -50q-32 -235 -32 -345q0 -44 6 -91.5t13 -63.5q36 28 75.5 106t72 180t52.5 172.5t36 135.5q7 31 26.5 44t56.5 13q86 0 125 -47q20 -24 15 -53q-8 -45 -18.5 -159.5t-10.5 -199.5q0 -91 12 -165.5t28 -111t32 -36.5
q27 0 72.5 70t90 187t62.5 231q5 30 27 39q19 8 37 -6z" />
    <glyph glyph-name="perthousand" unicode="&#x2030;" horiz-adv-x="1361" 
d="M1205 346q55 -54 55 -179q0 -104 -44 -173.5t-109 -69.5q-83 0 -147 67t-64 176q0 60 14.5 111t48 85t80.5 34q16 0 31 -6q8 5 19 5q23 0 58 -14t58 -36zM1105 3q10 0 24.5 18t26.5 55.5t12 79.5q0 115 -52 156l-3 -6l-4 -10q-15 -32 -22.5 -52t-15 -58t-7.5 -81
q0 -42 13 -72t28 -30zM696 391q23 0 58.5 -14t58.5 -36q55 -54 55 -179q0 -104 -44 -173.5t-109 -69.5q-83 0 -147.5 67t-64.5 176q0 94 37 162t107 68q16 0 31 -6q8 5 18 5zM712 -2q10 0 24.5 18t26.5 55.5t12 79.5q0 115 -52 156q-1 -1 -1 -3t-1 -3l-5 -10
q-44 -96 -44 -191q0 -43 12.5 -72.5t27.5 -29.5zM1022 1292q12 -22 -1 -41q-125 -185 -341 -587.5t-362 -696.5q-24 -49 -69 -49q-14 0 -27 5q-22 9 -34.5 29t-5.5 44q26 89 154.5 375.5t279 584t219.5 382.5q21 26 55 26q35 0 76.5 -22.5t55.5 -49.5zM467 1123
q0 -103 -43.5 -171.5t-108.5 -68.5q-91 0 -152 69.5t-61 172.5q0 93 35.5 162t107.5 69q13 0 26 -5q7 7 17 5q28 -2 50.5 -8t48 -21.5t42 -40t27.5 -66t11 -97.5zM272 1064q0 -43 13.5 -73t26.5 -30q9 0 23 17t26.5 55.5t12.5 85.5q0 111 -51 152q0 -2 -2 -4
q-49 -92 -49 -203z" />
    <glyph glyph-name="Euro" unicode="&#x20ac;" horiz-adv-x="874" 
d="M745 78q26 -16 20 -38q-9 -30 -66.5 -65.5t-110.5 -35.5q-169 0 -272 184q-89 157 -106 423q-50 -2 -70 -3l-1 -1h-2q-13 0 -22.5 9t-11.5 21q-3 13 2.5 26t19.5 18l82 7v40v9q-11 0 -26 -0.5t-24.5 -1t-14.5 -0.5h-1q-24 0 -29 25q-3 13 2.5 26.5t17.5 18.5l77 11
q10 174 58 312t124 216t168 78q98 0 155 -54t57 -147q0 -28 -11 -42t-27 -16q-14 -2 -26 6.5t-15 22.5q-12 54 -36.5 91.5t-48.5 37.5q-42 0 -98.5 -155.5t-76.5 -346.5q72 -2 82 -4q13 -4 20 -16.5t5 -27.5q-3 -26 -28 -26q-47 0 -85 -1q-2 -40 -2 -59q60 -2 68 -3
q16 -4 23.5 -17t5.5 -28q-2 -12 -9.5 -20t-19.5 -7q-28 2 -68 2q4 -138 27.5 -256.5t66.5 -195.5t97 -77q18 0 48 20.5t47 38.5q14 14 35 1z" />
    <glyph glyph-name="trademark" unicode="&#x2122;" horiz-adv-x="1251" 
d="M1129 1363q23 -24 21 -55q-14 -189 -14 -366q0 -22 -14 -41.5t-37 -27.5q-12 -4 -26 -4q-35 0 -60 30q-36 44 -52 247q-14 -34 -36.5 -54t-45.5 -20q-19 0 -42.5 15t-40.5 38q0 -7 -0.5 -23t-0.5 -23q0 -19 -1.5 -68t-1.5 -68q0 -42 -48 -55q-10 -3 -23 -3q-36 0 -49 23
q-28 52 -45 145.5t-17 165.5t6 117q5 21 25.5 36t52.5 15q34 0 62 -13q19 -7 40 -25.5t29 -37.5q1 -3 25 -58t29 -65q5 8 43 86q31 64 38 75q6 13 17 24q27 27 71 27q60 0 95 -37zM538 1404q21 -7 31 -24.5t7 -35.5q-5 -29 -31 -29h-108q-22 -240 -11 -361q3 -38 -34 -55
q-15 -7 -35 -7q-30 0 -46 16q-40 41 -59.5 159t-14.5 245q-16 0 -36.5 -0.5t-32.5 -1t-19 -0.5h-3q-17 0 -28.5 11.5t-14.5 27.5t4 31.5t24 20.5q28 9 205 10t202 -7z" />
    <glyph glyph-name="a.alt1" unicode="&#xf000;" horiz-adv-x="3143" 
d="M3183 691q14 -2 23 -10t8 -20q-9 -149 -47.5 -287t-101 -229t-132.5 -91q-169 0 -247 237q-33 97 -46 226q-66 -176 -115.5 -234.5t-130.5 -58.5q-83 0 -146.5 81.5t-63.5 213.5q0 66 11 120q-125 -81 -312 -109.5t-490 -28.5q-208 0 -592 21q-241 13 -306 13
q-298 0 -329 -137q-4 -19 -29 -19h-6q-12 2 -21 10t-8 21q1 28 9.5 54.5t33 58t62.5 54t106 38t157 15.5q82 0 369 -17q398 -22 486 -22q403 0 605.5 43.5t316.5 155.5q88 163 240 163q99 0 157 -42q10 69 88 69q65 0 102 -37q17 -19 17 -38q0 -1 -0.5 -12t-0.5 -20
q-8 -308 -8 -336q0 -125 15 -219.5t37.5 -139t47.5 -44.5q8 0 25 19.5t40.5 63.5t47 103t46.5 148.5t37 190.5q2 17 15.5 25.5t29.5 6.5zM2428 327q53 55 122 243.5t69 220.5q0 7 -22.5 28.5t-35.5 28.5h-2h-3l-3 -1q-68 -35 -107.5 -148.5t-39.5 -239.5q0 -76 22 -132z" />
    <glyph glyph-name="b.alt1" unicode="&#xf001;" horiz-adv-x="3174" 
d="M3216 686q15 -2 23 -14t6 -26q-1 -12 -7.5 -20t-15.5 -8q-140 3 -253 -25q-4 -105 -50.5 -201t-119 -154t-150.5 -58q-57 0 -92.5 32.5t-35.5 82.5q0 124 126 233q65 57 156 98v20q0 79 -14 125.5t-37 46.5q-44 0 -92.5 -48.5t-90 -129t-71.5 -197.5t-37 -242
q12 -115 11 -138q-1 -16 -13.5 -28.5t-32.5 -17.5q-9 -3 -21 -3q-36 0 -54 28q-37 59 -67 249t-37 383q-125 -89 -331 -131t-523 -42q-208 0 -592 21q-241 13 -306 13q-298 0 -329 -137q-4 -19 -29 -19h-6q-12 2 -21 10t-8 21q1 28 9.5 54.5t33 58t62.5 54t106 38t157 15.5
q82 0 369 -17q398 -22 486 -22q401 0 603.5 43.5t316.5 153.5q1 137 16 316t29 243q7 29 26 42t57 13q55 0 93 -22.5t41 -46.5q2 -19 -16 -135q-59 -375 -59 -629v-1q24 87 70 166.5t106 132t117 52.5q89 0 155.5 -68t83.5 -173q128 26 252 8zM2621 263q59 16 103.5 88.5
t65.5 170.5q-48 -29 -86 -65q-88 -86 -88 -171q0 -18 3 -22z" />
    <glyph glyph-name="c.alt1" unicode="&#xf002;" horiz-adv-x="3049" 
d="M3092 676q15 -4 23.5 -16.5t4.5 -30.5q-23 -103 -67.5 -200.5t-104.5 -177t-137.5 -128t-157.5 -48.5q-194 0 -317 141t-123 364q0 42 4 74q-126 -90 -317 -121.5t-507 -31.5q-208 0 -592 21q-241 13 -306 13q-298 0 -329 -137q-4 -19 -29 -19h-6q-12 2 -21 10t-8 21
q1 28 9.5 54.5t33 58t62.5 54t106 38t157 15.5q82 0 369 -17q398 -22 486 -22q400 0 602.5 43t316.5 153q22 75 62 138q106 166 278 166q121 0 187 -82.5t66 -231.5q0 -105 -17 -158q-5 -16 -19.5 -24.5t-30.5 -6.5q-27 3 -29 26q-2 14 0 41q0 6 0.5 20.5t0.5 21.5
q0 118 -18 177.5t-67 99.5q-2 2 -7 0q-83 -35 -147 -149t-64 -262q0 -171 67 -288.5t165 -117.5q67 0 142 75t135 186.5t100 236.5q4 14 17 19.5t27 1.5z" />
    <glyph glyph-name="d.alt1" unicode="&#xf003;" horiz-adv-x="3166" 
d="M3210 689q13 -2 21.5 -13.5t4.5 -29.5q-62 -314 -138 -464t-173 -150q-76 0 -134 75t-90 189t-46 260q-6 -15 -16.5 -40.5t-14.5 -34.5q-23 -57 -34.5 -83.5t-32.5 -66t-38.5 -57t-43.5 -31t-56 -13.5q-97 0 -156.5 89.5t-59.5 234.5q0 49 6 94q-125 -87 -314.5 -117
t-501.5 -30q-208 0 -592 21q-241 13 -306 13q-298 0 -329 -137q-4 -19 -29 -19h-6q-12 2 -21 10t-8 21q1 28 9.5 54.5t33 58t62.5 54t106 38t157 15.5q82 0 369 -17q398 -22 486 -22q401 0 604 44t317 155q10 24 24 46q74 123 214 123q47 0 92.5 -12.5t71.5 -30.5
q5 303 40 455q8 35 28 51t57 16q46 0 83 -18.5t41 -42.5q2 -16 -7 -90q-39 -357 -39 -613q0 -206 26.5 -361t69.5 -202h2q110 92 213 545q4 19 18.5 27.5t29.5 5.5zM2437 339q37 40 85.5 155t78.5 209t30 105q0 9 -19.5 22t-31.5 13q-21 0 -48.5 -28t-52.5 -75t-42.5 -118
t-17.5 -146q0 -83 18 -137z" />
    <glyph glyph-name="e.alt1" unicode="&#xf004;" horiz-adv-x="2957" 
d="M3002 675q33 -8 25 -48q-57 -268 -175.5 -415t-276.5 -147q-166 0 -271 129.5t-105 334.5q0 63 9 118q-125 -86 -314.5 -116t-500.5 -30q-208 0 -592 21q-241 13 -306 13q-298 0 -329 -137q-4 -19 -29 -19h-6q-12 2 -21 10t-8 21q1 28 9.5 54.5t33 58t62.5 54t106 38
t157 15.5q82 0 369 -17q398 -22 486 -22q403 0 606 44t317 156q38 91 99.5 142t136.5 51q93 0 141.5 -59.5t48.5 -174.5q0 -85 -32 -159t-88 -118q-65 -52 -136 -36q1 -48 12 -98.5t31 -94t52.5 -71.5t70.5 -28q53 0 105 33t92.5 85.5t75.5 120.5t58.5 134t38.5 130
q4 16 18.5 23t29.5 4zM2539 878q-47 -42 -79 -143t-40 -227q40 -5 76 25q39 32 63.5 90.5t24.5 119.5q0 96 -45 136v-1z" />
    <glyph glyph-name="f.alt1" unicode="&#xf005;" horiz-adv-x="2805" 
d="M2861 674q24 -22 12 -46q-20 -43 -141 -153t-178 -144q53 -18 94.5 -63t70.5 -136t29 -215q0 -353 -165 -353q-70 0 -130.5 64.5t-106.5 186.5q-105 283 -105 778q0 11 0.5 33.5t0.5 34.5q-69 -50 -166.5 -84t-216.5 -49.5t-225.5 -21t-240.5 -5.5q-208 0 -592 21
q-241 13 -306 13q-298 0 -329 -137q-4 -19 -29 -19h-6q-12 2 -21 10t-8 21q1 28 9.5 54.5t33 58t62.5 54t106 38t157 15.5q82 0 369 -17q398 -22 486 -22q402 0 605 44t317 155q15 280 49 477q10 63 95 63q75 0 112 -40q21 -23 18 -50q-4 -47 -19 -169q-51 -414 -56 -714
q143 85 337 281q35 36 45 43q15 10 33 -7zM2668 -100q0 157 -61 264t-135 107q-17 0 -27 -5q1 -172 43.5 -365t111.5 -261h4q28 15 46 88.5t18 171.5z" />
    <glyph glyph-name="g.alt1" unicode="&#xf006;" horiz-adv-x="3117" 
d="M3187 643q5 -25 -17 -31q-169 -45 -321 -149q25 -155 25 -280q0 -333 -105 -535q-50 -97 -118.5 -148.5t-147.5 -51.5q-81 0 -134 81.5t-53 206.5q0 158 69.5 317t200.5 299q27 28 55 55q-18 120 -52 257q-12 -39 -32 -113q-13 -49 -19.5 -71t-19.5 -62t-22 -58t-25 -44
t-32 -37.5t-38 -20.5t-48 -9q-86 0 -138 73.5t-52 196.5q0 59 10 106q-124 -73 -306.5 -98.5t-473.5 -25.5q-208 0 -592 21q-241 13 -306 13q-298 0 -329 -137q-4 -19 -29 -19h-6q-12 2 -21 10t-8 21q1 28 9.5 54.5t33 58t62.5 54t106 38t157 15.5q82 0 369 -17
q398 -22 486 -22q405 0 608 44.5t317 157.5q86 104 220 104q34 0 55 -7q-2 13 6 22q17 23 64 23q78 0 120 -45q65 -70 118 -337q158 95 306 122q18 3 31.5 -7t16.5 -25zM2367 358q46 65 92 214t59 220q-75 -24 -117.5 -123.5t-42.5 -216.5q0 -62 9 -94zM2504 -472
q23 0 51.5 35.5t54.5 95t43.5 150t17.5 188.5q0 155 -16 300q-112 -120 -175.5 -262t-63.5 -294q0 -76 31 -144.5t57 -68.5z" />
    <glyph glyph-name="h.alt1" unicode="&#xf007;" horiz-adv-x="3055" 
d="M3104 673q28 -8 21 -33q-125 -442 -263 -442q-33 0 -61 14t-54.5 48.5t-42 104t-15.5 168.5q0 35 6 121q6 90 5 111q-98 -104 -146.5 -274.5t-79.5 -448.5q0 -1 -0.5 -3t-0.5 -3q-3 -37 -50 -45q-10 -2 -14 -2q-48 0 -64 40q-39 97 -65.5 271t-31.5 371
q-217 -170 -855 -170q-208 0 -592 21q-241 13 -306 13q-298 0 -329 -137q-4 -19 -29 -19h-6q-12 2 -21 10t-8 21q1 28 9.5 54.5t33 58t62.5 54t106 38t157 15.5q82 0 369 -17q398 -22 486 -22q402 0 605 44t317 155q2 236 41 519q9 68 87 68q84 0 119 -43q21 -25 15 -59
q-27 -146 -51.5 -374t-24.5 -388q0 -28 4 -90q21 90 48.5 169t63 146.5t81 107t93.5 39.5q71 0 109 -45t38 -130q0 -40 -12 -158q-14 -122 -14 -175q0 -66 25 -100h1q32 23 75 107.5t67 146.5t45 125q4 13 19 17.5t28 -0.5z" />
    <glyph glyph-name="i.alt1" unicode="&#xf008;" horiz-adv-x="2715" 
d="M2375 878q-37 0 -63.5 27t-26.5 64q0 40 27 67t65 27q37 0 66 -25.5t29 -66.5q0 -40 -28 -66.5t-69 -26.5zM2764 668q27 -6 22 -36q-52 -258 -134 -399t-180 -141q-118 0 -181.5 130t-63.5 374q0 44 2 70q-115 -86 -313.5 -125.5t-522.5 -39.5q-208 0 -592 21
q-241 13 -306 13q-298 0 -329 -137q-4 -19 -29 -19h-6q-12 2 -21 10t-8 21q1 28 9.5 54.5t33 58t62.5 54t106 38t157 15.5q82 0 369 -17q398 -22 486 -22q402 0 605 44t317 155q2 6 6 16q14 33 82 33q51 0 86 -17.5t36 -43.5q0 -20 -6 -78q-17 -172 -17 -272q0 -204 61 -260
h1q65 40 123 164t99 311q3 14 17.5 21t28.5 4z" />
    <glyph glyph-name="j.alt1" unicode="&#xf009;" horiz-adv-x="2805" 
d="M2245 976q-38 0 -64.5 26t-26.5 65q0 41 28 67.5t63 26.5q40 0 68 -27t28 -65q0 -40 -27 -66.5t-69 -26.5zM2876 652q7 -27 -16 -34q-174 -52 -320 -150q24 -150 24 -285q0 -313 -101 -518q-104 -212 -269 -212q-91 0 -140 85.5t-49 204.5q0 184 88.5 358t237.5 312
q-21 133 -55 264q-138 -103 -345.5 -139.5t-537.5 -36.5q-208 0 -592 21q-241 13 -306 13q-298 0 -329 -137q-4 -19 -29 -19h-6q-12 2 -21 10t-8 21q1 28 9.5 54.5t33 58t62.5 54t106 38t157 15.5q82 0 369 -17q398 -22 486 -22q401 0 604 44t317 154q-7 27 -31 95
q-6 17 4 32q17 24 67 24q43 0 79 -18t56 -48q58 -91 103 -316q148 91 303 123q19 4 32.5 -5t16.5 -24zM2194 -467q21 0 49.5 36t55 95.5t45 148t18.5 181.5q0 163 -16 310q-115 -122 -178 -264.5t-63 -287.5q0 -85 31.5 -152t57.5 -67z" />
    <glyph glyph-name="k.alt1" unicode="&#xf00a;" horiz-adv-x="3072" 
d="M3123 677q28 -12 16 -42q-40 -105 -106.5 -199t-155.5 -157.5t-174 -63.5q-70 0 -144.5 31t-118.5 78q11 -153 34 -267q6 -32 -8 -53t-37 -30q-11 -4 -26 -4q-37 0 -52 29q-45 82 -73 280.5t-32 387.5q-136 -98 -333.5 -132t-519.5 -34q-208 0 -592 21q-241 13 -306 13
q-298 0 -329 -137q-4 -19 -29 -19h-6q-12 2 -21 10t-8 21q1 28 9.5 54.5t33 58t62.5 54t106 38t157 15.5q82 0 369 -17q398 -22 486 -22q402 0 604.5 43.5t316.5 154.5q4 139 17 293.5t28 222.5q13 55 83 55q50 0 89.5 -22t44.5 -47q4 -23 -20 -188q-56 -377 -56 -561v-27
q86 62 185.5 228.5t139.5 316.5q12 45 46 45q28 0 53 -23t25 -45q0 -75 -64 -204t-160.5 -247t-177.5 -156l1 -1v-1q36 -62 93 -97.5t122 -35.5q50 0 104 32t103 86.5t92 117.5t80 134q6 11 21.5 14.5t27.5 -2.5z" />
    <glyph glyph-name="l.alt1" unicode="&#xf00b;" horiz-adv-x="2760" 
d="M2822 669q14 -12 9 -37q-31 -148 -61 -252.5t-67.5 -190t-83.5 -128t-101 -42.5q-117 0 -188 171.5t-82 479.5q-143 -99 -343.5 -134t-511.5 -35q-208 0 -592 21q-241 13 -306 13q-298 0 -329 -137q-4 -19 -29 -19h-6q-12 2 -21 10t-8 21q1 28 9.5 54.5t33 58t62.5 54
t106 38t157 15.5q82 0 369 -17q398 -22 486 -22q401 0 604 44t317 154q0 449 42 587q14 49 82 49q41 0 79.5 -18t42.5 -42q2 -12 -8 -105q-37 -324 -37 -611q0 -204 27.5 -360.5t68.5 -191.5q0 1 1 1q53 35 112 186t105 366q5 19 24 25q22 7 37 -6z" />
    <glyph glyph-name="m.alt1" unicode="&#xf00c;" horiz-adv-x="3563" 
d="M3608 671q12 -2 19 -10t6 -18q-11 -87 -39 -182t-67 -179t-92 -138.5t-107 -54.5q-37 0 -69.5 13t-55 30t-44 50t-33.5 57.5t-26.5 68t-20.5 66.5t-17 67q-19 78 -35 118q-31 -17 -125 -160l-26 -39q-24 -40 -77 -34q-28 3 -49.5 20.5t-24.5 46.5q-4 47 -4 285v6v36
q0 140 -8 175v-1q-179 -204 -232 -835v0q0 -13 -16 -23q-15 -9 -39 -9q-25 0 -42 13q-67 52 -110.5 209.5t-43.5 348.5q0 12 0.5 32t0.5 28q-132 -93 -322.5 -125t-515.5 -32q-208 0 -592 21q-241 13 -306 13q-298 0 -329 -137q-4 -19 -29 -19h-6q-12 2 -21 10t-8 21
q1 28 9.5 54.5t33 58t62.5 54t106 38t157 15.5q82 0 369 -17q398 -22 486 -22q402 0 604.5 43.5t316.5 154.5q19 45 85 45q47 0 86.5 -19t45.5 -44q5 -21 -6 -113q-8 -65 -11 -130q17 73 40 144.5t60 160t86.5 143t103.5 54.5q37 0 65 -11t45.5 -35t28.5 -50.5t16.5 -68
t7 -77t1.5 -87.5v-118q55 72 133 72q32 0 58.5 -10t46.5 -32t34 -43t27 -59t20 -62t18 -68q15 -58 25 -91t29.5 -69.5t43.5 -52.5q2 -2 4 0q45 29 107.5 156t116.5 321q8 32 45 26z" />
    <glyph glyph-name="n.alt1" unicode="&#xf00d;" horiz-adv-x="3237" 
d="M3285 671q31 -9 23 -41q-137 -531 -320 -531q-107 0 -162.5 106t-55.5 309q0 52 3 119q4 131 2 166q-139 -169 -289 -712q0 -20 -20 -34q-17 -11 -39 -11q-21 0 -38 11q-67 46 -112 207t-45 354q0 31 1 47q-78 -54 -168 -87.5t-204.5 -48.5t-213 -19.5t-254.5 -4.5
q-208 0 -592 21q-241 13 -306 13q-298 0 -329 -137q-4 -19 -29 -19h-6q-12 2 -21 10t-8 21q1 28 9.5 54.5t33 58t62.5 54t106 38t157 15.5q82 0 369 -17q398 -22 486 -22q401 0 603.5 43.5t316.5 153.5q0 2 0.5 5t1.5 5q15 51 87 51q48 0 87.5 -18.5t45.5 -44.5
q2 -10 -7 -115q-13 -134 -13 -201q0 -58 5 -133q77 264 166 429q101 186 185 186q93 0 126 -67t33 -205q0 -35 -6 -135q-8 -110 -8 -163q0 -166 49 -201h2q51 21 119 167.5t120 304.5q4 13 18 17.5t29 0.5z" />
    <glyph glyph-name="o.alt1" unicode="&#xf00e;" horiz-adv-x="3166" 
d="M3215 673q29 -14 20 -40q-31 -82 -127 -152t-223 -107q-37 -127 -103 -200.5t-149 -73.5q-92 0 -171.5 99t-92.5 227q-4 2 -6 4q-114 86 -126 233q-78 -54 -170 -88t-207 -49.5t-215 -20t-252 -4.5q-208 0 -592 21q-241 13 -306 13q-298 0 -329 -137q-4 -19 -29 -19h-6
q-12 2 -21 10t-8 21q1 28 9.5 54.5t33 58t62.5 54t106 38t157 15.5q84 0 369 -17q398 -22 486 -22q402 0 605 44t317 155q23 102 89 179q103 120 250 120q64 0 122.5 -27.5t106.5 -80t76.5 -141t28.5 -200.5q0 -85 -15 -177q190 70 272 203q11 19 38 7zM2653 184
q32 13 66.5 56.5t60.5 110.5q-109 -17 -209 -2q12 -59 33 -103.5t44 -60.5q1 -1 5 -1zM2806 435q19 81 19 175q0 77 -15.5 144t-39.5 110.5t-53.5 75t-56.5 45.5t-50 14q-77 0 -146.5 -91.5t-82.5 -195.5q0 1 1 3l1 2q14 54 87 54q39 0 75 -17t40 -38q6 -26 -9 -117
q-15 -103 -15 -151v-15q48 -12 107 -12q68 0 138 14z" />
    <glyph glyph-name="p.alt1" unicode="&#xf00f;" horiz-adv-x="3188" 
d="M3222 681q19 -2 29 -14.5t9 -27.5q-1 -12 -10 -20.5t-24 -7.5q-105 4 -207 -14q-6 -165 -121 -307q-56 -69 -124 -108t-132 -39t-99.5 39.5t-35.5 110.5q0 123 114 223q80 70 200 115q1 14 1 40q0 131 -39 198l-3 1h-5q-53 0 -111 -58q-88 -88 -150.5 -276t-61.5 -423
q15 -157 47 -290q13 -52 -28 -76q-15 -9 -32 -9q-19 0 -32 11q-74 71 -119.5 323t-45.5 523v69q-76 -54 -169.5 -88.5t-211 -50t-218 -20t-250.5 -4.5q-208 0 -592 21q-241 13 -306 13q-298 0 -329 -137q-4 -19 -29 -19h-6q-12 2 -21 10t-8 21q1 28 9.5 54.5t33 58t62.5 54
t106 38t157 15.5q82 0 369 -17q398 -22 486 -22q402 0 604.5 43.5t316.5 154.5q7 143 22 206q13 53 78 53q47 0 83 -18t41 -44q2 -11 -10 -143q-11 -115 -13 -145q51 116 131 199t159 83q118 0 197 -96q66 -79 81 -205q113 15 207 2zM2630 236q58 23 104 106t70 186
q-64 -33 -112 -79q-77 -74 -77 -155q0 -40 11 -57q0 -1 4 -1z" />
    <glyph glyph-name="q.alt1" unicode="&#xf010;" horiz-adv-x="3117" 
d="M3164 671q14 -2 23 -11.5t7 -24.5q-46 -367 -112 -695.5t-132 -438.5q-29 -48 -95 -48q-59 0 -108 55t-84 161q-75 225 -75 621q0 80 3 159q-13 -31 -14 -34q-52 -131 -86 -176.5t-103 -45.5q-86 0 -147 82.5t-61 240.5q0 62 11 120q-125 -79 -311.5 -107t-486.5 -28
q-208 0 -592 21q-241 13 -306 13q-298 0 -329 -137q-4 -19 -29 -19h-6q-12 2 -21 10t-8 21q1 28 9.5 54.5t33 58t62.5 54t106 38t157 15.5q82 0 369 -17q398 -22 486 -22q401 0 603.5 43.5t316.5 153.5q40 70 99.5 108.5t130.5 38.5q41 0 80.5 -11.5t59.5 -28.5v7
q1 35 25 54t67 19q49 0 85.5 -22t40.5 -54q2 -15 -12 -186q-31 -367 -31 -574q0 -215 24.5 -391.5t59.5 -210.5q55 67 126.5 433.5t113.5 667.5q2 18 17 26.5t33 6.5zM2405 307q43 51 109 240.5t68 217.5q-1 5 -15.5 25t-22.5 26h-2q-1 1 -2 1t-4 -1h-2
q-66 -41 -105.5 -143.5t-39.5 -232.5q0 -82 16 -133z" />
    <glyph glyph-name="r.alt1" unicode="&#xf011;" horiz-adv-x="2994" 
d="M3063 657q9 -21 -4 -37q-8 -12 -43 -18.5t-65 -6.5q-153 0 -275 95q-59 -67 -112.5 -237t-69.5 -378v-1l1 -2q3 -15 -17 -27q-15 -9 -36 -9q-27 0 -44 16q-62 56 -109.5 213t-47.5 352v42q-75 -53 -168 -86t-210.5 -48t-218.5 -19.5t-251 -4.5q-208 0 -592 21
q-241 13 -306 13q-298 0 -329 -137q-4 -19 -29 -19h-6q-12 2 -21 10t-8 21q1 28 9.5 54.5t33 58t62.5 54t106 38t157 15.5q82 0 369 -17q398 -22 486 -22q402 0 605 44t317 155q6 83 7 90q3 20 25.5 32.5t56.5 12.5q49 0 91.5 -21.5t46.5 -48.5q1 -8 -6 -71
q-18 -170 -18 -278v-41q20 66 39.5 116t44.5 97.5t55 73t63 25.5q20 0 39.5 -6.5t31.5 -13.5t33 -21q31 -21 51 -32t62 -22.5t92 -11.5q25 0 52 5q19 2 21 2q21 -2 29 -20z" />
    <glyph glyph-name="s.alt1" unicode="&#xf012;" horiz-adv-x="3106" 
d="M3159 674q26 -15 15 -37q-55 -112 -148 -189t-219 -144q33 -46 33 -105q0 -81 -91.5 -162.5t-197.5 -81.5q-60 0 -99 31.5t-39 79.5q0 35 11.5 65.5t28.5 53t47.5 44.5t59 38t71.5 37q-41 22 -109 49q-38 15 -59 24t-57 27t-57.5 33t-48.5 39t-42.5 49t-27 58.5
t-12.5 71.5q-126 -90 -317.5 -122t-507.5 -32q-208 0 -592 21q-241 13 -306 13q-298 0 -329 -137q-4 -19 -29 -19h-6q-12 2 -21 10t-8 21q1 28 9.5 54.5t33 58t62.5 54t106 38t157 15.5q82 0 369 -17q398 -22 486 -22q397 0 599.5 43t316.5 151q43 113 143.5 194.5
t217.5 81.5q111 0 196.5 -70t85.5 -189q0 -65 -27.5 -129.5t-55.5 -64.5q-22 0 -36 21q-10 13 -5 29q23 69 23 118q0 53 -16.5 92.5t-40.5 54.5q-2 2 -8 2q-90 -4 -188.5 -112.5t-98.5 -217.5q0 -25 11 -47t25 -36.5t43 -31.5t48 -26t56 -25q98 -44 133 -68
q113 58 203 129.5t160 179.5q6 10 21.5 10.5t27.5 -6.5zM2516 44q56 2 119.5 59.5t63.5 112.5q0 16 -6 29q-91 -48 -136 -88t-45 -91q0 -14 3 -22h1z" />
    <glyph glyph-name="t.alt1" unicode="&#xf013;" horiz-adv-x="2760" 
d="M2803 679q14 -2 22.5 -13t4.5 -28q-22 -118 -49 -217t-65 -194.5t-89 -150t-108 -54.5q-117 0 -188.5 171t-83.5 479q-142 -100 -342 -135.5t-512 -35.5q-208 0 -592 21q-241 13 -306 13q-298 0 -329 -137q-4 -19 -29 -19h-6q-12 2 -21 10t-8 21q1 28 9.5 54.5t33 58
t62.5 54t106 38t157 15.5q84 0 369 -17q398 -22 486 -22q400 0 602.5 43.5t316.5 153.5v4q0 154 6 276q-80 -5 -188 -16h-5q-28 0 -34 30q-6 36 25 45l207 20q8 123 27 215q14 66 87 66q49 0 83 -18t40 -42q3 -10 -8 -106q-1 -12 -5.5 -48t-6.5 -59l66 1q94 0 136 -6
q16 -2 25.5 -16t7.5 -29q-2 -25 -27 -25h-1q-56 1 -214 -3q-19 -218 -19 -421q0 -238 28.5 -379t66.5 -177h2q61 41 120 209.5t97 343.5q4 16 16.5 22.5t26.5 3.5z" />
    <glyph glyph-name="u.alt1" unicode="&#xf014;" horiz-adv-x="3182" 
d="M3237 656q20 -18 15 -46q-15 -86 -40.5 -174t-64.5 -177t-95 -145t-119 -56q-58 0 -110 38.5t-90 110.5q-67 127 -70 284q-23 -67 -40 -111t-39.5 -88t-44 -69.5t-49.5 -41t-60 -15.5q-92 0 -148.5 109t-56.5 288q0 52 3 94q-58 -42 -132.5 -71.5t-148 -46t-173.5 -25
t-181.5 -11t-199.5 -2.5q-208 0 -592 21q-241 13 -306 13q-298 0 -329 -137q-4 -19 -29 -19h-6q-12 2 -21 10t-8 21q1 28 9.5 54.5t33 58t62.5 54t106 38t157 15.5q82 0 369 -17q398 -22 486 -22q402 0 605 44t317 155q1 1 1 4t1 4q2 7 5.5 13.5t12 16t25.5 15.5t39 6
q75 0 110 -38q22 -24 19 -53q-1 -8 -11 -97q-20 -156 -20 -256q0 -120 18 -148h1q97 59 232 584q0 2 0.5 4.5t0.5 3.5q7 58 88 58t119 -43q23 -26 18 -59q-29 -209 -29 -362q0 -123 23 -215.5t49 -92.5q21 0 55.5 46t69 116t63.5 161.5t39 173.5q3 23 22 31q21 8 39 -7z" />
    <glyph glyph-name="v.alt1" unicode="&#xf015;" horiz-adv-x="3000" 
d="M3031 670q19 0 30 -10t11 -23q0 -16 -14 -27q-15 -12 -41 -12q-150 0 -227 26q-50 -585 -259 -585q-150 0 -225 215q-57 164 -62 409q-132 -95 -332.5 -128.5t-518.5 -33.5q-208 0 -592 21q-241 13 -306 13q-298 0 -329 -137q-4 -19 -29 -19h-6q-12 2 -21 10t-8 21
q1 28 9.5 54.5t33 58t62.5 54t106 38t157 15.5q84 0 369 -17q398 -22 486 -22q401 0 603.5 43.5t316.5 153.5q0 12 2 30q6 61 87 61q43 0 84 -20.5t45 -47.5q4 -31 -2 -132q-4 -70 -4 -98q0 -154 31 -294.5t65 -161.5q58 38 101.5 203.5t47.5 329.5q1 23 18 39.5t40 16.5
q8 0 36 -10q84 -34 235 -34z" />
    <glyph glyph-name="w.alt1" unicode="&#xf016;" horiz-adv-x="3430" 
d="M3500 652q5 -25 -16 -37q-11 -6 -70 -13t-94 -7q-64 0 -112 12l-2 1q1 -6 3 -53l1 -43q0 -136 -29.5 -262.5t-85.5 -210t-125 -83.5q-105 0 -188 121.5t-111 310.5q-18 -50 -28.5 -78.5t-27.5 -69t-30 -63.5t-31.5 -50t-37 -40.5t-41.5 -23t-49 -9.5q-89 0 -155 98
t-66 268q0 102 12 193q-126 -90 -317 -121.5t-507 -31.5q-208 0 -592 21q-223 12 -306 12q-298 0 -329 -136q-4 -19 -29 -19h-6q-12 2 -21 10t-8 21q1 23 7.5 45t20.5 48t41 47.5t65.5 39.5t98.5 28.5t135 10.5q82 0 369 -17q380 -21 486 -21q401 0 603.5 43.5t316.5 153.5
q4 10 5 12q20 45 85 45q83 0 116 -43q17 -23 11 -49l-2 -9q-56 -211 -56 -382q0 -56 12.5 -107t27.5 -68q2 -2 6 0q28 13 71 108.5t82.5 232.5t53.5 254q0 87 10 147q15 82 92 82q54 0 85 -25t34 -60q1 -17 -2 -141q-5 -195 -5 -226q0 -198 35.5 -321.5t76.5 -151.5q3 0 4 1
q59 58 97 211t38 333v14q0 59 14 73q12 12 34 12q11 0 45 -6q65 -10 96 -10q47 0 89 3q61 4 73 2q22 -3 27 -26z" />
    <glyph glyph-name="x.alt1" unicode="&#xf017;" horiz-adv-x="3055" 
d="M3116 656q16 -16 10 -40q-21 -85 -42 -153.5t-55 -149t-71 -135t-89.5 -91t-111.5 -36.5q-164 0 -306 194q-147 -240 -156 -251q-11 -15 -28 -15q-11 0 -19 4q-14 6 -22.5 18t-6.5 23q10 54 164 330q-77 145 -118 335q-144 -110 -349 -149t-523 -39q-208 0 -592 21
q-241 13 -306 13q-298 0 -329 -137q-4 -19 -29 -19h-6q-12 2 -21 10t-8 21q1 28 9.5 54.5t33 58t62.5 54t106 38t157 15.5q84 0 369 -17q398 -22 486 -22q402 0 605 44t317 155q-1 5 -2 16t-2 17q-3 27 14 47q24 27 77 27q117 0 141 -119q22 -103 45 -187q171 291 208 326
q14 14 38 14q29 0 56 -21q28 -23 13 -44q-53 -79 -267 -429q51 -142 106.5 -221t105.5 -79q47 0 103 85t98.5 197.5t69.5 225.5q5 17 21 21q27 7 44 -10z" />
    <glyph glyph-name="y.alt1" unicode="&#xf018;" horiz-adv-x="3198" 
d="M3269 641q6 -23 -14 -30q-170 -55 -322 -156q23 -146 23 -278q0 -313 -97 -516q-102 -215 -273 -215q-85 0 -135.5 78.5t-50.5 209.5q0 184 87.5 357.5t235.5 311.5q-21 141 -52 266q-74 -441 -249 -441q-89 0 -150.5 99t-61.5 242q0 31 7 84q-126 -90 -317 -121
t-507 -31q-208 0 -592 21q-241 13 -306 13q-298 0 -329 -137q-4 -19 -29 -19h-6q-12 2 -21 10t-8 21q1 28 9.5 54.5t33 58t62.5 54t106 38t157 15.5q84 0 369 -17q398 -22 486 -22q397 0 600 43t317 151q1 3 2 8.5t2 8.5q13 43 75 43q39 0 71.5 -15t46.5 -35q14 -18 9 -35
l-2 -6q-45 -148 -45 -267q0 -67 10 -116t23 -62h2q61 32 115.5 206t59.5 354q-7 22 4 40q15 23 61 23q87 0 128 -51q64 -77 113 -331q153 93 304 124q16 4 30 -6.5t18 -26.5zM2587 -474q25 0 54.5 38t54.5 99.5t42 151.5t17 183q0 145 -17 293q-114 -122 -176.5 -263.5
t-62.5 -287.5q0 -80 31.5 -147t56.5 -67z" />
    <glyph glyph-name="z.alt1" unicode="&#xf019;" horiz-adv-x="3065" 
d="M3115 682q27 -8 22 -39q-10 -55 -41.5 -111.5t-91.5 -121t-106.5 -108t-132.5 -119.5q78 -91 78 -239q0 -89 -35.5 -179.5t-99.5 -166.5q-63 -74 -139 -115.5t-148 -41.5q-85 0 -126 55t-41 133q0 57 20.5 115t50 105t82.5 104t96 96.5t111 98.5q-34 52 -88 52
q-38 0 -132 -25l-1 -1h-1q-18 -6 -34 -6q-36 0 -60 15.5t-32 37.5q-11 32 17 53q120 90 215 241.5t95 252.5q0 49 -13.5 79.5t-31.5 30.5q-52 0 -111.5 -45t-97 -104t-37.5 -100q0 -7 -3 -11q-2 -3 -5 -5q-39 -42 -92.5 -73t-114 -48.5t-132.5 -29t-147 -14.5t-157.5 -5
t-164.5 0q-16 0 -47 0.5t-46 0.5q-165 0 -592 21q-223 12 -306 12q-298 0 -329 -136q-4 -19 -29 -19h-6q-12 2 -21 10t-8 21q1 23 7.5 45t20.5 48t41 47.5t65.5 39.5t98.5 28.5t135 10.5q82 0 369 -17q380 -21 486 -21h177q121 -1 216 0t167.5 6t130 18.5t104 37t90.5 61.5
q3 72 45.5 146t114 124t148.5 50q117 0 191 -75.5t74 -194.5q0 -88 -62 -201t-152 -206q81 -24 142 -68q133 116 221.5 216.5t135.5 212.5q6 14 20 19.5t27 1.5zM2566 -345q92 141 92 297q0 72 -13 123q-66 -60 -113 -109.5t-91 -106.5t-66.5 -114t-22.5 -111
q0 -46 14.5 -78.5t31.5 -32.5q38 0 83 35.5t85 96.5z" />
    <glyph glyph-name="a.alt2" unicode="&#xf01a;" horiz-adv-x="2979" 
d="M2847 723q13 -2 21.5 -13.5t6.5 -28.5q-14 -107 -106 -157.5t-273 -50.5q-146 0 -392 16q-231 15 -369 15q-103 0 -192.5 -11t-154.5 -26t-126 -43.5t-97.5 -50t-79 -59t-61.5 -57.5t-53 -58q-35 -40 -54.5 -59t-51 -43t-65 -34t-74.5 -10q-166 0 -246 237
q-34 101 -47 226q-66 -176 -115 -234.5t-130 -58.5q-83 0 -147 81.5t-64 213.5q0 80 20 156.5t57 139t96 100.5t130 38q99 0 157 -42q11 69 89 69q65 0 102 -37q17 -19 17 -38l-1 -11v-21q-8 -308 -8 -336q0 -95 9 -173t23 -127.5t32 -76t36 -26.5q23 0 43 7t42 25.5
t35.5 33t40.5 46.5q35 41 56.5 64t69 65t91 67.5t116.5 57.5t152 50t190 31t238 13q100 0 370 -14q215 -11 293 -11q152 0 233.5 28t106.5 108q7 24 34 19zM222 327q53 55 122 243t69 220q0 6 -22 27.5t-36 29.5h-2q-5 0 -6 -1q-68 -35 -107.5 -148.5t-39.5 -239.5
q0 -75 22 -131z" />
    <glyph glyph-name="b.alt2" unicode="&#xf01b;" horiz-adv-x="2623" 
d="M2492 838q13 -2 21.5 -13t6.5 -28q-13 -106 -106 -157t-273 -51q-161 0 -392 15t-369 15q-426 0 -657 -50q-14 -155 -109 -272t-209 -117q-57 0 -93 32.5t-36 82.5q0 216 281 316q1 12 1 35q0 79 -14 125.5t-37 46.5q-59 0 -122 -80t-110.5 -225.5t-57.5 -311.5
q12 -109 10 -138q-1 -16 -13.5 -28.5t-32.5 -17.5q-9 -3 -20 -3q-37 0 -54 28q-43 67 -75 297t-32 428q0 135 15 324.5t30 255.5q7 29 26.5 42t57.5 13q55 0 92.5 -22.5t40.5 -46.5q2 -19 -16 -135q-59 -375 -59 -629v-1q38 136 123.5 243.5t170.5 107.5q94 0 162 -74.5
t80 -188.5q255 52 732 52q119 0 370 -13q215 -11 293 -11q152 0 233.5 28t106.5 108q7 23 34 18zM376 263q57 15 101.5 84.5t65.5 164.5q-171 -79 -171 -226q0 -18 3 -22z" />
    <glyph glyph-name="c.alt2" unicode="&#xf01c;" horiz-adv-x="2711" 
d="M2580 723q13 -2 21.5 -13.5t6.5 -28.5q-13 -106 -105.5 -156.5t-273.5 -50.5q-161 0 -392 15t-369 15q-103 0 -194 -10.5t-157 -25t-128.5 -41t-100.5 -47.5t-82 -56t-64.5 -54.5t-55.5 -55.5q-38 -38 -57.5 -56t-52.5 -41t-66.5 -32.5t-74.5 -9.5q-194 0 -316.5 141
t-122.5 364q0 198 93 345q106 166 278 166q121 0 187 -82.5t66 -231.5q0 -105 -17 -158q-5 -16 -19.5 -24.5t-30.5 -6.5q-28 3 -30 26q-1 8 1 41q0 6 0.5 20.5t0.5 21.5q0 118 -18.5 177.5t-67.5 99.5q-2 2 -7 0q-83 -35 -147 -149t-64 -262q0 -171 67 -288.5t165 -117.5
q35 0 68.5 16.5t55 35.5t63.5 61q38 38 60 59t72.5 60.5t94 62.5t116.5 53.5t149.5 47t183 28.5t227.5 12q100 0 370 -14q215 -11 293 -11q152 0 233.5 28t106.5 108q7 24 34 19z" />
    <glyph glyph-name="d.alt2" unicode="&#xf01d;" horiz-adv-x="2990" 
d="M2859 723q13 -2 21.5 -13.5t6.5 -28.5q-13 -106 -106 -157t-274 -51q-146 0 -392 16q-231 15 -369 15q-104 0 -195.5 -11.5t-157 -27t-128 -45t-100 -52t-81.5 -62t-63.5 -60t-55.5 -60.5q-37 -41 -57 -61.5t-53 -46t-67.5 -36t-76.5 -10.5q-57 0 -104.5 42.5t-80 116.5
t-54 166t-31.5 199q-6 -15 -16.5 -40.5t-14.5 -34.5q-23 -57 -34.5 -83.5t-32.5 -66t-38.5 -57t-43.5 -31t-56 -13.5q-97 0 -156 89.5t-59 234.5q0 171 67 282q74 123 214 123q47 0 92 -12.5t71 -30.5q5 298 41 455q14 67 85 67q46 0 83 -18.5t41 -42.5q1 -11 -8 -90
q-38 -348 -38 -613q0 -207 26.5 -364t68.5 -199h4q27 0 53.5 16.5t43.5 34.5t51 59q26 32 42 50t50 52.5t62.5 56t76 53t95 51.5t114 43t138.5 36t164 21.5t194 8.5q101 0 371 -14q214 -11 293 -11q152 0 233.5 28t106.5 108q7 24 34 19zM224 339q37 40 85 155t78 209
t30 105q0 9 -19 22t-31 13q-21 0 -48.5 -28t-52.5 -75t-42.5 -118t-17.5 -146q0 -86 17 -137h1z" />
    <glyph glyph-name="e.alt2" unicode="&#xf01e;" horiz-adv-x="2617" 
d="M2487 723q13 -2 21.5 -13.5t6.5 -28.5q-13 -106 -106 -157t-274 -51q-146 0 -392 16q-231 15 -369 15q-82 0 -155 -6t-129 -14.5t-107.5 -25t-87.5 -30t-71.5 -37t-56.5 -39.5t-47.5 -43.5t-39 -42.5t-34.5 -43q-26 -33 -40.5 -50t-42 -41.5t-53.5 -36.5t-65 -21t-85 -9
q-166 0 -271 129.5t-105 334.5q0 195 81.5 325t203.5 130q93 0 141 -59.5t48 -174.5q0 -85 -32 -159.5t-87 -117.5q-67 -52 -137 -36q1 -66 19.5 -131t58 -113t89.5 -48q37 0 66.5 8.5t54.5 30t40 38.5t42 52q31 40 48.5 61t59.5 60t82 62t109 52t146.5 45t189 27.5
t242.5 11.5q101 0 371 -14q215 -11 293 -11q152 0 233 28t106 108q7 24 35 19zM323 878q-47 -42 -79 -143t-40 -227q41 -5 77 25q39 32 63 90.5t24 119.5q0 97 -44 136z" />
    <glyph glyph-name="f.alt2" unicode="&#xf01f;" horiz-adv-x="2463" 
d="M2332 869q13 -2 21.5 -13.5t6.5 -28.5q-13 -106 -106 -157t-274 -51q-145 0 -391 16q-231 15 -369 15q-129 0 -245 -18.5t-191 -41.5t-154 -64t-113.5 -64.5t-89.5 -63.5q-77 -56 -110 -68q82 -29 136 -131.5t54 -281.5q0 -353 -165 -353q-69 0 -130 65t-107 186
q-105 283 -105 778q0 179 18.5 376.5t35.5 297.5q10 63 96 63q75 0 112 -40q21 -23 18 -50q-4 -47 -19 -169q-51 -415 -56 -713q23 5 51.5 20.5t46 28.5t57.5 43q63 48 102.5 75.5t129 74t177.5 72.5t227 46.5t298 20.5q101 0 371 -14q214 -11 293 -11q152 0 233.5 28
t106.5 108q7 24 34 19zM427 -100q0 157 -61 264t-135 107q-17 0 -27 -5q1 -172 43.5 -365t111.5 -261h4q28 16 46 89.5t18 170.5z" />
    <glyph glyph-name="g.alt2" unicode="&#xf020;" horiz-adv-x="2662" 
d="M2531 800q13 -2 21.5 -13.5t6.5 -28.5q-13 -106 -106 -157t-274 -51q-146 0 -392 16q-215 14 -368 14q-446 0 -752 -166q17 -128 17 -231q0 -333 -105 -535q-50 -97 -118.5 -148.5t-147.5 -51.5q-81 0 -134 81.5t-53 206.5q0 193 84 357t245 288q-18 132 -55 283
q-12 -39 -32 -113q-15 -56 -23 -82.5t-23 -70t-28 -64t-32.5 -44t-43.5 -33t-54 -9.5q-86 0 -138.5 74t-52.5 197q0 167 86 272.5t222 105.5q33 0 54 -7q-2 13 6 22q17 23 64 23q35 0 68.5 -12.5t52.5 -32.5q35 -38 69 -145t58 -243q345 168 840 168q101 0 371 -14
q215 -11 293 -11q152 0 233.5 28t106.5 108q7 24 34 19zM178 358q46 65 92 214t59 220q-75 -24 -117.5 -123.5t-42.5 -216.5q0 -65 8 -94h1zM314 -472q23 0 51.5 35.5t54.5 95t44 150t18 188.5q0 133 -14 276q-117 -109 -179.5 -245.5t-62.5 -286.5q0 -76 31 -144.5
t57 -68.5z" />
    <glyph glyph-name="h.alt2" unicode="&#xf021;" horiz-adv-x="2881" 
d="M2750 723q13 -2 21.5 -13.5t6.5 -28.5q-13 -106 -106 -157t-274 -51q-146 0 -392 16q-231 15 -368 15q-153 0 -282 -16t-209 -36t-157 -56t-110.5 -57.5t-84.5 -59.5q-41 -30 -61 -43t-53 -25.5t-66 -12.5t-61 14t-54.5 48.5t-41.5 104t-15 168.5q0 49 5 121q6 90 5 111
q-98 -104 -146.5 -274.5t-79.5 -448.5v-6q-3 -37 -50 -45q-10 -2 -14 -2q-49 0 -65 40q-44 109 -71 312t-27 427q0 234 41 541q9 68 87 68q85 0 120 -43q20 -24 14 -59q-27 -145 -51 -373.5t-24 -388.5q0 -43 3 -90q21 90 48.5 169t63 146.5t81 107t93.5 39.5
q71 0 109.5 -45t38.5 -130q0 -30 -13 -158q-14 -124 -14 -175q0 -65 26 -100q1 -1 2 -1q19 0 41 9.5t36 19.5t46 34q54 41 89.5 64.5t122.5 64.5t179 64.5t243 42t330 18.5q101 0 371 -14q215 -11 293 -11q152 0 233.5 28t106.5 108q7 24 34 19z" />
    <glyph glyph-name="i.alt2" unicode="&#xf022;" horiz-adv-x="2541" 
d="M2410 723q13 -2 21.5 -13.5t6.5 -28.5q-14 -107 -106 -157.5t-273 -50.5q-146 0 -392 16q-231 15 -369 15q-146 0 -268 -19t-197.5 -43.5t-148 -69t-104.5 -71.5t-82 -76q-38 -37 -57.5 -53.5t-52.5 -39t-67 -31.5t-76 -9q-118 0 -181.5 130t-63.5 374q0 150 26 210
q14 33 82 33q51 0 86 -17.5t36 -43.5q0 -20 -6 -78q-16 -162 -16 -272q0 -205 61 -261h3q30 0 60.5 15t50 32.5t58.5 55.5t61.5 59t73.5 60.5t96 62.5t120 53.5t154.5 47t190 28.5t236.5 12q100 0 370 -14q214 -11 293 -11q152 0 233.5 28t106.5 108q7 24 34 19zM148 878
q-37 0 -63.5 27t-26.5 64q0 40 27 67t65 27q37 0 66 -26t29 -67q0 -40 -28 -66t-69 -26z" />
    <glyph glyph-name="j.alt2" unicode="&#xf023;" horiz-adv-x="2226" 
d="M2095 810q13 -2 21.5 -13t6.5 -28q-13 -106 -106 -157t-274 -51q-161 0 -392 15t-368 15q-414 0 -721 -161q18 -136 18 -247q0 -313 -101 -518q-104 -212 -269 -212q-91 0 -140 85.5t-49 204.5q0 187 78 352t224 287q8 7 26 21q-36 235 -117 482q-6 18 3 31q17 24 67 24
q43 0 79 -18t56 -48q61 -94 109 -349q324 155 811 155q120 0 371 -13q234 -12 293 -12q152 0 233 28.5t106 108.5q7 23 35 18zM-90 -467q21 0 49.5 36t55 95.5t45 148t18.5 181.5q0 152 -15 299q-242 -219 -242 -541q0 -85 31.5 -152t57.5 -67zM-39 976q-39 0 -64.5 26
t-25.5 65q0 41 27.5 67.5t62.5 26.5q40 0 68 -27t28 -65q0 -40 -27 -66.5t-69 -26.5z" />
    <glyph glyph-name="k.alt2" unicode="&#xf024;" horiz-adv-x="2740" 
d="M2608 723q13 -2 21.5 -13.5t6.5 -28.5q-13 -106 -106 -157t-274 -51q-146 0 -392 16q-215 14 -368 14q-139 0 -260.5 -17.5t-225.5 -53.5t-160.5 -60.5t-144.5 -69.5q-60 -31 -92.5 -46t-76 -28t-78.5 -13q-70 0 -144.5 31t-118.5 78q11 -153 34 -267q6 -31 -8 -52.5
t-37 -30.5q-11 -4 -26 -4q-37 0 -52 29q-48 89 -77 311.5t-29 410.5q0 139 14.5 322.5t31.5 261.5q13 55 83 55q50 0 89.5 -22t44.5 -47q4 -23 -20 -188q-56 -377 -56 -561v-27q86 62 185.5 228.5t139.5 316.5q12 45 46 45q28 0 53 -23t25 -45q0 -75 -64 -204t-160.5 -247
t-177.5 -156v-1l1 -1q36 -62 93 -97.5t122 -35.5q29 0 63.5 11.5t60.5 24t77 40.5q70 38 111 58.5t134 56.5t178.5 55.5t217.5 35.5t278 16q101 0 371 -14q215 -11 293 -11q152 0 233.5 28t106.5 108q7 24 34 19z" />
    <glyph glyph-name="l.alt2" unicode="&#xf025;" horiz-adv-x="2555" 
d="M2424 723q13 -2 21.5 -13.5t6.5 -28.5q-13 -106 -106 -156.5t-274 -50.5q-160 0 -391 15t-369 15q-105 0 -196 -11t-156.5 -26.5t-126 -44.5t-97.5 -51.5t-79 -62t-61.5 -61.5t-53.5 -64q-36 -43 -56 -64.5t-54.5 -49t-72.5 -39t-86 -11.5q-128 0 -200.5 203t-72.5 563
q0 453 42 592q16 48 83 48q40 0 78.5 -18t42.5 -42q2 -12 -8 -105q-36 -313 -36 -611q0 -205 27 -361.5t68 -190.5h4q25 0 47 8t44.5 28t37.5 37t43 51q35 44 56.5 68.5t69.5 69t92 72t116.5 62t151.5 53.5t189.5 33t237.5 14q101 0 371 -14q214 -11 293 -11q152 0 233.5 28
t106.5 108q7 24 34 19z" />
    <glyph glyph-name="m.alt2" unicode="&#xf026;" horiz-adv-x="3366" 
d="M3236 723q13 -2 21.5 -13.5t6.5 -28.5q-13 -106 -106 -156.5t-274 -50.5q-160 0 -391 15t-369 15q-99 0 -186 -9.5t-150.5 -23t-124.5 -39t-98.5 -45t-82 -53.5t-65.5 -53t-59 -55q-51 -49 -79.5 -72.5t-77 -44t-103.5 -20.5q-37 0 -69.5 12.5t-55.5 30.5t-44 50
t-33.5 57.5t-26.5 68t-20.5 66.5t-17.5 67q-20 82 -34 117q-33 -19 -126 -159q-5 -7 -13 -20.5t-12 -18.5h-1q-24 -40 -76 -34q-28 3 -49.5 20.5t-24.5 46.5q-5 59 -5 285v6v36q0 144 -7 175h-1q-43 -49 -78.5 -119.5t-59.5 -156.5t-40.5 -157.5t-27.5 -164.5t-15.5 -132.5
t-9.5 -104.5v-1q0 -13 -16 -23q-15 -9 -39 -9q-25 0 -42 13q-67 52 -110.5 209.5t-43.5 348.5q0 54 0.5 78t3.5 58.5t9 47.5t17 28t28.5 19.5t42.5 4.5q47 0 86.5 -19t45.5 -44q5 -21 -6 -113q-8 -65 -11 -130q11 45 23.5 90t33 106.5t44.5 112t52.5 96t63.5 71.5t72 26
q44 0 75.5 -18t48.5 -45.5t26.5 -74t12 -88t2.5 -104.5q0 -79 -1 -117q55 72 134 72q28 0 52 -9t41 -21t33 -36t25.5 -43t20.5 -53t16.5 -54t15.5 -58q15 -60 24.5 -91.5t29 -68.5t43.5 -53q4 -2 7 -2q28 0 57.5 15.5t48 32t57.5 54.5q39 39 61.5 59.5t74 60.5t96 63
t119 53.5t153 47.5t187.5 29t233 12q101 0 371 -14q214 -11 293 -11q152 0 233.5 28t106.5 108q7 24 34 19z" />
    <glyph glyph-name="n.alt2" unicode="&#xf027;" horiz-adv-x="3020" 
d="M2890 723q13 -2 21.5 -13.5t6.5 -28.5q-13 -106 -106 -157t-274 -51q-146 0 -392 16q-231 15 -368 15q-98 0 -186.5 -10t-154 -24.5t-129.5 -40.5t-104.5 -46t-89 -54.5t-71.5 -54t-63 -54.5q-49 -43 -75 -63t-67 -38.5t-81 -18.5q-107 0 -163 105.5t-56 308.5
q0 29 4 119q4 131 2 166q-141 -171 -290 -712q0 -20 -20 -34q-17 -11 -38 -11t-38 11q-68 47 -113 207.5t-45 353.5q0 130 15 184q15 51 88 51q48 0 87 -18.5t45 -44.5q3 -14 -6 -115q-14 -145 -14 -201q0 -58 5 -133q78 267 166 429q101 186 186 186q93 0 126 -67t33 -205
q0 -18 -7 -135q-7 -96 -7 -163q0 -167 48 -201q1 -1 3 -1q19 0 42.5 13t40 26.5t53.5 45.5q42 37 66.5 58t80 60t103.5 63.5t125.5 55.5t157 48.5t187.5 30t228 12.5q101 0 371 -14q215 -11 293 -11q152 0 233.5 28t106.5 108q7 24 34 19z" />
    <glyph glyph-name="o.alt2" unicode="&#xf028;" horiz-adv-x="2666" 
d="M2535 811q13 -2 21.5 -13t6.5 -28q-13 -106 -106 -157t-274 -51q-160 0 -391 15t-369 15q-124 0 -221 -11.5t-171.5 -36.5t-114 -43t-101.5 -52q-101 -56 -167 -77q-37 -126 -103 -199t-148 -73q-92 0 -171 99t-92 227q-1 1 -3.5 2t-3.5 2q-127 96 -127 264
q0 158 100 275q103 120 250 120q64 0 122.5 -27.5t106.5 -80t76.5 -141t28.5 -200.5q0 -91 -14 -175q31 14 101 55q49 29 79 45t96 41.5t133.5 39t177 24.5t240.5 11q101 0 371 -14q215 -11 293 -11q152 0 233.5 28.5t106.5 108.5q7 23 34 18zM417 184q31 13 65.5 56.5
t60.5 108.5q-48 -7 -114 -7q-52 0 -94 7q12 -59 33 -103.5t44 -60.5q1 -1 5 -1zM569 433q20 87 20 177q0 96 -23 174.5t-57.5 123t-69.5 68t-64 23.5q-77 0 -147 -91.5t-83 -195.5q0 1 1 3l1 2q14 54 87 54q39 0 75 -17t40 -38q6 -26 -9 -117q-15 -103 -15 -151v-15
q48 -12 107 -12q80 0 137 12z" />
    <glyph glyph-name="p.alt2" unicode="&#xf029;" horiz-adv-x="2648" 
d="M2515 821q13 -2 21.5 -13.5t6.5 -28.5q-13 -106 -105.5 -156.5t-273.5 -50.5q-161 0 -392 15t-369 15h-36q-395 0 -592 -32q-14 -153 -118 -280q-56 -69 -124.5 -108t-132.5 -39t-99.5 39.5t-35.5 110.5q0 224 312 318q4 28 4 60q0 129 -40 198l-3 1h-4q-54 0 -112 -58
q-87 -88 -149.5 -275.5t-61.5 -423.5q15 -164 46 -290q13 -53 -27 -76q-15 -9 -33 -9t-31 11q-74 71 -120 323.5t-46 522.5q0 288 27 400q13 53 78 53q47 0 82.5 -18t40.5 -44q3 -14 -9 -143q-1 -9 -6.5 -61.5t-7.5 -83.5q51 116 131 199t159 83q118 0 197 -96
q73 -90 84 -230q242 37 702 37q100 0 370 -14q214 -11 293 -11q152 0 233.5 28t106.5 108q7 24 34 19zM388 236q56 22 101 100t70 178q-80 -33 -126 -79q-59 -58 -59 -140q0 -43 10 -58q0 -1 4 -1z" />
    <glyph glyph-name="q.alt2" unicode="&#xf02a;" horiz-adv-x="2953" 
d="M2822 723q13 -2 21.5 -13.5t6.5 -28.5q-13 -106 -106 -156.5t-274 -50.5q-161 0 -392 15t-368 15q-123 0 -228 -26.5t-178.5 -63t-139.5 -103.5t-104.5 -119.5t-79.5 -142t-59 -139t-49 -140.5q-19 -58 -29.5 -86.5t-28 -73t-32 -66.5t-34.5 -46.5t-43.5 -34.5t-50.5 -10
q-120 0 -191 216q-75 225 -75 621q0 106 2 159q-5 -12 -13 -34q-52 -131 -86 -176.5t-103 -45.5q-86 0 -147 82.5t-61 240.5q0 182 83 300.5t211 118.5q41 0 81.5 -11.5t59.5 -28.5v7q3 73 91 73q49 0 85.5 -22t40.5 -54q2 -20 -11 -186q-31 -367 -31 -574q0 -216 24.5 -393
t59.5 -209q1 -1 2 -1q11 0 20 10.5t19.5 40.5t15.5 49t18 71q20 80 34 128t43 131t70 157t93 139q266 331 795 331q101 0 371 -14q215 -11 293 -11q152 0 233 28t106 108q7 24 35 19zM205 308q43 51 109 240t68 217q0 5 -14.5 24.5t-23.5 26.5h-2q-2 1 -3 1t-3 -1h-2
q-66 -41 -105.5 -143.5t-39.5 -232.5q0 -81 16 -132z" />
    <glyph glyph-name="r.alt2" unicode="&#xf02b;" horiz-adv-x="2680" 
d="M2550 854q13 -2 21.5 -13t6.5 -28q-13 -106 -106 -157t-274 -51q-161 0 -392 15t-368 15q-209 0 -431 -22q-188 -18 -297 -18q-152 0 -274 95q-59 -67 -112.5 -237t-69.5 -378v-3q3 -16 -16 -27q-15 -9 -36 -9q-27 0 -44 16q-62 56 -110 213.5t-48 351.5q0 57 5.5 148.5
t8.5 114.5q3 20 25 32.5t56 12.5q49 0 91.5 -21.5t46.5 -48.5q1 -12 -5 -71q-19 -179 -19 -278q0 -7 0.5 -20.5t0.5 -20.5q20 66 39.5 116t44.5 97.5t55 73t63 25.5q20 0 39.5 -7t31 -13.5t33.5 -21.5q32 -21 51 -31.5t61.5 -22t91.5 -11.5q98 0 320 24q287 30 472 30
q120 0 371 -13q214 -11 293 -11q152 0 233.5 28t106.5 108q7 23 34 18z" />
    <glyph glyph-name="s.alt2" unicode="&#xf02c;" horiz-adv-x="2580" 
d="M2449 723q13 -2 21 -13.5t6 -28.5q-14 -107 -106 -157.5t-273 -50.5q-146 0 -392 16q-231 15 -369 15q-225 0 -423 -47.5t-348 -124.5q56 -54 56 -133q0 -81 -91 -162.5t-197 -81.5q-60 0 -99.5 31.5t-39.5 79.5q0 59 47.5 125.5t135.5 130.5q-42 19 -73 31
q-41 17 -60.5 25t-58 27.5t-59 34.5t-48.5 40t-42.5 50.5t-25 61t-10.5 75.5q0 66 31 136t82 127t123 94t147 37q111 0 197 -70t86 -189q0 -65 -27.5 -129.5t-55.5 -64.5q-22 0 -36 21q-10 13 -5 29q23 69 23 118q0 53 -16.5 92.5t-40.5 54.5q-2 2 -8 2
q-90 -4 -188.5 -112.5t-98.5 -217.5q0 -25 11 -47t25 -36.5t43 -31.5t48 -26t56 -25q55 -24 87 -41q170 93 407.5 149t520.5 56q100 0 370 -14q215 -11 293 -11q152 0 233.5 28t106.5 108q7 24 35 19zM298 44q56 2 119.5 59.5t63.5 112.5q0 29 -22 53q-79 -54 -122 -107
t-43 -96q0 -14 3 -22h1z" />
    <glyph glyph-name="t.alt2" unicode="&#xf02d;" horiz-adv-x="2553" 
d="M2421 723q13 -2 21.5 -13.5t6.5 -28.5q-13 -106 -105.5 -156.5t-273.5 -50.5q-161 0 -392 15t-369 15q-104 0 -197 -12.5t-161.5 -29t-134 -48t-106 -56t-89 -66t-71 -64.5t-61.5 -65q-47 -51 -71.5 -74.5t-64.5 -45t-81 -21.5q-129 0 -202 204.5t-73 565.5q0 154 6 276
q-80 -5 -188 -16h-5q-29 0 -35 30q-2 15 4.5 28t21.5 17q34 10 207 20q9 131 26 215q14 66 87 66q49 0 83.5 -18t40.5 -42q3 -10 -8 -106q-1 -12 -5.5 -48t-6.5 -59q12 0 34 0.5t32 0.5q93 0 135 -6q16 -2 26 -16t8 -29q-2 -25 -28 -25q-80 1 -214 -2q-19 -218 -19 -422
q0 -239 28.5 -380.5t66.5 -176.5h3q17 0 35.5 18t53.5 61q30 37 50 60t58.5 61.5t85 73.5t100.5 65q274 155 704 155q100 0 370 -14q214 -11 293 -11q152 0 233.5 28t106.5 108q7 24 34 19z" />
    <glyph glyph-name="u.alt2" unicode="&#xf02e;" horiz-adv-x="2994" 
d="M2862 723q13 -2 21.5 -13.5t6.5 -28.5q-13 -106 -106 -157t-274 -51q-146 0 -392 16q-231 15 -368 15q-116 0 -218.5 -12.5t-176 -29.5t-143.5 -48t-112 -55t-90.5 -64.5t-70 -61.5t-58.5 -61q-40 -42 -60 -61t-51.5 -36t-63.5 -17q-58 0 -110 38.5t-90 110.5
q-66 125 -69 285q-23 -67 -40 -111t-39.5 -88.5t-44.5 -70t-50 -41.5t-60 -16q-92 0 -148.5 110t-56.5 288q0 142 24 235q2 7 5.5 13.5t12 16t25.5 15.5t39 6q75 0 110 -38q22 -24 19 -53q0 -2 -11 -97q-20 -156 -20 -256q0 -120 18 -148h1q96 59 232 584q0 1 0.5 4t0.5 4
q7 58 88 58t119 -43q23 -26 18 -59q-29 -209 -29 -362q0 -123 23 -215.5t49 -92.5q11 0 26 10.5t25.5 22t35.5 39.5q31 34 51 55t59 57t86 68.5t102 60.5q279 145 717 145q101 0 371 -14q214 -11 293 -11q152 0 233.5 28t106.5 108q7 24 34 19z" />
    <glyph glyph-name="v.alt2" unicode="&#xf02f;" horiz-adv-x="2562" 
d="M2430 907q13 -2 21.5 -13t6.5 -28q-13 -106 -106 -157t-274 -51q-161 0 -392 15t-368 15q-234 0 -494 -38q-175 -26 -277 -26h-1q-50 -585 -259 -585q-149 0 -225 215q-62 175 -62 442v13q0 74 3 109q6 61 87 61q44 0 84.5 -20.5t44.5 -47.5q4 -31 -2 -132q-4 -70 -4 -98
q0 -154 31 -294.5t65 -161.5q58 38 101.5 203.5t47.5 329.5q1 23 18 39.5t40 16.5q143 0 359 27q280 36 517 36q101 0 371 -14q214 -11 293 -11q152 0 233.5 28.5t106.5 108.5q7 23 34 18z" />
    <glyph glyph-name="w.alt2" unicode="&#xf030;" horiz-adv-x="2998" 
d="M2866 907q13 -2 21.5 -13.5t6.5 -28.5q-13 -106 -106.5 -157t-273.5 -51q-146 0 -392 16q-215 14 -369 14q-112 0 -199.5 -9t-128 -18.5t-97.5 -26.5q-47 -14 -70.5 -20t-70.5 -12t-100 -6q-65 0 -113 12l-1 1q1 -6 3 -53l1 -43q0 -136 -29.5 -262.5t-85.5 -210
t-125 -83.5q-105 0 -188 122t-111 311q-25 -71 -40 -109t-39.5 -88.5t-46 -75.5t-52.5 -43.5t-67 -18.5q-89 0 -155.5 98t-66.5 268q0 96 13.5 197t31.5 142q20 45 85 45q84 0 117 -43q17 -22 11 -49l-3 -9q-56 -211 -56 -382q0 -56 12.5 -107t27.5 -68q2 -2 6 0
q28 13 71.5 108.5t83 232.5t53.5 254v1q0 92 9 146q15 82 93 82q54 0 85 -25t34 -60q1 -8 -3 -141q-4 -156 -4 -226q0 -198 35.5 -321.5t76.5 -151.5q2 0 3 1q59 58 97.5 211.5t38.5 332.5v14q0 60 13 73q12 12 35 12q11 0 45 -6q65 -10 96 -10q49 0 93 6t66.5 12.5
t65.5 19.5q66 20 110 31t156.5 23t258.5 12q100 0 370 -14q215 -11 294 -11q152 0 233 28t106 108q7 24 35 19z" />
    <glyph glyph-name="x.alt2" unicode="&#xf031;" horiz-adv-x="2758" 
d="M2627 723q13 -2 21.5 -13.5t6.5 -28.5q-13 -106 -105.5 -156.5t-273.5 -50.5q-161 0 -392 15t-369 15q-101 0 -189.5 -10.5t-152.5 -25t-124.5 -41.5t-97 -48t-79 -57.5t-62.5 -57t-55 -59.5q-36 -40 -57 -60.5t-55.5 -46t-72.5 -36.5t-85 -11q-163 0 -305 194
q-139 -228 -157 -251q-10 -15 -28 -15q-10 0 -18 4q-14 6 -23 18.5t-7 22.5q10 52 165 330q-110 205 -141 469q-3 27 14 47q24 27 77 27q117 0 141 -119q22 -103 45 -187q171 291 208 326q14 14 38 14q29 0 56 -21q28 -23 13 -44q-40 -61 -266 -429q51 -142 106.5 -221
t105.5 -79q34 0 66 17.5t52.5 37t59.5 62.5q36 40 58.5 62.5t71 63t92.5 65.5t116.5 56.5t150 49t185 30t229.5 12.5q100 0 370 -14q215 -11 293 -11q152 0 233.5 28t106.5 108q7 24 34 19z" />
    <glyph glyph-name="y.alt2" unicode="&#xf032;" horiz-adv-x="2709" 
d="M2578 723q13 -2 21.5 -13.5t6.5 -28.5q-13 -106 -106 -157t-274 -51q-146 0 -392 16q-215 14 -368 14q-437 0 -744 -135q12 -99 12 -191q0 -311 -98 -516q-102 -215 -273 -215q-85 0 -135.5 78.5t-50.5 209.5q0 391 331 614q-22 169 -60 321q-74 -441 -249 -441
q-89 0 -150 99t-61 242q0 109 35 233q13 43 75 43q39 0 71.5 -15t46.5 -35q14 -18 9 -35l-2 -6q-45 -148 -45 -267q0 -67 10 -116t23 -62h3q61 31 115 205t59 355q-7 22 4 40q15 23 61 23q87 0 128 -51q36 -45 71.5 -163t57.5 -263q339 138 830 138q101 0 371 -14
q215 -11 293 -11q152 0 233.5 28t106.5 108q7 24 34 19zM364 -475q25 0 54.5 38t55 100t42.5 152t17 183q0 116 -13 251q-244 -193 -244 -509q0 -80 31.5 -147.5t56.5 -67.5z" />
    <glyph glyph-name="z.alt2" unicode="&#xf033;" horiz-adv-x="2547" 
d="M2417 723q13 -2 21.5 -13.5t6.5 -28.5q-13 -106 -106 -157t-274 -51q-146 0 -392 16q-231 15 -368 15q-120 0 -238 -28t-217.5 -75.5t-174 -94.5t-141.5 -101q99 -93 99 -261q0 -89 -35.5 -179.5t-99.5 -166.5q-63 -74 -139 -115.5t-148 -41.5q-85 0 -126 55t-41 133
q0 97 88 250.5t243 300.5q-26 20 -59 20q-42 0 -131 -25q-1 0 -3 -1q-18 -6 -34 -6q-36 0 -60 15.5t-32 37.5q-11 32 17 53q120 90 215 241.5t95 252.5q0 49 -13.5 79.5t-31.5 30.5q-52 0 -111.5 -45t-97 -103.5t-37.5 -100.5q0 -11 -12 -18t-27 -7q-22 0 -35 10
q-18 13 -18 35q0 72 42 148t115 128t151 52q117 0 191 -75.5t74 -194.5q0 -88 -62.5 -201t-152.5 -206q62 -19 104 -43q200 163 435.5 249.5t481.5 86.5q101 0 371 -14q214 -11 293 -11q152 0 233.5 28t106.5 108q7 24 34 19zM356 -345q92 141 92 297q0 89 -24 155
q-128 -125 -205 -253.5t-77 -219.5q0 -46 14.5 -78.5t31.5 -32.5q38 0 83.5 35.5t84.5 96.5z" />
    </font>
</defs>
</svg>
