<svg xmlns="http://www.w3.org/2000/svg" xmlns:xlink="http://www.w3.org/1999/xlink" viewBox="0 0 392.2 390.3" style="enable-background:new 0 0 392.2 390.3" xml:space="preserve"><g id="Layer_3"><defs><path id="SVGID_1_" d="M375.2 174.6c9.8-28.6-12.1-54-17.8-60-.6-30.3-29.8-46.6-37.3-50.3-10.9-28.2-44-33.6-52.2-34.5C248 7 215 13.3 207 15.2c-26.5-14.6-55.3 2.5-62.2 7.1-29.9-4.7-51.1 21.3-56 28-29.7 5.8-40.7 37.5-43.1 45.4-25.9 15.6-25.5 49.2-24.9 57.4-19 23.5-7.1 54.9-3.8 62.5-9.8 28.6 12.1 54 17.8 60 .6 30.3 29.8 46.6 37.3 50.3 10.9 28.2 44 33.6 52.2 34.5 19.9 22.8 52.8 16.5 60.9 14.6 26.5 14.6 55.3-2.5 62.2-7.1 29.9 4.7 51.1-21.3 56-28 29.7-5.8 40.7-37.5 43.1-45.4 25.9-15.6 25.5-49.2 24.9-57.4 19-23.5 7.1-54.9 3.8-62.5z"/></defs><use xlink:href="#SVGID_1_" style="overflow:visible;fill:current"/><clipPath id="SVGID_00000174563850085839088140000004157238593519748781_"><use xlink:href="#SVGID_1_" style="overflow:visible"/></clipPath><g style="opacity:.22;clip-path:url(#SVGID_00000174563850085839088140000004157238593519748781_)"><path d="M383.2 233.8c12.3-19.8 10.7-45.5 2.6-66.7l-.6.3c4.8-22.8-5.5-46.5-20.4-63.5l-.5.5c-3.3-23.1-21-41.8-40.9-52.7l-.3.6c-11-20.6-34.1-32.1-56.4-35.5v.7C249.3 2 223.7-.9 201.5 3.4c0 0 .1.2.2.7-21.7-8.7-46.7-2.7-66.1 9.1 0 0 .2.2.4.6-23.3-.8-44.8 13.4-59 31 0 0 .2.2.6.4-22.2 7.3-37.5 28-44.8 49.4 0 0 .3.1.7.2-18.3 14.4-25.7 39.1-25.2 61.8 0 0 .3 0 .7-.1-12.3 19.8-10.8 45.5-2.6 66.6 0 0 .3-.1.6-.3-4.8 22.8 5.5 46.5 20.4 63.5l.5-.5c3.3 23.1 21 41.8 40.9 52.7 0 0 .1-.3.3-.6 11 20.6 34.1 32.1 56.4 35.5v-.7c17.4 15.5 43 18.5 65.2 14.1 0 0-.1-.3-.2-.7 21.7 8.7 46.7 2.7 66.1-9.1 0 0-.2-.2-.4-.6 23.3.7 44.8-13.5 59-31.1 0 0-.2-.1-.6-.4 22.2-7.3 37.5-28 44.8-49.4 0 0-.2-.1-.7-.2 18.3-14.4 25.7-39.1 25.2-61.8 0 .2-.2.3-.7.3zm-75.6 96.7c-8.4 4.1-18.9 4.6-28.2 3-1.6-.2-5.3-1.1-7-1.4-2.6-.6-5.5-1.7-8.1-2.4-16-5.8-30.6-14.6-44.7-24.4 13.3 12.8 28.1 25.3 44.9 33.7 5.8 2.9 12 5.3 18.3 6.8-7.7 7.7-17.2 13.6-28.2 14.7-9.3 1-19.3-2.1-27.6-6.8-1.5-.7-4.6-2.9-6.1-3.7-2.2-1.5-4.6-3.5-6.8-5.1-13.1-11-23.8-24.2-33.7-38.3 8.1 16.6 17.7 33.4 30.7 47 4.5 4.7 9.4 9.1 14.8 12.7-9.9 4.7-20.9 6.9-31.5 4.2-9.1-2.2-17.4-8.6-23.6-15.8-1.1-1.2-3.4-4.3-4.4-5.6-1.6-2.1-3.2-4.8-4.7-7.1-8.5-14.8-14.1-30.8-18.6-47.5 2 18.4 5.2 37.5 12.8 54.7 2.6 6 5.8 11.7 9.6 17-10.9 1-22-.6-31.1-6.8-7.8-5.2-13.4-14.1-16.7-22.9-.7-1.5-1.7-5.2-2.2-6.8-.8-2.6-1.3-5.6-2-8.2-3-16.8-2.7-33.8-1.2-51-4.4 17.9-7.9 37-6.7 55.8.4 6.5 1.4 13 3.2 19.2-10.6-2.8-20.4-8.1-26.9-17-5.5-7.5-7.8-17.8-7.9-27.3-.1-1.6.2-5.4.2-7.1.2-2.7.7-5.7 1-8.4 3-16.8 9-32.7 16.3-48.3-10.3 15.3-20.1 32.1-25.4 50.1-1.9 6.2-3.1 12.7-3.5 19.2-9-6.2-16.4-14.6-19.4-25.2-2.6-9-1.2-19.4 1.9-28.3.4-1.6 2-5 2.6-6.6 1.1-2.5 2.6-5.1 3.8-7.6 8.5-14.8 19.7-27.6 31.8-39.8-14.9 10.9-29.8 23.3-41 38.4-3.9 5.2-7.3 10.9-9.9 16.8-6.3-8.9-10.4-19.3-9.6-30.3.6-9.3 5.5-18.6 11.5-26 .9-1.3 3.6-4.1 4.7-5.3 1.8-1.9 4.2-3.9 6.2-5.8 13.1-11 27.9-19.3 43.5-26.5-17.8 5.1-36 11.7-51.6 22.1-5.4 3.6-10.6 7.7-15 12.4-2.9-10.5-3.2-21.7 1.3-31.8 3.7-8.6 11.5-15.6 19.7-20.5 1.3-.9 4.8-2.6 6.3-3.4 2.4-1.2 5.3-2.3 7.8-3.4 16-5.8 32.8-8.5 50-10-18.4-1.3-37.8-1.4-56.1 3.1-6.3 1.5-12.6 3.6-18.4 6.5.9-10.9 4.4-21.5 12.1-29.4 6.4-6.8 16.2-10.8 25.5-12.5 1.6-.4 5.4-.8 7-1 2.7-.3 5.8-.3 8.4-.5 17.1 0 33.8 3.2 50.4 7.7-16.9-7.5-35.1-14.2-53.8-16.3-6.5-.7-13-.9-19.5-.2 4.6-9.9 11.5-18.7 21.5-23.5 8.4-4.1 18.9-4.6 28.2-3 1.6.2 5.3 1.1 7 1.4 2.6.6 5.5 1.7 8.1 2.4 16 5.8 30.6 14.6 44.7 24.4-13.3-12.8-28.1-25.3-44.9-33.7-5.8-2.9-12-5.3-18.3-6.8 7.7-7.7 17.2-13.6 28.2-14.7 9.3-1 19.3 2.1 27.6 6.8 1.5.7 4.6 2.9 6.1 3.7 2.2 1.5 4.6 3.5 6.8 5.1 13.1 11 23.8 24.2 33.7 38.3C203.6 67 194 50.2 181 36.6c-4.5-4.7-9.4-9.1-14.8-12.7 9.9-4.7 20.9-6.9 31.5-4.2 9.1 2.2 17.4 8.6 23.6 15.8 1.1 1.2 3.4 4.3 4.4 5.6 1.6 2.1 3.2 4.8 4.7 7.1C238.9 63 244.5 79 249 95.7c-2-18.4-5.2-37.5-12.8-54.7-2.6-6-5.8-11.7-9.6-17 10.9-1 22 .7 31.1 6.8 7.8 5.2 13.4 14.1 16.7 22.9.7 1.5 1.7 5.2 2.2 6.8.8 2.6 1.3 5.6 2 8.2 3 16.8 2.7 33.8 1.2 51 4.4-17.9 7.9-37 6.7-55.8-.4-6.5-1.4-13-3.2-19.2 10.6 2.8 20.4 8.1 26.9 17.1 5.5 7.5 7.8 17.8 7.9 27.3.1 1.6-.2 5.4-.2 7.1-.2 2.7-.7 5.7-1 8.4-3 16.8-9 32.7-16.3 48.3 10.3-15.3 20.1-32.1 25.4-50.1 1.9-6.2 3.1-12.7 3.5-19.2 9 6.2 16.4 14.6 19.4 25.2 2.6 9 1.2 19.4-1.9 28.3-.4 1.6-2 5-2.6 6.6-1.1 2.5-2.6 5.1-3.8 7.6-8.5 14.8-19.7 27.6-31.8 39.8 14.9-10.9 29.8-23.3 41-38.4 3.9-5.2 7.3-10.9 9.9-16.8 6.3 8.9 10.4 19.3 9.6 30.3-.6 9.3-5.5 18.6-11.5 26-.9 1.3-3.6 4.1-4.7 5.3-1.8 1.9-4.2 3.9-6.2 5.8-13.1 11-27.9 19.3-43.5 26.5 17.8-5.1 36-11.7 51.6-22.1 5.4-3.6 10.6-7.7 15-12.4 2.9 10.5 3.2 21.7-1.3 31.8-3.7 8.6-11.5 15.6-19.7 20.5-1.3.9-4.8 2.6-6.3 3.4-2.4 1.2-5.3 2.3-7.8 3.4-16 5.8-32.8 8.5-50 10 18.4 1.3 37.8 1.4 56.1-3.1 6.3-1.5 12.6-3.6 18.4-6.5-.9 10.9-4.5 21.5-12.1 29.4-6.4 6.8-16.2 10.8-25.5 12.5-1.6.4-5.4.8-7 1-2.7.3-5.8.3-8.4.5-17.1 0-33.8-3.2-50.4-7.7 16.9 7.5 35.1 14.2 53.8 16.3 6.5.7 13 .9 19.5.2-4.8 9.9-11.8 18.7-21.7 23.5z" style="fill:#fff"/></g><g><path d="M196.1 261.5c-35.9 0-65-29.1-65-65s29.1-65 65-65 65 29.1 65 65-29.1 65-65 65z" style="fill:#fff6e9"/></g><g id="XMLID_00000034056121062222290510000006678358490112727710_" style="opacity:.92"><defs><circle id="SVGID_00000093150528996287675330000013576114368873037233_" cx="1245.5" cy="-2153.1" r="220.3"/></defs><clipPath id="SVGID_00000103243725619306252930000004501004832931485340_"><use xlink:href="#SVGID_00000093150528996287675330000013576114368873037233_" style="overflow:visible"/></clipPath><g style="clip-path:url(#SVGID_00000103243725619306252930000004501004832931485340_)"><defs><path id="SVGID_00000047057300308991468430000010328912738617725866_" d="M-2452.1-2372.8h7082.2v6952.4h-7082.2z"/></defs><clipPath id="SVGID_00000005972907177778318820000016425226715504700565_"><use xlink:href="#SVGID_00000047057300308991468430000010328912738617725866_" style="overflow:visible"/></clipPath><path style="clip-path:url(#SVGID_00000005972907177778318820000016425226715504700565_);fill:none" d="M-2169.3-2155h6516.6v6516.6h-6516.6z"/></g></g></g></svg>