<svg class="img-fluid" xmlns="http://www.w3.org/2000/svg" style="transform:none;transform-origin:50% 50%;cursor:move" viewBox="0 0 3650 3650"><path d="M1635 3628c-214-21-445-91-645-194-349-180-629-466-800-819-480-988 16-2168 1056-2514 588-196 1232-82 1710 303 109 88 264 252 346 367 84 117 197 340 242 479 177 539 98 1108-220 1587-80 120-241 296-359 393-367 300-855 446-1330 398zm350-1174c106-25 202-80 291-169 44-44 95-105 111-135 186-330 61-748-271-910-108-53-181-70-296-70-181 0-334 63-461 189-126 127-189 280-189 461 0 116 17 188 71 297 133 273 436 410 744 337z" fill="current" style="transform:none"/></svg>