<svg class="img-fluid" xmlns="http://www.w3.org/2000/svg" style="transform:none;transform-origin:50% 50%;cursor:move" viewBox="0 0 5890 5890"><g fill="#C7CEEA" style="transform:none"><path d="M2965 4384c-22-8-53-19-70-24-46-14-127-87-155-139-15-26-34-58-43-71-9-14-17-36-17-51 0-14-6-46-13-70-12-42-5-119 15-169 4-8 9-27 12-42 6-27 31-60 91-119 58-58 72-69 84-69 6 0 22-7 35-15 30-20 127-38 191-36 65 2 167 36 197 65 13 13 33 28 45 35 27 14 83 97 114 171 25 58 29 125 12 225-14 86-89 188-187 254-58 39-56 38-121 49-120 21-149 22-190 6zm158-219c62-19 98-56 122-127 18-55 18-59 2-93-9-20-17-45-17-55 0-11-7-20-15-20s-19-8-24-18c-6-11-35-28-66-39-55-21-57-21-106-2-77 27-92 41-117 105-18 46-21 70-16 109 9 66 23 87 86 124 60 34 83 37 151 16zM1000 4143c-124-38-250-127-250-176 0-9-5-19-11-23-29-17-61-133-59-209 1-53 31-153 57-195 35-56 97-122 127-135 17-8 42-20 56-28 38-22 113-37 184-37 78 0 194 43 241 88 62 61 106 117 111 142 3 14 12 39 19 55 24 56 28 164 7 220-41 112-123 235-157 235-7 0-24 9-38 20-28 22-129 50-197 54-25 1-65-4-90-11zm186-237c44-20 53-30 73-77 29-66 25-127-12-186-33-52-116-98-162-89-16 3-40 7-52 9-32 6-68 32-99 72-26 34-27 40-21 121 4 77 8 89 33 116 60 62 152 75 240 34zM5028 3963c-20-2-42-11-48-19-7-8-20-14-29-14s-40-16-70-35c-80-51-137-140-162-257-22-99-19-188 7-209 8-6 14-22 14-34s7-28 15-35 15-18 15-25c0-24 95-109 150-137 68-33 152-58 194-58 29 0 73 12 176 49 51 18 132 94 172 162 48 80 61 135 55 224-6 79-20 122-70 208-28 48-144 147-172 147-12 0-35 6-51 14-32 16-138 26-196 19zm133-227c47-16 119-76 119-98 0-9 4-19 9-22 14-9 6-107-11-146-35-77-105-113-189-98-30 5-61 15-69 22s-23 16-33 19c-9 4-21 17-27 31-5 13-14 27-19 31-15 8-14 141 1 168 16 32 59 73 93 91 36 19 77 20 126 2zM2610 2365c-36-14-73-25-83-25s-28-11-41-25-28-25-34-25c-17 0-73-77-108-151-41-85-57-186-38-238 7-20 16-53 19-73 4-24 21-55 45-83 22-26 45-55 50-66 6-10 16-19 23-19s36-16 66-36c36-24 77-41 122-51 134-27 292 23 375 120 134 158 146 401 27 525-24 24-43 48-43 53s-7 9-15 9-23 9-32 20c-10 11-23 20-29 20s-22 8-35 19c-25 19-61 30-119 36-19 2-46 6-60 9-14 2-54-6-90-19zm175-223c45-15 52-22 77-72 38-77 43-112 24-151-9-18-16-37-16-44 0-17-51-62-83-74-50-19-146-14-184 10-44 27-81 103-81 165 0 143 115 215 263 166zM4414 1816c-16-4-36-12-44-17s-39-23-68-40-61-43-70-56c-9-14-27-34-39-46-13-11-23-26-23-32s-8-21-17-35c-9-13-18-33-19-44-20-143-22-171-14-187 6-10 10-28 10-40 0-34 41-107 87-158 24-25 43-50 43-54 0-5 35-24 77-44 84-39 187-55 258-40 119 25 305 175 305 245 0 12 4 23 9 26 13 9 33 124 25 149-4 12-8 36-9 52-3 45-42 138-65 154-11 7-20 19-20 26 0 23-116 115-167 132-53 18-210 24-259 9zm190-225c46-20 96-81 96-119 0-10 5-23 11-29 28-28-36-160-91-188-17-9-53-19-80-22-60-7-103 11-160 67l-40 39v80c0 54 4 83 13 88 7 4 20 20 30 36 10 15 24 27 31 27 8 0 16 6 19 14 5 13 28 18 104 24 12 1 42-7 67-17z"/></g><g fill="#B5EAD7" style="transform:none"><path d="M2671 5307c-5-5-27-13-50-18-49-11-160-90-180-127-8-15-24-39-37-54-57-69-71-257-25-347 12-22 21-47 21-55s32-47 71-85c53-52 81-72 108-77 20-4 43-12 51-19 20-17 170-21 230-6 77 19 103 33 163 84 44 38 68 69 98 128 36 72 39 85 39 158 0 92-20 180-50 218-11 14-20 31-20 38 0 30-158 148-222 166-43 11-184 8-197-4zm159-230c65-23 110-83 110-147-1-79-16-120-60-162-36-35-49-41-93-44-88-7-133 13-179 76-39 54-39 56-33 120 8 78 22 102 83 141 51 32 110 38 172 16zM2825 3276c-27-12-54-24-60-29-73-54-125-103-131-120-3-12-15-32-26-44-30-32-41-87-41-203 0-103 1-106 38-174 31-55 52-78 111-122 40-30 85-59 99-64 61-23 170-42 211-36 73 10 237 104 251 144 3 9 14 26 24 37 24 27 70 170 70 220 1 78-1 94-10 99-5 4-12 24-16 46-4 21-20 57-36 80-16 22-29 44-29 49 0 12-106 91-123 91-8 0-20 6-26 14-31 37-228 45-306 12zm226-207c9-5 35-31 58-58 40-47 41-51 41-121 0-55-5-80-20-105-24-38-112-85-161-85-38 0-149 54-149 73 0 6-8 20-19 31-26 30-31 92-12 153 12 41 25 59 58 83 24 16 51 30 60 30 10 0 25 5 33 10 16 11 83 4 111-11zM852 3120c-29-4-62-14-75-22-12-8-35-18-51-22-47-12-130-99-170-180-32-64-37-84-38-152-2-94 28-204 71-258 35-44 119-111 152-121 13-4 33-13 44-20 46-28 237-35 266-9 8 7 31 19 50 25 19 7 51 27 72 46 20 18 42 33 47 33 6 0 10 5 10 11s16 30 34 53c45 54 58 107 58 228-1 72-5 104-16 120-9 12-16 30-16 39s-7 22-15 29-15 20-15 30-12 25-26 35c-14 9-33 24-42 33-78 78-219 120-340 102zm177-239c53-28 73-68 79-161 4-73 3-76-29-116-46-56-59-63-129-71-51-5-67-2-105 17-60 31-80 56-95 117-23 99 8 175 87 218 58 30 126 29 192-4zM4694 2915c-49-15-84-36-136-79-115-96-158-184-158-327 0-45 24-135 41-153 5-6 9-17 9-26 0-26 53-93 86-110 16-8 35-23 42-32 7-10 21-18 30-18s26-7 36-15c11-8 29-15 41-15s25-4 31-9c17-17 137-19 184-3 64 21 61 20 105 47 22 13 49 28 60 33 26 12 95 95 95 114 0 7 7 24 16 37s21 39 26 60c14 56 20 189 8 196-5 3-10 13-10 21s-14 43-30 78c-44 92-96 137-229 201-52 25-167 25-247 0zm211-231c25-14 54-41 66-61 19-30 21-44 16-114-5-76-7-81-45-119-22-22-47-40-55-40-9 0-19-5-23-11-7-12-52-8-119 9-64 17-135 110-135 177 0 14 11 48 25 74 18 37 37 56 77 80 69 40 131 42 193 5zM1670 2443c-30-2-59-8-66-14-6-5-38-24-72-41-64-35-150-123-169-174-50-135-53-238-7-318 13-22 24-48 24-58 0-22 123-134 174-157 78-36 154-53 204-46 59 9 191 52 212 69 45 39 96 95 107 117 46 98 57 130 70 206 6 39-13 129-35 163-9 14-24 41-34 60-20 41-102 130-120 130-8 0-29 11-48 24-31 20-64 29-160 40-14 1-50 1-80-1zm126-228c47-9 115-75 119-116 1-19 6-42 10-52 21-51-32-140-106-178-50-25-128-25-160 0-13 10-34 21-46 25-34 11-57 55-64 125-6 59-4 67 21 108 15 24 40 53 56 65 26 21 93 38 124 32 8-1 29-5 46-9z"/></g><g fill="#FEBC20" style="transform:none"><path d="M3946 4905c-15-8-33-15-40-15-18 0-108-68-136-103-55-68-86-140-100-229-12-80-12-94 5-150 26-90 41-116 100-174 80-80 233-143 318-131 91 13 143 28 177 52 63 44 160 141 160 160 0 10 7 26 16 36s21 50 28 91c17 102 1 185-58 287-23 39-129 141-147 141-9 0-22 6-28 14-15 17-61 26-176 32-69 4-97 1-119-11zm199-224c48-22 68-37 76-58 6-15 15-36 20-46 5-9 10-44 11-76 1-55-1-63-36-105-44-54-61-64-119-72-34-5-55-1-98 19-100 46-140 134-108 242 15 51 23 60 89 98 58 34 86 34 165-2zM2012 4459c-64-19-165-81-215-133-40-40-57-68-76-121-25-74-38-229-21-240 6-4 10-19 10-34 0-16 6-34 14-40s20-26 27-43c17-41 84-111 129-133 19-10 42-23 50-30 17-14 116-34 175-35 54-1 117 13 146 33 13 10 32 17 42 17 11 0 33 15 51 34 17 18 37 35 45 38 25 7 66 85 100 188 17 52 20 78 15 123-4 32-11 60-15 63-5 3-9 16-9 30s-11 42-25 62-25 41-25 47c-1 19-35 50-110 101-76 52-89 56-250 79-14 2-40 0-58-6zm153-230c17-11 40-24 53-29 12-5 22-15 22-22 0-6 10-22 21-34 29-31 34-116 8-165-26-52-70-101-84-95-7 2-21-2-32-9-16-11-29-11-79-1-82 18-109 33-139 77-38 53-38 126-1 196 30 57 63 83 116 94 61 12 84 9 115-12zM3635 2623c-11-3-24-9-29-14-6-5-20-9-32-9-35 0-134-66-186-124-26-30-48-57-48-60 0-4-9-25-19-49-46-102-41-274 9-337 11-14 28-41 39-60 17-31 114-110 136-110 5 0 16-7 26-16 22-20 196-46 221-33 9 5 26 9 36 9 31 0 131 55 192 105 63 51 91 106 114 218 13 62 13 81 1 137-7 35-12 67-9 71 2 3-5 14-16 24s-20 24-20 32c0 26-133 163-158 163-9 0-33 8-52 18-19 11-62 22-96 25-33 4-67 8-75 10-8 3-23 2-34 0zm113-233c57-12 61-14 101-72 43-63 47-84 30-158-14-61-60-107-126-126-48-14-57-14-108 2-83 27-121 72-130 158-7 65-7 67 31 122 22 31 46 59 54 61s26 11 40 19c14 7 30 12 36 9 7-2 39-9 72-15zM1985 1366c-142-31-270-173-295-328-15-94 0-185 40-246 17-26 36-59 42-74 7-14 29-37 51-50 21-13 52-35 67-49 16-15 50-32 77-38 44-10 76-12 186-12 22 0 55 11 81 26 23 14 50 25 58 25 9 0 27 12 40 28 12 15 35 35 50 44 14 10 30 28 34 40 4 13 20 39 35 58 16 19 29 45 29 58s5 32 11 43c13 25-8 217-26 239-7 8-22 33-33 55-30 60-133 148-202 173-47 16-183 21-245 8zm182-217c39-12 99-91 108-142 6-32 1-60-28-140-7-21-25-36-63-53-106-48-159-41-229 33-44 46-55 75-55 150 0 58 18 91 72 130 61 44 108 49 195 22z"/></g><g fill="#FF9AA2" style="transform:none"><path d="M3975 3880c-107-22-150-43-233-115-43-38-106-149-104-185 0-8-4-40-10-72-8-44-7-66 5-105 8-26 18-60 21-74 5-22 42-76 85-124 40-44 124-104 161-115 59-17 196-18 240-2 129 48 228 135 261 228 32 93 40 188 22 264-15 65-47 130-64 130-5 0-11 11-15 24-7 27-98 106-124 106-9 0-20 3-23 6-4 4-30 15-59 25-56 19-97 22-163 9zm148-239c43-18 51-28 78-85 26-55 29-72 24-111-9-57-32-86-98-123-39-22-64-29-97-27-79 3-103 14-144 66-37 49-38 52-34 118 8 156 126 226 271 162zM1870 3430c-82-18-190-70-190-90 0-6-11-15-24-20-15-5-34-30-51-63-14-30-29-58-33-61-13-14-41-144-42-192 0-36 7-65 24-95 13-24 27-55 31-69s16-38 27-53c32-45 137-127 162-127 13 0 29-6 35-14 7-9 42-17 85-21 63-6 87-3 167 20 75 21 100 33 124 59 17 18 40 36 52 40 11 4 31 26 43 49s31 59 42 79c16 30 20 59 21 140 0 57-3 119-8 138-13 55-165 240-198 240-6 0-34 11-61 25-52 26-130 32-206 15zm156-235c71-37 91-64 99-132 9-76-11-125-71-176-41-36-49-39-112-40-54-1-74 4-105 22-40 25-70 74-81 131-10 60 34 180 66 180 6 0 21 9 35 20 37 29 107 27 169-5zM3465 1529c-43-12-82-31-100-48-16-16-40-34-52-40-46-24-143-203-143-265 0-72 25-192 47-225 13-19 23-39 23-45 0-17 93-106 111-106 9 0 24-8 33-19 20-22 120-55 141-47 9 3 26 0 40-6 19-9 36-8 76 5 28 10 64 17 80 17 21 0 45 14 84 50 30 28 60 50 65 50s17 15 26 33c9 17 25 41 35 52 34 38 60 131 53 194-9 82-33 171-57 210-32 52-146 160-175 167-15 3-46 12-69 20-68 24-140 25-218 3zm221-230c19-11 34-27 34-35s9-22 20-31c30-26 28-132-2-194-31-61-78-84-170-83-79 0-104 14-155 88-31 45-32 52-27 105 6 54 35 113 71 142 18 16 74 26 142 28 38 1 63-5 87-20z"/></g></svg>