<svg class="img-fluid" xmlns="http://www.w3.org/2000/svg" style="transform:none;transform-origin:50% 50%;cursor:move" viewBox="0 0 5890 5890"><g fill="#BF6325" style="transform:none"><path d="M3985 5015c-176-81-207-106-187-150 6-14 23-30 36-36 22-10 45-2 190 66 91 43 171 84 177 91 27 33-3 104-45 104-6 0-83-34-171-75zM2174 4979c-14-16-24-65-45-237-26-208-26-218-9-242 24-35 74-39 94-8 10 15 25 102 41 242l26 218-22 24c-28 29-60 31-85 3zM2940 4910c-170-76-199-97-200-137 0-20 38-53 61-53 26 0 356 144 381 167 39 35 10 104-43 102-13 0-103-36-199-79zM1688 4678c-28-24-190-316-186-339 2-12 14-31 29-41 46-35 67-16 164 152 48 84 90 160 92 170 6 23-38 70-65 70-10 0-25-6-34-12zM4318 4678c-8-7-54-82-102-166-68-118-87-158-82-177 8-30 38-47 74-43 23 3 39 25 119 163 51 87 93 167 93 177 0 44-67 74-102 46zM3434 4545c-10-16-14-34-10-51 6-22 34-39 182-110 96-46 185-84 198-84 49 0 75 70 39 103-31 27-335 167-364 167-19 0-34-8-45-25zM2784 4275c-16-24-14-38 26-263 24-130 47-245 52-254 10-21 49-32 78-23 41 13 41 42-1 272-21 120-41 228-44 240-13 55-81 73-111 28zM2346 4213c-13-16-70-84-125-153-117-144-126-176-63-209 15-8 28-9 41-1 17 9 201 227 244 290 51 73-38 140-97 73zM4725 3998c-82-38-158-77-167-85-39-35-13-103 39-103 34 0 324 135 346 161 9 12 17 29 17 38 0 25-37 61-63 60-12 0-89-32-172-71zM3909 3979c-41-41-26-64 131-192 80-65 156-122 169-128 44-18 98 43 74 84-16 29-311 257-332 257-11 0-30-9-42-21zM1510 3940c-25-25-26-62-1-84 24-22 282-172 311-181 34-11 70 19 70 59 0 18-6 38-12 44-35 28-312 182-329 182-10 0-28-9-39-20zM3420 3864c-91-42-173-83-182-91-10-9-18-27-18-40 0-28 33-63 59-63 10 0 99 36 197 79 200 89 222 107 194 159-27 47-64 40-250-44zM955 3810c-21-23-23-69-3-84 7-6 71-58 142-114 70-57 139-110 152-117 48-24 89 7 82 62-2 21-37 54-155 150-159 128-184 140-218 103zM1840 3450c-188-201-260-290-260-319 0-40 40-69 75-55 30 11 293 301 301 332 4 13 0 32-10 47-24 36-70 34-106-5zM4368 3423c-8-10-50-116-92-236-65-185-74-221-65-240 21-39 59-49 92-24 19 13 167 424 167 462 0 50-69 75-102 38zM5054 3413c-155-3-162-4-184-28-16-17-21-31-16-49 13-52 29-54 300-49 244 6 250 6 273 29 29 30 29 49-2 79-22 23-30 25-117 23-51-1-165-4-254-5zM2343 3329c-23-8-37-43-31-75 5-26 304-264 332-264 31 0 56 30 56 67 0 26-16 43-149 148-82 65-157 122-168 126-10 3-28 3-40-2zM3596 3255c-71-30-135-60-143-67-24-19-12-80 19-97 25-14 33-12 165 43 139 59 173 82 173 117 0 26-35 59-62 59-13 0-81-25-152-55zM1107 3031c-92-21-174-44-182-52-27-28-23-74 9-94 23-15 37-13 217 25 114 24 201 47 211 57 23 21 23 65 0 86-26 24-62 20-255-22zM1910 2770c-11-11-20-30-20-41 0-12 37-93 83-180 91-175 112-197 162-165 41 27 33 64-51 225-42 80-83 154-91 164-21 23-58 22-83-3zM3165 2746c-15-22-14-38 5-188 11-89 23-173 26-186 10-46 91-55 114-12 17 31-28 368-52 392-26 26-74 23-93-6zM4505 2700c-17-19-17-30-5-192 7-95 17-183 21-196 19-50 102-48 115 3 4 14-1 103-9 197-18 185-26 208-77 208-15 0-35-9-45-20zM5143 2678c-39-44-184-307-181-329 2-12 16-31 31-43 26-19 30-19 54-6 25 15 203 310 203 338 0 19-46 62-68 62-10 0-28-10-39-22zM706 2589c-14-11-26-30-26-43 0-12 18-120 40-241s40-223 40-227c0-17 41-48 63-48 31 0 60 33 59 67-1 36-70 419-83 459-5 17-21 36-35 43-31 14-27 15-58-10zM3767 2533c-28-33-167-309-167-335 0-50 70-78 102-40 28 33 168 312 168 335 0 50-70 76-103 40zM2532 2338c-32-39-182-313-182-332 0-42 60-72 97-48 13 8 177 289 187 319 9 29-29 73-64 73-15 0-32-6-38-12zM1514 2222c-6-4-16-16-21-27-20-38-153-423-153-443 0-43 71-69 103-38 14 15 167 436 167 462 0 36-64 67-96 46zM3840 1872c-26-21-30-66-7-89 22-22 337-112 362-103 11 4 26 19 34 35 12 24 11 30-6 53-16 21-48 35-164 69-195 58-192 57-219 35zM3290 1731c-171-80-197-101-181-145 5-12 20-28 34-36 24-13 34-10 184 59 193 89 228 120 186 169-33 38-52 34-223-47zM4491 1703c-13-12-46-92-93-231-78-228-78-232-26-261 23-13 29-13 50 1 20 13 39 59 96 226 40 115 72 217 72 225 0 17-46 57-65 57-7 0-22-8-34-17zM2406 1474c-21-21-20-67 2-86 9-8 91-36 182-61 163-47 165-47 190-29 29 22 37 59 18 85-15 20-300 107-350 107-14 0-34-7-42-16zM1870 1312c-136-65-166-83-174-105-6-17-6-34 1-50 22-47 49-42 224 39 90 41 170 83 177 92 20 26 14 59-14 81-15 12-32 21-38 21-6-1-85-36-176-78zM3384 1025c-9-15-14-34-10-48 6-24 313-275 348-285 10-2 29 3 44 12 21 14 25 24 22 54-3 34-13 44-166 164-178 139-206 151-238 103zM2208 973c-33-38-178-304-178-326 0-60 75-76 113-24 48 65 167 285 167 309 0 50-70 78-102 41zM2900 940c-20-20-21-29-15-188 7-197 11-226 31-247 21-21 67-19 89 5 16 18 17 35 10 216-6 173-9 198-26 215-25 25-64 24-89-1z"/></g></svg>