<svg class="img-fluid" xmlns="http://www.w3.org/2000/svg" style="transform:none;transform-origin:50% 50%;cursor:move" viewBox="0 0 5890 5890"><g fill="#ED5D5D" style="transform:none"><path d="M2602 5076c-14-18-26-75-47-215-28-185-28-191-10-211 23-25 67-26 89-1 11 12 26 76 46 202 16 101 30 190 30 197 0 20-38 52-64 52-14 0-33-10-44-24zM3387 4882c-21-23-22-62-3-88 13-18 28-19 206-19s193 1 206 19c19 27 18 70-4 89-16 15-45 17-204 17-166 0-187-2-201-18zM1245 4550c-105-88-193-170-198-182-8-23 14-65 40-75 28-11 61 11 243 165 117 99 182 162 186 178 8 30-28 74-61 74-13 0-96-63-210-160zM1872 4694c-43-30-30-65 65-172 153-172 185-202 214-202 35 0 59 24 59 59 0 21-28 58-115 157-167 187-175 192-223 158zM2986 4658c-13-18-16-55-16-198 0-200 6-220 65-220s65 19 65 222c0 165-2 180-20 198-27 27-75 26-94-2zM4046 4542c-145-64-202-93-209-109-15-33 0-72 31-84 23-9 52 1 230 77 198 85 232 106 232 146 0 25-36 58-62 57-13 0-113-40-222-87zM2382 4213c-30-26-35-57-15-82 15-18 56-31 223-67 222-48 241-48 260 2 12 30-7 69-37 78-20 6-397 86-405 86-3 0-15-8-26-17zM3315 4125c-14-13-25-29-25-35 0-19 19-49 38-59 27-14 369-64 395-57 27 6 50 50 42 77-4 11-15 24-26 30-14 7-366 69-396 69-2 0-15-11-28-25zM4381 4015c-26-34-26-47-3-74 31-37 324-241 347-241 30 0 55 30 55 66 0 27-15 41-162 149-90 65-175 121-189 123-19 3-32-3-48-23zM1306 3784c-127-24-235-49-242-56-24-25-25-54-3-81 11-15 28-27 38-27 31 0 445 79 468 90 45 19 35 99-14 112-10 3-121-15-247-38zM2167 3718c-70-94-188-291-185-310 2-12 16-30 31-42 26-19 30-19 54-6 34 20 213 297 213 331 0 62-74 79-113 27zM3945 3738c-25-15-344-284-367-310s-23-61 0-81c41-37 64-25 263 144 174 148 189 164 189 194 0 47-45 76-85 53zM2866 3648c-23-21-28-42-54-211-31-205-30-224 21-241 23-9 31-6 51 14 21 22 28 49 52 206 15 99 24 192 21 206-4 13-18 30-32 36-33 15-30 16-59-10zM4495 3297l-27-23 12-169c15-206 22-238 55-253 34-16 73 0 81 34 4 14 0 110-8 212-13 172-16 186-37 203-30 25-44 24-76-4zM4994 3156c-31-48-18-65 136-173 80-57 155-106 168-109 33-9 72 20 72 54 0 15-4 32-8 38s-72 57-151 113c-157 109-188 120-217 77zM745 3135c-31-30-31-47-2-79 23-26 256-191 293-208 47-22 99 42 70 87-17 26-303 225-323 225-8 0-25-11-38-25zM3724 3092c-24-15-34-50-23-74 10-23 282-226 332-249 47-21 95 28 76 78-4 11-79 73-167 137-152 110-188 128-218 108zM1810 2993c-43-15-54-82-18-107 18-13 56-16 204-16 165 0 182 2 198 19 26 28 18 82-14 98-25 13-337 18-370 6zM1323 2670c-39-16-39-53 3-224 40-165 55-196 97-196 28 0 41 9 56 37 18 35-60 339-95 371-28 24-29 25-61 12zM2690 2554c-156-119-170-132-170-161s33-63 61-63c20 0 217 142 286 206 18 17 33 41 33 53 0 28-34 61-62 61-13 0-76-41-148-96zM4244 2620c-29-11-31-20-64-229-26-165-28-187-15-207 27-41 81-39 103 4 15 28 65 369 58 395-4 18-46 51-59 46-1 0-11-4-23-9zM3324 2612c-19-12-35-52-29-71 5-18 201-172 252-199 44-24 92 20 81 74-4 25-242 204-271 204-12 0-27-4-33-8zM4708 2603c-8-10-18-24-22-30-7-13 10-53 28-65 6-4 95-8 197-8 168 0 188 2 202 18 22 24 21 65-1 85-16 15-45 17-204 17-164 0-187-2-200-17zM457 2580c-34-27-37-72-5-94 18-13 56-16 204-16 167 0 182 1 199 20 22 24 23 67 1 88-14 14-45 17-194 20-169 3-179 2-205-18zM1815 2115c-47-46-36-62 140-184 159-111 191-122 221-76s14 65-150 178c-85 59-162 107-171 107s-27-11-40-25zM2752 2019c-154-7-172-12-193-50-13-25 9-68 39-76 14-3 102-3 196 0 167 7 172 8 194 33 12 14 22 32 22 40 0 26-47 64-77 62-15 0-97-4-181-9zM4486 2008c-26-36-20-64 22-95 113-88 274-193 295-193 43 0 74 60 49 96-4 6-72 56-152 112-154 109-186 120-214 80zM955 1877c-165-106-193-133-173-171 30-57 60-49 239 65 147 93 179 120 179 149 0 18-47 60-67 60-10 0-90-46-178-103zM3774 1906c-116-22-219-47-228-55-16-14-21-58-8-77 22-33 46-32 275 11 239 45 267 56 267 102 0 32-34 63-67 62-16-1-123-20-239-43zM2357 1612c-23-25-22-33 22-216 40-165 51-186 98-186 21 0 63 34 63 52 0 4-18 83-40 176-26 108-46 171-57 180-24 18-67 15-86-6zM1415 1580c-14-15-26-69-46-213-16-105-29-200-29-209 0-26 36-58 64-58 48 0 59 33 91 254l30 208-24 19c-30 25-63 24-86-1zM4202 1484c-41-28-29-61 100-276 66-112 128-211 136-220 33-39 102-10 102 43 0 13-58 121-130 240-122 205-141 228-180 229-3 0-16-7-28-16zM3300 1370c-151-105-170-122-170-152 0-26 36-58 65-58 34 0 321 202 329 232s-23 72-55 76c-17 2-66-26-169-98zM2360 946c-113-23-211-46-218-50s-18-19-23-33c-11-29 8-68 39-77 10-3 116 14 237 38 229 46 245 53 245 103 0 28-33 63-57 62-10-1-110-20-223-43zM3395 885c-14-13-25-31-25-40s11-27 25-40c24-25 26-25 203-25 166 0 180 1 200 20 27 26 28 64 2 90-19 19-33 20-200 20-179 0-181 0-205-25z"/></g></svg>