<svg class="img-fluid" xmlns="http://www.w3.org/2000/svg" style="transform:none;transform-origin:50% 50%;cursor:move" viewBox="0 0 5890 5890"><g fill="#ED5D5D" style="transform:none"><path d="M2955 5267c-71-73-105-136-105-194 0-34 6-46 35-72 49-42 86-40 141 11 21 19 22 19 60-7 45-30 84-28 121 7 47 44 40 121-19 192-33 40-142 126-160 126-6 0-38-29-73-63zM3709 5296c-78-26-94-135-42-281l28-80 35 3c114 11 227 61 261 115 50 83-8 166-107 151-40-6-44-4-44 14 0 28-44 79-74 84-13 3-39 0-57-6zM2350 5125c-107-35-103-31-90-105 28-153 86-240 161-240 53 0 78 14 94 55 11 24 12 42 5 66-6 19-10 35-10 36s13 4 29 8c46 10 81 51 81 94 0 102-111 138-270 86zM4064 4861c-52-31-103-137-119-244l-7-44 51-21c157-68 275-63 309 14 26 56 1 112-62 135-32 11-32 13-23 48 14 52 2 88-36 111-40 25-73 25-113 1zM3379 4641c-25-10-73-37-107-60-72-48-71-44-15-153 79-151 185-197 253-110 24 30 25 63 4 105-16 29-16 32 2 42 74 42 86 105 30 161-28 28-41 34-77 34-24-1-64-9-90-19zM1485 4529c-159-65-225-152-181-238 14-27 53-51 82-51 8 0 29 7 47 16 29 16 32 16 42-2 45-80 106-95 161-40 30 30 34 40 34 89 0 44-8 70-40 133-22 44-48 89-57 100l-18 22-70-29zM2630 4418c-19-13-47-46-62-73-29-53-64-186-55-209 7-18 106-55 184-69 81-14 136 1 163 46 23 36 25 65 9 101-11 23-62 56-88 56-10 0-9 25 5 68 6 20-14 60-39 76-42 28-79 30-117 4zM1935 4244c-56-29-154-104-155-118 0-6 18-41 41-79 76-128 155-182 224-153 62 26 81 84 46 141l-18 30 38 36c27 25 39 44 39 63 0 98-105 136-215 80zM4394 4130c-12-4-31-21-43-36-44-56-22-159 61-282l34-50 65 27c134 57 199 120 199 194 0 29-7 46-29 68-33 33-64 36-116 15-34-15-35-14-50 14-27 52-71 71-121 50zM3495 3878c-177-91-237-186-170-266 35-42 68-48 118-21 32 16 42 18 46 8 2-8 17-26 32-41 33-33 71-36 116-8 68 41 62 139-16 256-72 107-66 104-126 72zM2151 3745c-57-48-64-142-23-280l18-60 55 3c73 4 165 28 206 53 68 42 83 120 33 171-28 27-36 30-79 26l-49-5-6 38c-12 74-95 104-155 54zM5223 3725c-19-19-37-35-40-35s-16 9-30 20c-83 65-189-41-138-139 20-39 111-121 173-154l51-28 55 69c65 81 95 142 96 196 0 30-7 45-34 72-46 46-86 46-133-1zM850 3588c-104-46-136-64-167-91-65-57-81-122-42-171 32-40 62-48 112-31 38 14 43 13 52-2 42-71 114-86 166-34 25 25 29 37 29 83-1 61-30 140-78 211-36 51-35 51-72 35zM1335 3518c-55-63-105-159-105-202 0-102 122-147 181-67l20 28 44-22c53-28 87-23 120 17 45 54 31 121-42 189-40 38-145 109-162 109-5 0-30-24-56-52zM2654 3425c-50-71-84-149-84-193 0-63 69-122 125-108 27 7 56 31 72 61 9 16 12 16 41 1 61-32 118-14 142 43 20 49 5 97-45 145-40 39-168 116-193 116-6 0-32-29-58-65zM3842 3414c-42-80-58-236-30-289 26-49 84-71 132-51 30 12 41 28 59 87 4 13 15 16 50 12 24-3 53 0 64 6 30 15 56 76 48 111-14 63-124 123-248 136-57 6-66 4-75-12zM4684 3083c-12-2-34-17-50-34-40-42-38-88 5-133l32-33-21-41c-35-66-6-130 66-148 61-15 150 53 220 168l38 61-58 54c-82 77-170 117-232 106zM1530 2913c-33-12-69-57-75-94-8-49 16-134 61-216 19-35 36-63 38-63s27 8 57 19c170 58 244 133 216 218-17 55-63 76-122 58l-44-13-12 30c-20 47-76 76-119 61zM2370 2892c-56-28-133-162-142-248-3-26 3-32 58-61 130-69 237-75 283-16 31 38 28 97-5 128-14 13-35 27-46 31-15 4-18 11-13 27 24 77 10 118-50 143-43 18-43 18-85-4zM3225 2823c-11-2-37-9-57-14l-38-10v-59c0-121 39-228 92-256 43-22 95-18 123 11 20 19 25 34 25 75 0 44 3 50 20 50 29 0 78 27 90 49 15 29 12 84-6 110-25 35-75 51-156 50-40-1-82-3-93-6zM4102 2759c-29-5-66-16-82-24-109-56-84-201 35-198 31 1 33-1 39-42 16-104 136-124 191-32 17 27 20 51 20 154 0 68-4 126-10 131-15 15-134 21-193 11zM813 2660c-53-35-143-127-143-146 0-22 118-148 163-174 71-40 110-39 153 4 42 42 45 82 9 124-26 31-32 52-16 52 5 0 19 16 31 35 27 44 20 85-22 120-46 39-101 35-175-15zM4796 2313l-59-16 7-83c12-155 65-244 146-244 27 0 48 8 67 24 24 21 28 31 27 74v50l37 6c48 8 79 45 79 95 0 76-55 112-172 110-40-1-99-8-132-16zM2530 2282c-47-26-95-99-124-190-29-89-31-85 69-133 89-42 162-55 207-36 44 19 72 58 72 103 0 38-22 67-65 85-22 8-28 16-23 28 3 9 8 34 11 56 4 34 1 44-24 66-39 37-80 44-123 21zM4325 2166c-74-24-165-75-165-94 1-30 48-153 75-194 49-74 126-99 179-57 40 31 48 62 32 110l-14 40 33 13c85 36 88 138 5 181-35 18-90 18-145 1zM1830 2140c-103-21-93-8-88-120 4-80 10-108 32-153 45-92 125-112 182-44 21 25 25 38 21 68-5 36-4 37 35 43 105 17 122 142 27 192-37 19-148 26-209 14zM1104 2096c-38-17-68-75-59-115 7-33 28-55 69-70 21-9 26-15 20-29-4-9-9-35-12-58-3-36 0-44 28-67 45-38 98-37 144 4 38 33 86 123 110 205l14 52-88 41c-100 48-176 60-226 37zM2969 1933c-24-57-34-98-37-150-4-72-4-73 31-108 27-27 43-35 71-35 42 0 81 32 92 75 6 23 9 25 38 18 75-18 116 1 136 62 15 46-7 96-61 134-40 30-179 81-219 81-13 0-27-20-51-77zM3630 1951c-99-30-141-95-108-166 14-32 56-55 97-55 26 0 30-4 36-40 10-57 55-94 107-87 49 7 66 21 90 75 21 46 25 119 13 220l-7 62-101-1c-56 0-113-4-127-8zM4279 1595c-60-33-82-163-50-294l14-54 102 5c79 4 112 10 149 28 51 24 86 69 86 108 0 60-67 112-126 98-19-5-24-3-24 12 0 86-79 136-151 97zM2270 1569c-19-6-61-20-92-32-65-25-66-28-47-119 33-154 110-236 194-208 50 17 69 49 62 109-6 47-5 48 27 59 48 18 71 47 71 92 0 85-99 130-215 99zM1573 1549c-61-12-124-42-153-73-37-41-35-109 4-143 24-20 37-24 77-21l47 3 6-37c13-78 111-107 167-47 15 17 31 46 35 66 9 47 0 135-21 206l-16 57-52-1c-29-1-71-5-94-10zM3720 1243c-125-137-146-254-53-302 39-20 73-13 109 23l35 35 37-25c90-61 183 33 136 137-20 45-90 112-164 158l-49 30-51-56zM2904 1123c-53-120-65-220-31-263 55-72 143-61 177 20 12 28 16 30 44 24 54-13 79-7 108 25 77 86-3 189-183 236-83 23-86 21-115-42zM1840 1063c-39-27-49-45-50-90 0-34 5-46 30-66 16-14 35-27 41-29 8-3 7-13-5-35-23-46-20-89 8-118 76-76 180-18 258 143 23 47 37 87 31 91-5 3-31 22-58 41-103 72-206 97-255 63z"/></g></svg>