<svg class="img-fluid" xmlns="http://www.w3.org/2000/svg" style="transform:none;transform-origin:50% 50%;cursor:move" viewBox="0 0 4860 4850"><g fill="#FFF6E9" style="transform:none"><path d="M2327 4830c-90-27-70-89 28-90 55 0 95 20 95 49 0 31-73 55-123 41zM3050 4710c-9-16-6-25 13-44 53-53 163-56 155-4-8 56-143 94-168 48zM2683 4695c-53-23-37-65 32-84 55-15 105 4 105 40 0 40-85 67-137 44zM1553 4670c-67-41-64-90 7-90 38 0 94 30 113 62 28 44-60 65-120 28zM1953 4676c-61-28-65-76-7-90 65-17 158 44 122 80-21 21-78 26-115 10zM2298 4544c-64-34-53-93 21-115 109-33 215 59 129 111-39 24-111 26-150 4zM3377 4483c-27-27 15-86 72-103 68-19 106 24 59 67-43 38-110 57-131 36zM2957 4452c-39-43-3-99 77-122 67-19 116 2 116 49 0 69-147 124-193 73zM1676 4430c-34-11-82-54-89-80-6-25 17-56 48-64 87-22 209 85 151 133-20 17-75 22-110 11zM2633 4426c-48-22-55-62-16-96 39-36 91-45 138-26 40 17 50 35 41 71-12 46-107 76-163 51zM1262 4410c-18-11-38-32-44-46-11-23-10-28 7-41 51-37 172 46 140 96-10 18-68 12-103-9zM2003 4405c-36-15-66-56-61-82 2-10 20-26 40-36 46-22 97-15 139 20 76 64-17 142-118 98zM3753 4373c-15-39 63-113 119-113 36 0 47 24 27 59-32 57-131 94-146 54zM925 4306c-37-16-85-70-85-96 0-48 74-39 125 16 28 31 33 79 9 88-9 3-16 6-17 6-1-1-16-7-32-14zM2310 4272c-71-35-74-101-8-142 67-40 169-12 192 53 27 77-92 135-184 89zM3236 4237c-56-41 27-147 114-147 30 0 71 44 63 67-24 68-129 115-177 80zM2865 4185c-33-32-31-67 5-108 90-103 272-29 189 77-47 60-149 77-194 31zM1411 4183c-34-17-71-65-71-94 0-25 34-49 70-49 41 0 96 33 115 70 20 38 19 46-5 70s-63 25-109 3zM1754 4166c-66-29-95-105-54-146 73-73 238 9 214 106-12 48-94 68-160 40zM3590 4173c-60-24-25-120 58-157 49-22 88-15 103 18 28 61-94 166-161 139zM2603 4159c-54-16-78-72-52-121 16-30 92-60 134-52 68 12 103 72 74 126-11 20-83 58-109 57-8 0-29-5-47-10zM2054 4140c-31-12-64-59-64-90 0-19 10-37 31-54 55-46 152-29 184 34 21 41 19 58-14 91-24 23-38 29-73 28-24 0-53-4-64-9zM1095 4096c-37-17-70-52-85-90-8-23-7-34 5-52 29-45 117-20 161 45 29 43 31 72 6 94-22 20-46 21-87 3zM3987 4053c-33-32 48-137 100-131 35 4 41 31 19 73-26 47-96 82-119 58zM2325 4006c-39-17-65-56-65-98 0-61 54-108 125-108 125 0 171 146 63 201-43 22-81 24-123 5zM3124 4000c-27-11-54-48-54-73 0-34 34-77 78-99 38-18 49-19 83-9 42 13 59 35 59 78 0 40-25 72-74 94-45 20-60 22-92 9zM705 3952c-32-26-55-64-55-89 0-27 28-44 55-33 44 17 91 92 79 125-8 20-54 19-79-3zM1537 3941c-64-42-79-108-33-148 54-46 146-19 177 53 22 48 14 85-20 103-31 17-93 13-124-8zM3413 3950c-97-39-11-200 107-200 38 0 80 39 80 73 0 38-41 90-90 115-48 24-63 26-97 12zM2805 3939c-35-20-55-53-54-89 0-71 53-120 130-120 113 0 157 127 67 191-35 26-113 35-143 18zM1853 3911c-80-37-101-118-44-175 28-27 38-31 87-31 51 0 58 3 90 37 28 31 34 46 34 81 0 52-31 91-81 101-41 8-38 8-86-13zM1260 3881c-73-38-107-141-58-175 67-47 180 16 195 108 4 28 1 39-20 60-31 31-69 33-117 7z"/><path d="M2564 3886c-88-39-85-154 6-201 36-19 54-19 94 0 59 28 84 108 50 160-14 22-80 55-107 55-6-1-26-7-43-14zM2092 3864c-28-19-52-65-52-98 0-36 54-94 96-102 105-20 179 112 105 187-25 24-38 29-78 29-28 0-58-7-71-16zM3773 3865c-65-46 20-172 110-163 45 4 59 46 32 95-36 65-102 96-142 68zM4317 3833c-38-38 67-177 108-143 30 25 8 102-37 134-23 16-60 21-71 9zM935 3790c-38-15-76-66-82-108-5-35-2-42 19-56 30-20 68-9 110 31 77 74 43 171-47 133zM2970 3732c-25-25-30-38-30-77 0-40 5-52 34-81 28-28 41-34 78-34 50 0 82 19 104 62 36 69-17 147-105 156-46 4-53 2-81-26z"/><path d="M2333 3730c-38-23-54-50-56-96-2-26-5-33-17-28-41 18-73 16-103-6-24-19-32-21-36-9-2 8-19 29-37 47-27 27-39 32-78 32-82 0-144-81-117-153 10-25 9-27-14-27-40 0-75-18-93-49l-16-29-34 29c-103 91-253-42-176-156 18-26 18-35-2-35-25 0-74-56-74-84 0-26 0-26-30-11-44 23-94 19-129-10-61-52-62-142-1-187l29-21-30-27c-23-23-29-36-29-72v-44l-37 4c-52 5-103-31-122-84-13-37-12-44 5-80 13-26 32-46 60-60 37-19 40-22 28-39-16-22-19-101-4-110 18-11 10-25-15-25-40 0-95-57-101-105-9-70 53-135 128-135 21 0 23-4 20-43-3-35 1-49 22-74l25-30-24-11c-32-15-65-69-65-105 0-87 95-142 180-104 11 5 15 0 17-19 2-38 21-70 52-85 14-7 28-14 30-16 2-1-8-16-23-33-88-105 59-252 163-164l31 26 9-25c13-32 58-67 88-67 21 0 23-3 16-22-4-13-8-42-8-66 0-34 7-48 33-75 28-28 39-32 83-32 46 0 54 4 85 38l35 38 32-27c25-21 38-25 69-21 37 5 38 4 38-26 0-73 74-136 143-123 43 8 97 65 97 102 0 24 1 24 30 9 36-18 67-19 100 0 24 13 26 12 45-28 25-52 79-82 130-73 50 10 95 65 95 119v42h44c33 0 52 7 69 23 21 20 25 21 30 8 10-25 69-56 107-56 82 0 137 68 126 157-6 48-4 53 13 53 18 0 64 45 73 70 2 7 20 3 51-10 41-18 53-20 82-10 83 27 113 126 58 191-21 25-24 34-14 37 38 13 67 64 62 109-1 8 14 10 52 6 63-6 90 5 117 50 31 50 26 103-12 141-18 18-39 35-47 37-11 4-10 12 9 36 18 26 22 40 18 77-5 45-5 46 24 46 41 0 85 25 103 60 36 70 1 145-80 171-30 9-44 18-37 23 17 11 15 88-4 114-9 13-14 24-13 25 2 2 20 10 40 19 23 10 42 29 52 51 21 43 21 58 3 100-19 47-60 71-119 69-40-1-48 2-46 16 4 42-3 62-31 89l-30 29 25 24c13 12 29 38 35 56 31 92-74 183-161 140-18-9-34-16-35-16-2 0-10 16-19 36-10 25-26 40-53 52l-38 16 19 38c26 52 17 97-29 137-49 43-113 44-155 1l-30-29-27 30c-19 21-39 32-68 36-42 5-42 5-37 43 10 70-41 130-110 130-52 0-91-22-111-64l-16-35-35 21c-34 19-67 21-105 4-12-5-16 1-18 24-7 89-103 137-179 90zm137-257c0-34-1-35-18-20-10 10-25 17-33 17-9 0-4 8 11 20 35 27 40 25 40-17zm-104 14c21-12 20-12-12-28l-34-16v28c0 31 12 36 46 16zm342-58c-45-13-48-11-36 22l10 30 25-23 25-23-24-6zm-582 0c15-30 15-31-1-25-9 3-28 6-43 6h-25l23 25c13 14 25 25 26 25 2 0 11-14 20-31zm687-27-5-32-24 25c-13 14-24 28-24 30 0 3 48 12 56 10 1 0-1-15-3-33zm-795-20c-19-24-24-26-30-13-13 32-8 41 23 41h31l-24-28zm278-20c-5-14-13-18-26-15-19 5-19 6 3 23 26 21 31 19 23-8zm239-3c-11-17-35-9-35 11 0 18 3 19 20 10 11-6 18-15 15-21zm75-10c-9-16-14-18-26-8s-12 14-2 20c26 17 40 11 28-12zm-391 2c11-7 9-11-8-20-11-7-21-10-21-7 0 2-3 11-6 20-7 18 12 21 35 7zm815-46 16-25-35 2c-40 3-41 5-18 30 20 22 18 23 37-7zm-199-15c18-19 17-20-3-20-15 0-22 6-22 20 0 11 2 20 3 20 2 0 12-9 22-20zm-1037-40c-18-3-34-5-36-4-1 1 3 13 9 28l12 26 25-22 24-23-34-5zm202 9c0-4-9-9-20-12-23-6-24-3-9 25 9 17 13 18 20 7 5-8 9-17 9-20zm1117-8c9-4 7-12-5-28l-17-22-16 35c-17 34-16 35 5 28 11-3 26-9 33-13zm-209-7c-15-16-18-16-33 0-15 15-14 16 16 16 31 0 32-1 17-16zm-978-24c-9-17-14-18-31-7-19 12-19 12 3 19 37 10 39 9 28-12zm-198-12c-7-7-12-20-12-30 0-24-12-23-28 3-15 23-8 35 23 41 26 6 32 1 17-14zm1363-116c-11-11-27 17-20 35 6 16 8 16 16-6 5-13 7-26 4-29zm-1361-35c-20-12-25-6-17 22 6 23 7 23 20 5 11-15 11-19-3-27zm1558 3c4-25 2-30-11-24-9 3-24 9-33 11-24 7-22 18 5 31 32 16 34 15 39-18zm-129 0c7 0 3-7-7-15-21-16-36-11-36 12 0 10 6 13 16 9 9-3 21-6 27-6zm-1610-61c-15-10-28-17-29-16s1 16 3 34c5 31 6 32 30 16l24-16-28-18zm140 10c-4-12-11-18-20-15-8 3-17 6-19 6s-4 4-4 9c0 8 15 15 42 20 3 0 4-8 1-20zm1640-11c12-7 24-14 26-15 6-4-30-43-39-43-5 0-10 16-12 35-5 40-5 39 25 23zm-1827-106c-3-3-15 3-26 13l-21 19 23 18c23 17 23 17 26-13 2-17 1-33-2-37zm1784-37c0-26-14-33-25-15-9 14 1 40 15 40 5 0 10-11 10-25zm-1733-62c-16-16-17-15-17 17s1 33 17 17 16-18 0-34zm1783-19c0-2-11-4-25-4-18 0-25 5-25 20 0 20 1 20 25 4 14-9 25-18 25-20zm114-31-6-30-24 24c-30 30-30 31 4 35 35 4 33 6 26-29zm-1914-3c0-15-7-20-27-20-25 0-26 0-8 20 10 11 22 20 27 20 4 0 8-9 8-20zm-120-28c12-6 10-12-11-35l-27-27-4 35c-4 36 6 43 42 27zm2058-79c-31-17-57-18-40-1 7 7 12 23 12 37v24l25-23 26-24-23-13zm-2088-15c0-7 3-23 6-35 6-22 5-22-25-12-30 11-30 11-13 35 19 26 32 31 32 12zm1995-68c-5-17-10-19-21-9-19 15-18 27 4 31 23 6 25 3 17-22zm-1902-61c-6-23-17-15-28 19-6 21-5 23 13 13 14-7 18-17 15-32zm1917-21c0-9-24-11-32-2-3 3-3 15 0 26 5 20 6 20 19 3 7-11 13-22 13-27zm-1932-59c-30-8-32-5-16 20 12 20 14 20 26 4 11-16 10-19-10-24zm2036 15c12-5 13-10 4-30-15-31-21-30-35 6-12 32-4 38 31 24zm-2128-88-10-34-17 26c-17 28-10 42 22 42 14 0 14-5 5-34zm2129-33c6-20 3-23-24-23h-30l17 30c18 31 25 29 37-7zm-2117-53 23-30h-35c-34 0-34 0-23 30 6 17 12 30 12 30 1 0 11-13 23-30zm1995-14c-16-21-19-22-25-8-11 28-9 32 17 32s26 0 8-24zm-1873-56c0-11-3-20-8-20-4 0-13 9-20 20-11 18-10 20 8 20 13 0 20-7 20-20zm1852-15c6-27 1-30-21-16-12 8-12 12-2 25 17 21 18 20 23-9zm-1838-41c8-21 8-21-9-28-11-4-15 1-15 19 0 28 15 33 24 9zm1917-45c20-10 20-11 3-30-23-26-29-24-31 11-2 33 0 35 28 19zm-1984-74c-1-19-5-35-9-35s-8 4-8 8c0 5-10 13-22 19-23 10-23 10 7 26 17 9 31 16 32 17 0 0 1-16 0-35zm1950-61c-3-3-17-2-32 2l-27 7 29 23 28 22 3-25c2-14 1-27-1-29zm-124 9c4-3-2-13-14-21-23-16-32-12-23 12 6 16 25 21 37 9zm-1787-30 26-16-24-13c-33-19-35-18-34 16 1 35 0 35 32 13zm131-40c-3-2-16 1-29 8l-23 13 25 6c23 6 41-12 27-27zm1603-9c0-22-2-25-15-14-12 10-13 16-4 26 16 20 19 18 19-12zm-1563-25c12-12 7-39-7-39-4 0-10 11-12 25-6 27 1 32 19 14zm1606-115c-16-6-29-10-31-9-1 1 1 16 4 34l7 32 24-22 23-23-27-12zm-1629-29c6-32 5-38-5-27-7 6-21 12-31 12s-18 3-18 7c0 7 42 54 45 50 1-1 6-20 9-42zm1429-16c-30-12-34-10-23 12 10 17 14 18 27 8 13-12 13-14-4-20zm141-16c-9-38-11-39-34-18l-21 19 23 13c34 18 39 16 32-14zm-1370-8c4-11-2-15-27-15-30 1-31 1-13 15 25 19 32 19 40 0zm-122-22c16-5 14-8-8-25-29-23-29-23-38 16-6 25-5 28 11 21 10-4 26-10 35-12zm180-35c-5-20-6-20-19-3-18 26-16 34 6 28 13-3 17-11 13-25zm1122-84c8-22 9-21-24-26-35-5-36-4-12 21 21 24 28 25 36 5zm-1105-39c21-12 11-21-19-17-35 5-33 2-19 39 11 27 11 27 19 7 5-12 13-25 19-29zm201 30c10-12 10-15-3-15-8 0-23-3-32-6-15-6-15-4-4 15 16 25 22 26 39 6zm630-1c0-7-27-34-34-34-3 0-6 9-6 20 0 13 7 20 20 20 11 0 20-3 20-6zm-560-34c0-11-2-20-3-20-2 0-12 9-22 20-18 19-17 20 3 20 15 0 22-6 22-20zm320-37c0-10-6-10-25-1-23 10-23 12-7 24 18 13 32 3 32-23zm419 16c-16-16-24-18-32-10-14 14 6 31 36 31 15 0 15-2-4-21zm-504 5c14-6 13-8-5-21-24-17-33-13-24 11 7 18 7 18 29 10zm-412-32c-9-15-18-28-18-29-1-2-11 10-23 26l-21 29h39l40 1-17-27zm687-50c0-26-3-28-31-24l-30 4 22 24c29 31 39 30 39-4zm-452-33c-41-12-45-10-40 21l4 29 30-22 30-22-24-6zm106 4c-9-37-8-37-40-16-25 16-26 18-8 21 10 2 23 8 29 13 17 17 25 9 19-18zm256 17c10 0 7-7-10-20-33-26-37-25-43 6-4 22-2 25 17 20 11-3 28-6 36-6zM396 3719c-66-52-77-149-16-149 4 0 22 14 39 32 39 40 56 89 41 118-14 26-30 25-64-1zM3266 3729c-82-23-101-122-35-188 75-75 199-35 199 64 0 80-86 145-164 124z"/><path d="M1703 3719c-36-11-82-61-84-92-3-48 3-63 36-94 27-26 43-33 74-33 48 0 95 35 111 84 14 43 5 77-28 109-33 30-66 38-109 26zM4067 3682c-47-52 26-182 102-182 36 0 51 17 51 60 0 44-30 94-72 120-41 25-60 25-81 2zM1454 3679c-36-10-91-67-100-104-14-54 44-125 103-125 106 0 173 126 106 199-32 35-65 44-109 30zM3562 3674c-74-52-23-178 77-191 115-16 123 134 10 192-36 19-59 19-87-1zM1123 3600c-65-39-85-131-37-169 15-12 36-21 46-21 35 0 87 31 108 65 59 96-22 183-117 125zM628 3581c-49-39-76-139-46-169 56-56 182 80 145 157-16 34-63 40-99 12zM3811 3514c-26-33-27-69-2-114 68-130 228-89 176 46-34 89-128 126-174 68zM3339 3461c-24-25-29-38-29-78 1-74 41-113 120-113 60 0 100 41 100 104 0 39-5 51-35 81s-42 35-81 35c-37 0-51-6-75-29zM895 3456c-90-39-126-169-59-212 60-40 153 31 162 124 7 75-40 115-103 88zM4420 3440c-24-44 29-140 77-140 45 0 43 74-3 129-30 36-59 40-74 11zM1345 3431c-31-14-64-54-75-91-20-68 35-130 116-130 28 0 44 8 70 34 29 29 34 41 34 80 0 36-6 52-27 76-30 33-82 47-118 31zM3605 3381c-57-25-82-108-50-167 23-43 92-78 135-69 42 9 80 58 80 103 0 86-96 163-165 133zM322 3334c-69-48-68-178 2-146 43 19 73 121 44 150-15 15-19 15-46-4zM4140 3331c-28-53 6-141 65-170 33-16 54-7 72 31 18 36 6 84-32 124s-87 47-105 15zM1108 3305c-67-37-91-149-42-198 64-64 169-28 195 65 26 100-66 180-153 133zM584 3241c-29-18-64-81-64-116 0-52 48-87 90-65 58 31 83 153 38 184-28 20-27 20-64-3zM3873 3214c-22-22-25-32-20-77 4-42 10-56 41-84 107-98 203 44 102 152-42 44-85 47-123 9zM855 3150c-78-32-107-154-47-200 30-24 55-25 92-4 38 23 60 65 60 116-1 46-12 68-47 86-25 14-30 14-58 2zM4670 3135c-8-10-11-33-8-66 10-98 89-135 96-44 4 45-13 90-42 110-26 19-31 19-46 0zM3604 3086c-29-29-34-41-34-80 0-64 38-106 103-113 43-5 49-3 82 30 27 27 35 43 35 72 0 69-54 125-120 125-23 0-42-10-66-34zM4377 3073c-38-43-28-122 21-175 49-52 102-23 102 55 0 94-78 170-123 120zM1092 3037c-77-45-82-171-7-205 49-23 94-15 131 22 29 29 34 41 34 80 0 36-6 52-27 76-33 36-94 49-131 27zM80 2988c-26-42-24-125 3-142 39-24 92 83 71 143-14 40-49 39-74-1zM4081 2996c-12-13-24-39-28-58-19-121 121-216 172-117 56 107-67 257-144 175zM377 2969c-32-19-60-88-54-136 6-53 21-73 57-73 74 0 118 162 56 205-24 17-35 18-59 4zM3824 2940c-53-21-87-105-64-159 41-99 163-113 205-24 30 62 5 135-58 173-35 22-50 23-83 10zM660 2917c-84-43-96-195-17-228 24-10 34-10 56 2 43 24 71 76 71 131 0 41-5 54-29 79-33 32-44 35-81 16zM901 2834c-58-49-63-139-9-190 81-79 213 23 179 137-23 78-109 105-170 53zM4646 2734c-25-25-21-107 7-139 27-32 50-26 67 16 15 36 5 94-21 120-23 23-33 24-53 3zM4333 2703c-35-53-15-143 40-177 39-25 93 55 81 119-15 81-84 114-121 58zM4031 2683c-43-53-39-127 9-175 37-37 73-36 111 1 24 24 29 38 29 76 0 52-21 99-49 115-36 19-78 12-100-17zM3736 2649c-83-72-37-199 72-199 65 0 102 44 102 121 0 33-6 47-34 75-45 45-91 47-140 3zM429 2617c-59-45-51-178 13-200 46-16 100 83 79 146-21 60-57 81-92 54zM136 2598c-25-39-28-73-12-112 12-30 20-37 38-34 28 4 48 41 48 91 0 72-43 103-74 55zM696 2593c-32-32-40-61-33-116 7-50 44-87 87-87 31 0 76 44 86 86 10 39-5 94-33 120-34 32-74 31-107-3zM1014 2603c-35-7-75-57-81-100-9-68 43-133 107-133 87 0 142 116 88 185-17 22-79 59-90 54-2-1-13-4-24-6zM3884 2446c-79-35-101-135-44-200 38-43 77-53 120-31 75 39 93 147 34 205-36 36-70 44-110 26zM4159 2409c-50-53-51-144-2-193 44-45 96-29 132 41 16 31 14 99-4 133-30 58-82 66-126 19zM4460 2378c-27-45-34-90-20-133 35-106 130-61 130 63 0 93-69 137-110 70zM880 2357c-32-25-50-62-50-105 0-54 22-97 60-117 46-24 76-19 118 19 34 32 37 38 37 91s-3 59-37 91c-29 26-46 34-75 34-21 0-45-6-53-13zM4765 2340c-17-33-20-102-5-131 14-26 45-24 64 3 25 35 29 81 12 121-19 46-49 49-71 7zM589 2311c-77-78 4-260 95-211 29 15 56 66 56 106 0 41-37 109-66 122-38 18-53 15-85-17zM321 2284c-48-34-46-144 3-193 36-35 76-21 94 33 30 92-37 202-97 160zM30 2225c-29-35-7-148 31-160 26-9 37 0 48 40 10 36-1 98-21 123-14 17-43 15-58-3zM3710 2193c-60-54-55-137 9-180 42-29 80-29 115-2 64 51 74 123 22 175-45 45-101 48-146 7zM4015 2127c-39-39-50-72-41-122 8-39 47-75 82-75 33 0 82 46 94 88 19 71-19 142-78 142-14 0-38-14-57-33zM1014 2116c-26-26-34-42-34-70 0-74 47-126 113-126 31 0 46 7 73 34 28 28 34 41 34 78 0 50-18 82-60 103-49 25-88 19-126-19zM4345 2080c-39-15-59-48-63-108-3-48-1-60 16-75 47-43 110 2 119 85 8 68-27 115-72 98zM745 2045c-48-47-27-158 35-190 43-22 65-19 94 16 46 55 29 152-34 184-41 21-67 19-95-10zM4611 1974c-30-38-37-89-17-119 9-14 22-25 30-25 39 0 75 93 56 141-15 36-42 37-69 3zM475 1960c-12-13-18-36-18-63 0-100 97-167 131-91 25 53 6 126-40 158-30 21-51 20-73-4zM3739 1931c-33-32-39-45-39-80 0-57 24-100 67-117 65-28 131 13 153 97 20 74-29 139-103 139-32 0-46-7-78-39zM1024 1890c-37-15-64-59-64-104 0-109 123-178 190-106 64 69 37 175-53 209-33 13-44 13-73 1zM199 1853c-20-54 18-143 62-143s49 91 8 144c-27 34-57 34-70-1zM4058 1845c-91-50-90-225 2-225 38 0 95 50 110 96 15 45 5 98-22 124-25 23-53 25-90 5zM3561 1788c-107-58-73-218 47-218 55 0 112 66 112 129 0 69-96 122-159 89zM754 1758c-42-20-57-94-29-147 21-41 72-81 104-81 89 0 96 159 9 213-34 22-61 27-84 15zM1254 1733c-12-2-34-17-50-34-94-98 58-258 156-164 85 82 11 220-106 198zM4351 1727c-39-20-63-62-69-117-8-82 35-114 93-68 54 42 73 140 35 178-23 23-27 24-59 7zM3799 1601c-34-34-39-44-39-85 0-81 60-119 124-77 64 43 89 138 46 181-34 34-86 27-131-19zM482 1617c-34-41-20-117 30-167 75-75 141 2 92 106-28 59-96 93-122 61zM4621 1594c-45-32-67-128-35-155 47-39 126 115 82 159-16 16-19 15-47-4zM970 1538c-39-42-16-134 44-173 15-10 40-15 63-13 33 3 40 8 57 41 17 36 17 40 1 82-29 76-120 111-165 63zM3515 1538c-67-37-96-103-71-161 18-45 51-67 99-67 82 0 154 115 116 186-25 47-97 68-144 42zM1293 1475c-41-17-67-66-59-110 18-95 141-151 201-91 64 64 33 171-58 205-36 14-45 13-84-4zM227 1473c-12-12-7-73 8-103 16-30 51-60 72-60 7 0 17 10 24 21 23 44-30 149-75 149-12 0-26-3-29-7zM4079 1453c-33-28-59-78-59-113 0-33 37-63 68-55 62 15 114 103 93 158-17 44-56 48-102 10zM3237 1430c-31-25-51-80-42-120 9-41 58-80 102-80 120 0 170 156 66 209-35 18-97 13-126-9zM1554 1396c-88-39-85-154 6-201 37-19 63-19 100 0 82 43 75 156-12 201-33 17-54 17-94 0zM753 1379c-43-16-42-84 2-137 70-84 158-48 126 51-20 60-84 103-128 86zM3770 1342c-86-39-129-143-80-192 63-63 190 21 190 125 0 51-62 88-110 67zM4364 1299c-30-11-66-64-68-101-3-68 67-60 104 13 33 63 14 107-36 88zM1051 1244c-25-32-26-55-5-99 20-43 44-64 90-80 91-31 146 47 94 133-44 71-140 96-179 46zM3112 1210c-35-22-62-72-62-116 0-16 13-39 35-61 33-33 39-35 81-30 56 6 93 31 117 80 16 31 17 42 7 73-23 68-111 95-178 54zM2834 1186c-28-28-34-42-34-76 0-52 13-76 50-95 61-32 136-5 166 59 21 43 12 80-28 118-24 22-39 28-75 28-38 0-50-5-79-34zM3461 1203c-86-42-97-158-17-187 50-18 137 39 152 100 13 50-31 104-84 104-9 0-32-8-51-17zM507 1193c-20-19-2-79 36-120 26-29 73-31 82-4 18 56-82 161-118 124zM1936 1170c-43-38-53-77-32-122 33-69 128-91 184-43 36 30 46 75 28 119-33 79-118 100-180 46zM1685 1178c-56-30-72-105-35-158 19-27 83-60 116-60s82 32 94 61c15 36 7 95-17 121-40 44-113 61-158 36zM1350 1132c-35-35-37-54-12-101 37-69 142-95 181-45 26 33 26 60 1 101-24 40-57 62-103 70-31 5-41 1-67-25zM2412 1123c-39-19-62-59-62-106 0-72 83-123 153-93 93 38 102 137 18 193-40 27-64 28-109 6zM3961 1104c-52-46-69-95-47-129 37-57 136-8 167 83 9 27 8 37-5 57-24 37-67 33-115-11zM862 1044c-62-43 20-174 109-174 34 0 41 4 50 27 8 21 5 35-13 72-33 66-106 103-146 75zM2664 1046c-95-42-100-164-8-202 44-18 68-18 111 3 40 19 73 66 73 104 0 34-35 78-76 95s-60 17-100 0zM2136 1010c-61-54-56-121 13-167 64-43 160-22 186 41 32 77-31 156-124 156-31 0-49-7-75-30zM3660 958c-107-55-98-181 11-149 79 24 127 120 77 155-29 21-36 20-88-6zM3269 937c-19-12-43-40-53-61-17-35-18-42-5-65 45-80 174-52 215 46 36 85-69 139-157 80zM2959 913c-31-19-59-63-59-92 0-12 11-33 25-46 19-20 34-25 76-25 46 0 55 4 90 39 47 47 51 81 13 116-32 30-104 34-145 8zM4199 903c-35-30-62-84-53-107 11-29 64-19 99 18 76 81 36 158-46 89zM1180 890c-24-24-25-43-4-78 23-39 60-63 105-69 48-7 69 9 69 52 0 38-35 80-85 101-46 19-61 18-85-6zM1522 887c-29-31-28-69 4-107 35-41 74-60 122-60 110 0 117 120 10 176-44 23-111 18-136-9zM1835 875c-63-62 1-155 105-155 33 0 48 6 72 30 37 38 33 70-17 118-30 27-42 32-85 32-41 0-56-5-75-25zM654 815c-10-25 4-62 37-94 38-39 75-49 96-28 14 13 14 20 3 46-27 65-121 117-136 76zM2436 820c-95-29-107-130-19-167 130-54 237 100 111 157-48 22-51 22-92 10zM2712 734c-88-45-85-139 6-164 114-31 226 90 141 153-37 27-106 32-147 11zM2099 715c-57-31-54-96 4-139 43-32 136-30 171 3 64 60 0 152-106 151-24-1-55-7-69-15zM3828 690c-50-49-50-83 0-88 60-6 133 75 102 113-22 27-60 17-102-25zM3435 671c-100-61-94-150 9-139 63 7 126 63 126 111 0 46-80 62-135 28zM1014 635c-17-44 38-106 98-109 41-1 57 23 38 59-28 51-122 86-136 50zM3085 626c-62-27-88-83-56-115 37-37 120-24 166 25 64 69-14 132-110 90zM1396 614c-25-24-19-53 17-89 45-45 110-64 146-44 49 28 34 89-32 129-39 24-109 26-131 4zM1782 603c-35-7-58-48-44-78 36-79 202-87 202-10 0 27-61 85-90 85-10 0-24 2-32 4-7 2-23 1-36-1zM2420 498c-13-7-31-26-40-40-14-26-14-29 12-54 76-76 242-7 174 73-27 31-105 42-146 21zM2774 426c-32-14-64-51-64-73 0-29 43-53 95-53 89 0 155 63 116 111-22 27-102 36-147 15zM2057 404c-38-20-35-68 6-98 41-31 138-30 169 1 65 65-83 147-175 97zM3610 409c-35-14-80-59-80-81 0-47 83-42 134 9 55 54 20 101-54 72zM1273 334c-10-27 14-61 59-83 52-24 67-26 92-8 26 19 13 52-32 82-43 29-109 34-119 9zM3193 330c-29-13-44-27-49-45-8-34 5-47 49-47 75 0 136 66 92 99-25 17-42 16-92-7zM1671 282c-22-41 44-86 115-80 34 3 39 6 42 30 3 22-3 32-30 48-43 26-113 27-127 2zM2438 189c-66-25-33-89 46-89 69 0 111 47 71 80-20 16-84 22-117 9zM2823 110c-57-34-35-80 37-80 75 0 136 56 94 87-26 19-94 16-131-7zM2028 99c-46-26-3-80 70-87 55-5 100 21 89 52-14 36-119 59-159 35z"/></g></svg>