<svg class="img-fluid" xmlns="http://www.w3.org/2000/svg" style="transform:none;transform-origin:50% 50%;cursor:move" viewBox="0 0 5890 5890"><g style="transform:none" fill="#F55E41"><path d="M2645 4905c-42-41-48-32 153-267 154-181 169-191 212-148 39 39 28 60-130 244-180 211-189 217-235 171zM1972 4892c-16-16-21-47-31-178-6-87-14-169-17-182-5-27 35-72 66-72 25 0 60 34 60 58 0 9 7 89 15 177s15 163 15 168c0 4-9 16-20 27-25 25-64 26-88 2zM3716 4014c-26-25-19-59 47-259 54-161 68-192 90-205 24-13 28-13 54 6 15 12 29 29 31 38 5 23-116 397-135 419-20 21-66 22-87 1zM2877 3959c-22-31-21-62 2-83 16-15 52-19 200-27 124-7 187-7 200 1 41 21 39 94-3 110-13 5-105 12-203 16l-180 7-16-24zM4303 3647c-161-94-183-111-183-143 0-26 36-64 60-64 15 0 296 156 327 181 22 19 16 76-9 93-12 9-29 16-38 16-8 0-79-38-157-83zM796 3475c-99-40-185-81-193-91-29-40-2-94 48-94 36 0 381 139 402 162 9 11 17 29 17 39 0 28-36 59-67 58-16 0-109-34-207-74zM1642 3468c-30-15-38-52-53-240-10-129-9-160 1-173 23-28 47-36 74-25 33 12 41 48 57 244l12 159-27 24c-30 26-32 26-64 11zM1897 2732c-10-10-17-29-17-42 0-23 152-273 193-317 11-13 31-23 44-23 28 0 63 33 63 61 0 20-154 273-193 317-25 27-68 29-90 4zM714 2555c-10-15-14-34-10-47 5-22 258-319 293-345 9-7 27-13 39-13 23 0 64 42 64 66 0 13-264 324-298 352-27 21-70 15-88-13zM2800 2402c-18-15-24-39-41-171-18-140-18-155-4-177 21-33 78-34 99-1 11 18 46 250 46 310 0 21-39 57-61 57-9 0-27-8-39-18zM4557 2182c-13-14-22-68-38-212-11-107-18-204-15-216 8-30 57-50 86-34 31 17 35 36 56 249l18 193-23 19c-29 24-63 24-84 1zM3852 1640c-164-112-182-132-168-178 9-28 52-45 79-31 41 22 302 202 315 217 20 25 14 59-14 81-15 12-32 21-38 21-7 0-85-50-174-110zM2866 1078c-9-15-20-88-29-198-14-152-14-178-1-197 22-35 61-40 89-12 22 22 25 40 39 204 14 159 14 182 0 202-20 32-78 32-98 1z"/></g><g style="transform:none" fill="#7D2A9E"><path d="M3232 5253c-18-7-34-51-27-74 9-26 18-30 268-120 127-46 228-77 239-73 27 8 51 49 43 74-10 31-33 42-263 124-205 73-232 81-260 69zM1723 4058c-67-67-126-130-129-140-7-23 19-64 45-73 31-10 57 9 184 133 124 122 139 149 99 185-42 38-68 24-199-105zM2282 3000c-12-5-27-22-33-37-17-46 10-68 180-139 185-77 202-79 230-27 24 47 1 66-170 137-194 81-179 77-207 66zM4662 2857c-47-50-39-60 189-231 161-120 190-133 222-98 25 28 21 65-10 94-55 51-345 258-362 258-10 0-27-10-39-23zM1357 2633c-67-64-126-124-131-134-20-42 27-99 70-85 11 3 76 61 147 128 135 130 146 149 107 188-40 40-63 28-193-97zM3412 2292c-14-14-22-53-35-183-10-90-20-181-23-201-5-31-1-42 20-63 31-31 48-31 80-2 23 20 26 34 41 182 9 88 18 179 21 202 5 33 2 45-15 62-26 26-65 27-89 3zM4129 1221c-21-17-25-32-36-152-17-197-17-243 5-262 10-10 30-17 44-17 48 0 56 23 72 206 20 212 20 200-4 224-25 25-51 25-81 1zM3483 1184c-21-33-18-42 86-222 85-146 102-163 149-148 11 4 25 20 32 36 11 27 7 38-79 189-50 87-98 162-107 165-34 13-64 6-81-20z"/></g><g style="transform:none" fill="#FEBC20"><path d="M4560 4251c-25-10-100-40-168-66s-130-54-138-62c-22-22-17-69 8-87 12-9 28-16 36-16 22 0 356 132 375 148 22 20 22 64-1 85s-55 21-112-2zM817 4162c-22-24-22-65 1-84 33-29 329-178 354-178 50 0 78 70 41 102-34 29-331 178-356 178-13 0-31-8-40-18zM2360 3912c-13-10-22-29-22-44 0-28 153-303 184-330 11-10 29-18 39-18 26 0 59 35 59 64 0 34-170 323-198 336-31 14-36 13-62-8zM4117 3162c-10-10-17-30-17-43 0-36 128-362 148-377 27-21 74-11 91 19 14 25 11 37-54 205-37 99-77 187-88 197-25 22-60 22-80-1zM3647 2582c-22-24-22-65 1-85 9-9 120-53 246-98 247-88 268-91 282-34 14 58 1 66-244 153-127 45-239 82-250 82-10 0-26-8-35-18zM2260 1820c-11-11-20-30-20-42 0-28 296-377 331-390 17-7 30-4 49 10 50 37 41 58-91 213-206 243-222 256-269 209zM1346 1468c-9-12-16-30-16-39 0-28 176-322 198-332 33-15 68-1 82 33 12 28 8 37-75 180-48 83-94 158-102 166-22 22-69 18-87-8z"/></g><g style="transform:none" fill="#B8E5D1"><path d="M1355 4878c-53-30-48-51 51-223 87-152 105-175 135-175 27 0 62 34 62 61 0 39-170 328-200 340-29 11-23 11-48-3zM3904 4710c-11-4-25-14-31-21-14-18-123-359-123-386 0-46 71-71 102-35 19 20 131 355 131 389 0 42-38 68-79 53zM4805 3476c-33-24-21-65 64-211 95-161 106-175 138-175 29 0 63 33 63 61 0 20-147 285-178 322-18 20-61 22-87 3zM3315 3262c-138-55-172-73-185-95-17-31-8-53 31-76 25-14 81 4 360 116 80 31 69 125-14 122-12 0-98-30-192-67zM1560 1872c-26-21-30-66-9-87 8-8 88-48 178-90 179-83 197-86 223-30 20 44-11 69-186 151-87 41-165 74-171 74-7 0-23-8-35-18zM3115 1563c-93-36-178-72-187-81-38-32-10-102 40-102 30 0 351 126 373 146 11 10 19 28 19 41 0 27-33 63-57 63-10 0-94-30-188-67zM2268 1078c-9-7-70-112-137-233-123-224-130-243-93-272 23-18 66-16 84 5 26 30 248 438 248 456 0 42-67 71-102 44z"/></g></svg>